<svg xmlns="http://www.w3.org/2000/svg" viewBox="0 0 192.19 315.52"><defs><style>.cls-1{isolation:isolate;}.cls-2{fill:#eeba88;}.cls-3{fill:#bcbec0;}.cls-4{fill:#e61355;}.cls-5{fill:#fff;}.cls-6{fill:#fdc68b;}.cls-7{fill:#fcba81;}.cls-8{fill:#814a28;}.cls-9{fill:#312e31;}.cls-10{fill:#00497c;}.cls-11{fill:#2c81bf;}.cls-12{fill:#fbb040;}.cls-13{fill:#bc5e3d;}.cls-14{fill:#f7941d;}.cls-15{fill:#882b18;}.cls-16{fill:#c53e25;}.cls-17{fill:#f57f39;opacity:0.3;mix-blend-mode:multiply;}.cls-18{fill:#00aeef;}</style></defs><g class="cls-1"><g id="Layer_2" data-name="Layer 2"><g id="Layer_1-2" data-name="Layer 1"><path class="cls-2" d="M54.79,279.11c2.41-.77,61.81-19.57,75-16.63,14.33,3.2,15.44,5.25,17.22,7.08s-4.73,7.16-12.42,8.16-71.16,7.79-75.79,6.95S49.58,280.79,54.79,279.11Z"/><path class="cls-2" d="M147.85,270l-6.22-83s-27.13-1.13-29.12,10L131.2,274.9C135.72,277.43,145.31,273.71,147.85,270Z"/><path class="cls-3" d="M67.43,275a104.24,104.24,0,0,0-16.06,4.8c-5.22,1.67-.66,4.72,4,5.56,1.15.2,5.67-.22,11.79-.17C66.56,282.08,67.09,278,67.43,275Z"/><path class="cls-4" d="M50.46,275.9a28.28,28.28,0,0,1,8,0,34,34,0,0,0-.29,7.21c1.47,26.12,1.33,30.83,1.33,30.83s-6.12,2-6.64,1.51c-3-2.81-4.08-10.35-4.2-11.33-1.26-11-2.6-27.13-2.6-27.13Z"/><path class="cls-5" d="M60.08,294.65c-.17.51-.59.84-.94.72L54.93,294c-.35-.12-.5-.63-.34-1.14h0c.17-.51.59-.83.94-.71l4.21,1.36c.35.12.5.62.34,1.13Z"/><path class="cls-5" d="M59.81,298.26c-.17.51-.59.83-.94.72l-4.21-1.37c-.35-.11-.5-.62-.34-1.13h0c.17-.51.59-.83.94-.71l4.21,1.36a.86.86,0,0,1,.34,1.13Z"/><path class="cls-6" d="M22.52,230.92c2.41.74,61.86,19.42,71,29.38,9.91,10.84,9.64,13.16,10,15.67s-8,3.16-14.85-.44S25.91,241.1,22.59,237.76,17.28,229.3,22.52,230.92Z"/><path class="cls-3" d="M35.24,234.78a106,106,0,0,0-15.91-5.29c-5.23-1.62-3.25,3.5.07,6.84.83.83,4.78,3.08,9.76,6.63C30.46,240.1,33.2,237.09,35.24,234.78Z"/><path class="cls-6" d="M104.68,272,110.12,189s-26.71-4.9-30.24,5.86l7.63,79.76C91.64,277.71,101.65,275.37,104.68,272Z"/><path class="cls-7" d="M99.51,77.84,73.56,87.11c-1.09,2.61,11.68,12.92,12.8,26.44s6.34,49.32,6.34,49.32l27,.76s-.24-27.79-1.37-40.64,1.59-40,1.59-40Z"/><polygon class="cls-8" points="94.05 170.23 119.75 169.68 119.6 155.39 91.55 156.11 94.05 170.23"/><path class="cls-9" d="M81.74,88.09a30.69,30.69,0,0,0,19.75,5.47,21.08,21.08,0,0,0,16.93-9.88L129,87.35l1.4,21-2,57.15-36.91,7.54L75.38,93.22Z"/><path class="cls-9" d="M98,151.11c2.83-.58,5.66-1,8.5-1.43,1-.2,2-.39,2.94-.56a155.16,155.16,0,0,1,20-2.22L132,105.19l-3-20.61-10.59-.9s-4.94,6.37-16.93,7.1a30.62,30.62,0,0,1-19.75-5.47l-6.36,5.14,12.76,63.09C91.4,152.62,94.68,151.79,98,151.11Z"/><path class="cls-8" d="M106,192.49c.11-.06,4.48-2.44,6.19-9.69h0a66.36,66.36,0,0,0,1.29-12.41h0c.09-3.39,0-5.89,0-5.9h0l-1.49,0s.09,2.47,0,5.81h0a63.34,63.34,0,0,1-1.26,12.09h0a14.69,14.69,0,0,1-4.43,8h0l-1.72-26.1-1.48.1L105,193l1-.53Z"/><path class="cls-8" d="M93.65,167.59l0-.09-.47-1.35h0a7.33,7.33,0,0,1,1.71-.2h0c5.67-.3,24.57-.18,24.58-.18v1.52h0s-6.18,0-12.52,0h0c-3.16,0-6.38,0-8.88.09h0c-1.24,0-2.31.06-3.1.1h0l-1,.07h0l-.28,0h-.06Zm25.79-.3h0Z"/><path class="cls-8" d="M137.36,184.16l-.2,1.51h0c-.06,0-5.38-.72-8.52-3.79h0c-1.73-1.8-1.9-5-1.86-7.9h0a22.18,22.18,0,0,1,.53-4.64l1.3,0,.16.23a22.14,22.14,0,0,0-.51,4.41h0c-.1,2.72.3,5.75,1.41,6.77h0a12.67,12.67,0,0,0,4.83,2.67h0a21,21,0,0,0,2.86.7Zm-8.61-15.24Z"/><path class="cls-4" d="M93,113.32c-2.82-7.76-7.73-27.91-9.79-29-2.85-1.54-19.32,6-21.91,8.62C59.86,94.38,65.59,115,69,123.19c1,2.37,8.46,22.58,9.17,38.1,6.23.26,13-2.1,13.4-2.11C93,145.07,94.38,126.87,93,113.32Z"/><path class="cls-4" d="M110.77,112c1.53,14.35,6.41,24.26,7.54,39.79a66.49,66.49,0,0,0,16.44-.26.45.45,0,0,0,.09-.19c1.42-14.93.62-64.54.91-65.84l-14.06-4.12-9.21-.48S112.48,101.8,110.77,112Z"/><path class="cls-10" d="M141.65,181c-1.42-4.13-7.82-15-12.74-22.56-10.8,2.74-27.47,3.93-40,2.47C84.54,168.33,80,178.6,80,178.6c-1.45,4.75-2.32,21.58-2.32,21.58s7,7,30.6,7c1.12,0,1.26-8.7,2-8.7,0,1.41,2,7.58,2,7.86a133.54,133.54,0,0,0,31.72-9.54S143.83,187.3,141.65,181Z"/><path class="cls-11" d="M75.71,202.42s-1.48-7.3.29-8.42,16.53,5.05,22.72,6.18a48.25,48.25,0,0,1,10.92,3.36l-1.47,3.65S81.61,208.32,75.71,202.42Z"/><path class="cls-11" d="M145.09,197.94s.82-7.82-1.14-8.83-16.77,6.93-23.14,8.72a36.78,36.78,0,0,0-10.33,4.59l1.16,3.72S139.5,204.72,145.09,197.94Z"/><path class="cls-4" d="M20.81,225.8a28.33,28.33,0,0,1,6.6,4.61A33.75,33.75,0,0,0,23,236.15c-13.78,22.24-16.59,26-16.59,26S.29,260.29.14,259.6c-.87-4,2.59-10.82,3.06-11.69,5.29-9.77,13.43-23.72,13.43-23.72Z"/><path class="cls-5" d="M17.93,246.68a.87.87,0,0,1-1.18,0l-2.66-3.53c-.23-.3-.06-.8.37-1.13h0c.43-.32,1-.34,1.18,0l2.66,3.53c.23.3.06.8-.37,1.12Z"/><path class="cls-5" d="M15.64,249.48a.86.86,0,0,1-1.18.05L11.8,246c-.22-.3-.06-.8.37-1.12h0c.43-.33,1-.35,1.18,0L16,248.36c.23.3.06.8-.37,1.12Z"/><path class="cls-7" d="M106.76,86.84c1.5-1.26,1-1.58,2-3.17l-1.34-17.92L94,67,92.68,82.6C95.93,85.74,104,89.18,106.76,86.84Z"/><path class="cls-12" d="M70.74,25c-1.32-.62-10.47-5.8-6.59-14,4.22-9,23.31-11,22.79-2.27s-3.74,10-3.74,10S75.49,27.23,70.74,25Z"/><path class="cls-13" d="M110,13.9a12.53,12.53,0,0,1-.52-1.62,5,5,0,0,1,.86-.13Z"/><path class="cls-12" d="M87.37,65.12c-4.88-3.54-2,.28-6.29-3.9-7-7.43-15.42-21.81-12.52-32.52,4.5-16.62,19.55-20,25.15-19.94,10.78.06,11.93,34.23,2.45,60.91C91,67.16,92.08,68.53,87.37,65.12Z"/><path class="cls-6" d="M128.13,43.39c1.17,15.74-14.42,33.81-23.89,34-16.45.3-27.92-17.45-29.09-33.2S86.37,16.4,102.07,15.27,127,27.64,128.13,43.39Z"/><path class="cls-6" d="M81.61,52.64c.16,3.78-.72,6.3-3.2,6.41s-6.71-2.94-6.88-6.72.69-6.86,3.17-7S81.45,48.86,81.61,52.64Z"/><path class="cls-12" d="M77.91,49.48c.9,1.33-4-24.28,23.87-31.6,4.53-1.19,3.38-8.59,2.65-9.44s-17-.16-24.62,6.93C74.39,20.42,64.73,29.92,77.91,49.48Z"/><ellipse class="cls-6" cx="100.87" cy="269.85" rx="4.53" ry="8.9"/><path class="cls-4" d="M80.7,85.89s-14.27,1.27-19.14,7.77c-1.58,2.11-24,39.75-24,39.75l12.58,2S73,105.8,75.64,102.87,87.62,87.07,80.7,85.89Z"/><path class="cls-6" d="M37.94,137.42,21.73,96.32l4.46-5.06,25.65,40.33-1.75,5.69S44.44,148.38,37.94,137.42Z"/><path class="cls-6" d="M27.5,95.94c-.31-.59,2-9.73,2-9.73L26.33,74.82l-1.63.39L25.92,84,21,76.22,19.22,74l-2,.68L18.25,79l-3.33-2.37-1.59,1.68-.08,1.4-1.62-.42L9.1,81.17,22.24,97.75Z"/><path class="cls-4" d="M120.63,81.42s14.27,1.27,19.15,7.77c1.58,2.11,24,39.75,24,39.75l-12.59,2s-22.78-29.57-25.45-32.5S113.71,82.6,120.63,81.42Z"/><path class="cls-6" d="M163.4,133l16.2-41.1-4.46-5-25.65,40.33,1.76,5.68S156.89,143.91,163.4,133Z"/><path class="cls-6" d="M173.79,92.12c.31-.59-2-9.74-2-9.74L175,71l1.62.4-1.21,8.79,4.88-7.79,1.81-2.19,2.05.67L183,75.16l3.32-2.37,1.6,1.68.08,1.4,1.61-.42,2.54,1.89L179.05,93.93Z"/><path class="cls-14" d="M97.61,42.15A29.38,29.38,0,0,0,92,42.06a32.17,32.17,0,0,0-4.41,1l.71,1.13a16.94,16.94,0,0,0,3.42-.16,24.65,24.65,0,0,1,5.52.31Z"/><path class="cls-14" d="M111.78,42.23a29.1,29.1,0,0,1,5.6-.32,31.47,31.47,0,0,1,4.45.83l-.66,1.16a17,17,0,0,1-3.42,0,24.6,24.6,0,0,0-5.5.54Z"/><path class="cls-15" d="M117.8,48.83a2.43,2.43,0,0,1-2.36,2.42,2.31,2.31,0,0,1-2.3-2.38,2.42,2.42,0,0,1,2.36-2.42A2.29,2.29,0,0,1,117.8,48.83Z"/><path class="cls-15" d="M96.28,49.07a2.44,2.44,0,0,1-2.36,2.42,2.31,2.31,0,0,1-2.3-2.39A2.42,2.42,0,0,1,94,46.68,2.31,2.31,0,0,1,96.28,49.07Z"/><circle class="cls-5" cx="116.27" cy="47.94" r="0.7"/><circle class="cls-5" cx="95.04" cy="48.64" r="0.7"/><path class="cls-16" d="M104,61.57a22.15,22.15,0,0,1-6.35-.69h-.09c1.32,5,4.12,7.13,8,6.87,5-.34,6-7.72,6-7.72h-.14A22,22,0,0,1,104,61.57Z"/><path class="cls-5" d="M104,61.57a22.19,22.19,0,0,1-6.67-.78h-.12c1.87,2,4.68,2.77,8.27,2.58a8,8,0,0,0,5.88-2.76c.1-.35.15-.58.15-.58h-.15A22,22,0,0,1,104,61.57Z"/><path id="nose" class="cls-17" d="M108.1,55.24a1.74,1.74,0,0,0-.49-1.4,12.41,12.41,0,0,0-1.85-1.21,6.08,6.08,0,0,0,1,1.87.66.66,0,0,1,0,.56c0,.19-.23,2.18-3.44,2.33a2.61,2.61,0,0,0,2.23.46,3.25,3.25,0,0,0,2.09-1.37A3.19,3.19,0,0,0,108.1,55.24Z"/><path class="cls-12" d="M127.93,58c0,2.42-2.86-12.48-17.88-24.63-4-3.29-25.2-12.74-24.64-16.88,1.37-10,15.67-10.51,16.7-10.57A28.16,28.16,0,0,1,128,20.17C136.87,35.34,128,52.27,127.93,58Z"/><line class="cls-18" x1="179.37" y1="88.27" x2="179.37" y2="88.27"/><path class="cls-12" d="M127.6,21.91c1.32-.62,10.46-5.8,6.58-14-4.22-9-23.31-11-22.78-2.27s3.73,10,3.73,10S122.84,24.17,127.6,21.91Z"/></g></g></g></svg>