<?xml version="1.0" encoding="UTF-8"?>
<svg xmlns="http://www.w3.org/2000/svg" xmlns:xlink="http://www.w3.org/1999/xlink" width="128pt" height="128pt" viewBox="0 0 128 128" version="1.1">
<g id="surface1">
<path style=" stroke:none;fill-rule:nonzero;fill:rgb(0%,0%,0%);fill-opacity:1;" d="M 64 10.667969 C 34.558594 10.667969 10.667969 34.558594 10.667969 64 C 10.667969 93.441406 34.558594 117.332031 64 117.332031 C 93.441406 117.332031 117.332031 93.441406 117.332031 64 C 117.332031 34.558594 93.441406 10.667969 64 10.667969 Z M 64 90.667969 C 61.066406 90.667969 58.667969 88.265625 58.667969 85.332031 L 58.667969 64 C 58.667969 61.066406 61.066406 58.667969 64 58.667969 C 66.933594 58.667969 69.332031 61.066406 69.332031 64 L 69.332031 85.332031 C 69.332031 88.265625 66.933594 90.667969 64 90.667969 Z M 69.332031 48 L 58.667969 48 L 58.667969 37.332031 L 69.332031 37.332031 Z M 69.332031 48 "/>
</g>
</svg>
