<?xml version="1.0" encoding="UTF-8"?>
<svg xmlns="http://www.w3.org/2000/svg" xmlns:xlink="http://www.w3.org/1999/xlink" width="120pt" height="120pt" viewBox="0 0 120 120" version="1.1">
<g id="surface1">
<path style=" stroke:none;fill-rule:nonzero;fill:rgb(0%,0%,0%);fill-opacity:1;" d="M 60 10 C 32.398438 10 10 32.398438 10 60 C 10 87.601562 32.398438 110 60 110 C 87.601562 110 110 87.601562 110 60 C 110 32.398438 87.601562 10 60 10 Z M 60 85 C 57.25 85 55 82.75 55 80 L 55 60 C 55 57.25 57.25 55 60 55 C 62.75 55 65 57.25 65 60 L 65 80 C 65 82.75 62.75 85 60 85 Z M 65 45 L 55 45 L 55 35 L 65 35 Z M 65 45 "/>
</g>
</svg>
