<?xml version="1.0" encoding="UTF-8"?>
<svg xmlns="http://www.w3.org/2000/svg" xmlns:xlink="http://www.w3.org/1999/xlink" width="128pt" height="128pt" viewBox="0 0 128 128" version="1.1">
<g id="surface1">
<path style=" stroke:none;fill-rule:nonzero;fill:rgb(0%,0%,0%);fill-opacity:1;" d="M 71.945312 29.226562 C 77.8125 29.226562 82.613281 24.425781 82.613281 18.558594 C 82.613281 12.691406 77.8125 7.894531 71.945312 7.894531 C 66.078125 7.894531 61.28125 12.691406 61.28125 18.558594 C 61.28125 24.425781 66.078125 29.226562 71.945312 29.226562 Z M 55.039062 93.226562 L 58.078125 79.894531 L 69.28125 90.558594 L 69.28125 117.226562 C 69.28125 120.160156 71.679688 122.558594 74.613281 122.558594 C 77.546875 122.558594 79.945312 120.160156 79.945312 117.226562 L 79.945312 87.148438 C 79.945312 84.214844 78.773438 81.441406 76.640625 79.414062 L 68.746094 71.894531 L 71.945312 55.894531 C 77.652344 62.507812 85.921875 67.253906 95.199219 68.746094 C 98.398438 69.226562 101.28125 66.667969 101.28125 63.414062 C 101.28125 60.800781 99.359375 58.613281 96.746094 58.1875 C 88.640625 56.851562 81.921875 52.054688 78.347656 45.761719 L 73.011719 37.226562 C 70.878906 34.027344 67.679688 31.894531 63.945312 31.894531 C 62.347656 31.894531 61.28125 32.425781 59.679688 32.425781 L 38.453125 41.386719 C 34.507812 43.09375 31.945312 46.933594 31.945312 51.253906 L 31.945312 63.894531 C 31.945312 66.828125 34.347656 69.226562 37.28125 69.226562 C 40.214844 69.226562 42.613281 66.828125 42.613281 63.894531 L 42.613281 51.09375 L 52.214844 47.359375 L 43.679688 90.558594 L 22.773438 86.292969 C 19.894531 85.707031 17.066406 87.574219 16.480469 90.453125 L 16.480469 90.667969 C 15.894531 93.546875 17.761719 96.375 20.640625 96.960938 L 42.558594 101.332031 C 48.214844 102.453125 53.761719 98.878906 55.039062 93.226562 Z M 55.039062 93.226562 "/>
</g>
</svg>
