<?xml version="1.0" encoding="UTF-8"?>
<svg xmlns="http://www.w3.org/2000/svg" xmlns:xlink="http://www.w3.org/1999/xlink" width="180pt" height="180pt" viewBox="0 0 180 180" version="1.1">
<g id="surface1">
<path style=" stroke:none;fill-rule:nonzero;fill:rgb(0%,0%,0%);fill-opacity:1;" d="M 101.175781 41.097656 C 109.425781 41.097656 116.175781 34.347656 116.175781 26.097656 C 116.175781 17.847656 109.425781 11.097656 101.175781 11.097656 C 92.925781 11.097656 86.175781 17.847656 86.175781 26.097656 C 86.175781 34.347656 92.925781 41.097656 101.175781 41.097656 Z M 77.402344 131.097656 L 81.675781 112.347656 L 97.425781 127.347656 L 97.425781 164.847656 C 97.425781 168.972656 100.800781 172.347656 104.925781 172.347656 C 109.050781 172.347656 112.425781 168.972656 112.425781 164.847656 L 112.425781 122.550781 C 112.425781 118.425781 110.777344 114.527344 107.777344 111.675781 L 96.675781 101.097656 L 101.175781 78.597656 C 109.199219 87.902344 120.824219 94.574219 133.875 96.675781 C 138.375 97.347656 142.425781 93.75 142.425781 89.175781 C 142.425781 85.5 139.722656 82.425781 136.050781 81.824219 C 124.652344 79.949219 115.199219 73.199219 110.175781 64.347656 L 102.675781 52.347656 C 99.675781 47.847656 95.175781 44.847656 89.925781 44.847656 C 87.675781 44.847656 86.175781 45.597656 83.925781 45.597656 L 54.074219 58.199219 C 48.527344 60.597656 44.925781 66 44.925781 72.074219 L 44.925781 89.847656 C 44.925781 93.972656 48.300781 97.347656 52.425781 97.347656 C 56.550781 97.347656 59.925781 93.972656 59.925781 89.847656 L 59.925781 71.847656 L 73.425781 66.597656 L 61.425781 127.347656 L 32.027344 121.347656 C 27.972656 120.527344 24 123.152344 23.175781 127.199219 L 23.175781 127.5 C 22.347656 131.550781 24.972656 135.527344 29.027344 136.347656 L 59.847656 142.5 C 67.800781 144.074219 75.597656 139.050781 77.402344 131.097656 Z M 77.402344 131.097656 "/>
</g>
</svg>
