<?xml version="1.0" encoding="UTF-8"?>
<svg xmlns="http://www.w3.org/2000/svg" xmlns:xlink="http://www.w3.org/1999/xlink" width="120pt" height="120pt" viewBox="0 0 120 120" version="1.1">
<g id="surface1">
<path style=" stroke:none;fill-rule:nonzero;fill:rgb(0%,0%,0%);fill-opacity:1;" d="M 67.449219 27.398438 C 72.949219 27.398438 77.449219 22.898438 77.449219 17.398438 C 77.449219 11.898438 72.949219 7.398438 67.449219 7.398438 C 61.949219 7.398438 57.449219 11.898438 57.449219 17.398438 C 57.449219 22.898438 61.949219 27.398438 67.449219 27.398438 Z M 51.601562 87.398438 L 54.449219 74.898438 L 64.949219 84.898438 L 64.949219 109.898438 C 64.949219 112.648438 67.199219 114.898438 69.949219 114.898438 C 72.699219 114.898438 74.949219 112.648438 74.949219 109.898438 L 74.949219 81.699219 C 74.949219 78.949219 73.851562 76.351562 71.851562 74.449219 L 64.449219 67.398438 L 67.449219 52.398438 C 72.800781 58.601562 80.550781 63.050781 89.25 64.449219 C 92.25 64.898438 94.949219 62.5 94.949219 59.449219 C 94.949219 57 93.148438 54.949219 90.699219 54.550781 C 83.101562 53.300781 76.800781 48.800781 73.449219 42.898438 L 68.449219 34.898438 C 66.449219 31.898438 63.449219 29.898438 59.949219 29.898438 C 58.449219 29.898438 57.449219 30.398438 55.949219 30.398438 L 36.050781 38.800781 C 32.351562 40.398438 29.949219 44 29.949219 48.050781 L 29.949219 59.898438 C 29.949219 62.648438 32.199219 64.898438 34.949219 64.898438 C 37.699219 64.898438 39.949219 62.648438 39.949219 59.898438 L 39.949219 47.898438 L 48.949219 44.398438 L 40.949219 84.898438 L 21.351562 80.898438 C 18.648438 80.351562 16 82.101562 15.449219 84.800781 L 15.449219 85 C 14.898438 87.699219 16.648438 90.351562 19.351562 90.898438 L 39.898438 95 C 45.199219 96.050781 50.398438 92.699219 51.601562 87.398438 Z M 51.601562 87.398438 "/>
</g>
</svg>
