<svg xmlns="http://www.w3.org/2000/svg" xmlns:xlink="http://www.w3.org/1999/xlink" viewBox="0 0 358.02 315.07"><defs><style>.cls-1,.cls-26,.cls-53,.cls-54{fill:none;}.cls-2{fill:url(#linear-gradient);}.cls-3{fill:url(#linear-gradient-2);}.cls-4{fill:#645faa;}.cls-5{fill:url(#linear-gradient-3);}.cls-6{fill:url(#linear-gradient-4);}.cls-7{fill:url(#linear-gradient-5);}.cls-8{fill:url(#linear-gradient-6);}.cls-9{fill:url(#linear-gradient-7);}.cls-10{fill:url(#linear-gradient-8);}.cls-11{fill:#3b2e83;}.cls-12{isolation:isolate;}.cls-13{fill:#fdc68b;}.cls-14{fill:#006838;}.cls-15{fill:#ec008c;}.cls-16{fill:#fbb275;}.cls-17{fill:#39b54a;}.cls-18{fill:url(#Plume2);}.cls-19{clip-path:url(#clip-path);}.cls-20{fill:#a97c50;}.cls-21{fill:#bc5e3d;}.cls-22{fill:#f1bc8a;}.cls-23{fill:#5a413d;stroke:#5a413d;stroke-width:0.13px;}.cls-23,.cls-26,.cls-53,.cls-54{stroke-miterlimit:10;}.cls-24{fill:#c53e25;}.cls-25{fill:#fff;}.cls-26{stroke:#39b54a;stroke-linecap:round;stroke-width:1.12px;}.cls-27{fill:#f57f39;opacity:0.3;}.cls-27,.cls-31,.cls-39,.cls-42,.cls-57,.cls-58,.cls-59{mix-blend-mode:multiply;}.cls-28{fill:#009444;}.cls-29{fill:#d7df23;}.cls-30{fill:#ed1c24;}.cls-31{fill:#f1ad72;opacity:0.15;}.cls-32{fill:#2a0f13;}.cls-33{fill:#bc2026;}.cls-34{fill:#754c29;opacity:0.5;}.cls-35{fill:#231f20;}.cls-36{fill:#3c2415;}.cls-37{fill:#f2cba8;}.cls-38{fill:#a41e22;}.cls-39{fill:#5b3a2c;}.cls-39,.cls-42{opacity:0.4;}.cls-40{fill:#2b3990;}.cls-41,.cls-42{fill:#d1d2d2;}.cls-43{fill:#ffc20e;}.cls-44{fill:#2bb673;}.cls-45{fill:url(#Plume1);}.cls-46{clip-path:url(#clip-path-2);}.cls-47,.cls-57{fill:#f9a45d;}.cls-48{fill:#7898a5;}.cls-49{fill:#b2d6f1;}.cls-50{fill:#b5dddf;}.cls-51{fill:#814a28;}.cls-52{fill:#fed4af;}.cls-53{stroke:#cc9f6c;stroke-width:0.74px;}.cls-54{stroke:#bcbec0;stroke-width:0.34px;}.cls-55{fill:#4d4d4f;}.cls-56{fill:#a7a9ac;}.cls-57{opacity:0.7;}.cls-58,.cls-59{fill:#e27934;}.cls-59{opacity:0.8;}.cls-60{fill:#d26027;}.cls-61{fill:#36160e;}.cls-62{fill:#808285;}.cls-63{fill:#939598;}.cls-64{fill:#25110b;}.cls-65{fill:#6d6e71;}</style><linearGradient id="linear-gradient" x1="-31521.83" y1="-44148.27" x2="-31478.6" y2="-44118.44" gradientTransform="matrix(1, 0, 0, -1, 31628.5, -43927.72)" gradientUnits="userSpaceOnUse"><stop offset="0.03" stop-color="#9791c6"/><stop offset="0.66" stop-color="#7670b3"/></linearGradient><linearGradient id="linear-gradient-2" x1="-31490.53" y1="-44081.51" x2="-31412.1" y2="-44081.51" xlink:href="#linear-gradient"/><linearGradient id="linear-gradient-3" x1="-31660.84" y1="-44148.27" x2="-31617.61" y2="-44118.44" xlink:href="#linear-gradient"/><linearGradient id="linear-gradient-4" x1="-31629.54" y1="-44081.51" x2="-31551.11" y2="-44081.51" xlink:href="#linear-gradient"/><linearGradient id="linear-gradient-5" x1="-31521.83" y1="-44010.83" x2="-31478.6" y2="-43981" xlink:href="#linear-gradient"/><linearGradient id="linear-gradient-6" x1="-31490.53" y1="-43944.07" x2="-31412.1" y2="-43944.07" xlink:href="#linear-gradient"/><linearGradient id="linear-gradient-7" x1="-31660.84" y1="-44010.83" x2="-31617.61" y2="-43981" xlink:href="#linear-gradient"/><linearGradient id="linear-gradient-8" x1="-31629.54" y1="-43944.07" x2="-31551.11" y2="-43944.07" xlink:href="#linear-gradient"/><pattern id="Plume2" data-name="Plume2" width="139.81" height="138.3" patternUnits="userSpaceOnUse" viewBox="0 0 139.81 138.3"><rect class="cls-1" width="139.81" height="138.3"/><path class="cls-11" d="M148.62,195.66c-12.83-21.2-8.59-44-2-51.85C138.3,151.19,134,157,132.14,169.3c-7.68-6.68-12.53-8.7-21.75-10.55,14.2,8.79,19.77,19.77,24.17,34.71a35,35,0,0,0-18.24-16c6.3,6.06,4,11.65,7.86,21.69,2.48,6.36,6.55,10.36,10.45,12.31a11.28,11.28,0,0,1-10-4.05c7.64,23.62,33.52,14.05,46.16,25.41-10.85-5.24-27.54.24-27.54,15.56a17.17,17.17,0,0,0,16.81,17c8.52,0,13.58-5.78,13.58-11.29,0-4.94-2.52-7.39-5-8.31a5.23,5.23,0,0,1-4.14,8.5,6.4,6.4,0,0,1-6.3-6.47c0-6.26,5.79-8.84,10.76-8.84,6.69,0,13.1,2.9,15.13,8.46C187,223.85,161.24,216.53,148.62,195.66Zm114.24-42.84c-16.14,5.91-34.74-1.74-51.41,7.69,17.88-6.21,38.65-3.18,50.14,15.82-4.56-4.56-13.31-6.15-20-6.15,15.6,8.72,13.79,31.7-.48,36.16,0,0,4.59-3.25,4.59-11.52,0-11.08-9.77-20.34-28-20.34-12.37,0-22.94,5.25-27.5,13.93,4.94-5.81,13.28-9.89,22.63-9.89,13.31,0,18.56,9.79,18.67,17.46A18,18,0,0,1,222,211.92c5.71-6.32,1.21-14.94-6.81-14.94-11.65,0-16.48,14.12-14.28,25.7,2.68-9.83,7.93-15,17.58-16.69-7,5.61-9.65,11.36-8.57,20.87,6.17-13.63,18.46-6.81,24.17-20.43,1.37,7.55.12,19-10.8,24.28-12.22,5.93-22.38,3.18-32,14.38-2.66-22.61-17.29-27.67-31.2-42.62-18-19.34-17-46.15-8.35-60.41-2.11,14.29.51,27.42,9.23,38.66-5.09-17.12-4.22-35.12,4.17-49-1.19,9.25-1,14.26,2,22.63.88-18,8.54-30.69,22.85-41.52-5.72,9.64-8.59,22-7,31.85,6.33-25.86,24.07-36.95,36.74-40.64a39.29,39.29,0,0,0-8.18,18.23c9.38-19.55,27.76-22.3,37.79-28.34,7.21-4.34,4.21-12.34-.16-12.34-2.38,0-3.75,1.38-5.13,4,1-5.25,4.38-7.87,8-7.87,5.31,0,9.33,5.25,9.33,11.71,0,17.26-22.93,29.47-48.95,44.27-22.41,12.74-32.5,22.27-35.81,40-3.36,18,5.93,35.15,5.93,35.15s-8.56-29.6,4.63-47.86c12-16.63,30.33-23.93,47.25-33.88,18.7-11,35.87-22.62,30.72-41.5,9.46,9.45,12.72,24.28,5.28,33.39-9.57,11.71-28.53,14.24-36,21.75,13.15-6.64,25.22-4.12,34.71-7.91,9.32-3.73,9.22-14.28,9.22-14.28C282.08,131.85,278.23,147.19,262.86,152.82ZM154.45,230c-7.42-.23-15.55,4.81-15.23,10.14C132,230.53,145.55,226.58,154.45,230Zm82.63-8.36c9.35,9.24-4.66,15.64-14.79,13.32C230.31,234.08,238.26,227.37,237.08,221.68Zm18.7-30.16c5.66,8.71,4.46,24.07-7.43,18.46C254.1,209.14,257.66,199.37,255.78,191.52Zm-95.84,80.73c-7.1,11.07-16.27-1.31-16.11-11.69C146.41,268.21,154.62,274.59,159.94,272.25Z"/><path class="cls-11" d="M8.81,195.66c-12.82-21.2-8.59-44-2-51.85C-1.51,151.19-5.85,157-7.67,169.3c-7.68-6.68-12.53-8.7-21.75-10.55,14.2,8.79,19.77,19.77,24.17,34.71a35,35,0,0,0-18.24-16c6.3,6.06,3.95,11.65,7.86,21.69,2.48,6.36,6.55,10.36,10.45,12.31a11.28,11.28,0,0,1-10-4.05C-7.52,231,18.36,221.43,31,232.79c-10.85-5.24-27.54.24-27.54,15.56a17.17,17.17,0,0,0,16.81,17c8.52,0,13.59-5.78,13.59-11.29,0-4.94-2.53-7.39-5.06-8.31a5.23,5.23,0,0,1-4.14,8.5,6.4,6.4,0,0,1-6.3-6.47c0-6.26,5.79-8.84,10.77-8.84,6.68,0,13.09,2.9,15.12,8.46C47.14,223.85,21.43,216.53,8.81,195.66Zm114.24-42.84c-16.14,5.91-34.74-1.74-51.41,7.69,17.88-6.21,38.65-3.18,50.14,15.82-4.56-4.56-13.31-6.15-20-6.15,15.6,8.72,13.79,31.7-.48,36.16,0,0,4.59-3.25,4.59-11.52,0-11.08-9.77-20.34-28-20.34-12.37,0-22.94,5.25-27.5,13.93,4.94-5.81,13.28-9.89,22.63-9.89,13.31,0,18.56,9.79,18.67,17.46a18,18,0,0,1-9.45,15.94C87.89,205.6,83.39,197,75.37,197c-11.65,0-16.48,14.12-14.28,25.7,2.68-9.83,7.93-15,17.58-16.69-7,5.61-9.65,11.36-8.57,20.87,6.17-13.63,18.46-6.81,24.17-20.43,1.37,7.55.12,19-10.8,24.28-12.22,5.93-22.38,3.18-32,14.38-2.66-22.61-17.29-27.67-31.2-42.62-18-19.34-17-46.15-8.35-60.41-2.11,14.29.51,27.42,9.23,38.66-5.09-17.12-4.22-35.12,4.18-49-1.2,9.25-1,14.26,2,22.63.88-18,8.54-30.69,22.85-41.52-5.72,9.64-8.59,22-7,31.85,6.33-25.86,24.07-36.95,36.74-40.64a39.29,39.29,0,0,0-8.18,18.23C81,102.73,99.4,100,109.43,93.94c7.21-4.34,4.21-12.34-.16-12.34-2.38,0-3.75,1.38-5.13,4,1-5.25,4.38-7.87,8-7.87,5.31,0,9.33,5.25,9.33,11.71,0,17.26-22.93,29.47-48.95,44.27C50.11,146.45,40,156,36.71,173.69c-3.36,18,5.93,35.15,5.93,35.15s-8.56-29.6,4.63-47.86c12-16.63,30.33-23.93,47.25-33.88,18.7-11,35.87-22.62,30.72-41.5,9.46,9.45,12.72,24.28,5.28,33.39-9.57,11.71-28.52,14.24-36,21.75,13.15-6.64,25.22-4.12,34.71-7.91,9.32-3.73,9.22-14.28,9.22-14.28C142.27,131.85,138.42,147.19,123.05,152.82ZM14.64,230c-7.42-.23-15.55,4.81-15.23,10.14C-7.86,230.53,5.74,226.58,14.64,230Zm82.63-8.36c9.35,9.24-4.66,15.64-14.79,13.32C90.5,234.08,98.45,227.37,97.27,221.68ZM116,191.52c5.66,8.71,4.46,24.07-7.43,18.46C114.29,209.14,117.85,199.37,116,191.52ZM20.13,272.25C13,283.32,3.86,270.94,4,260.56,6.6,268.21,14.81,274.59,20.13,272.25Z"/><path class="cls-11" d="M148.62,57.36c-12.83-21.19-8.59-44-2-51.84C138.3,12.89,134,18.73,132.14,31c-7.68-6.68-12.53-8.7-21.75-10.55,14.2,8.79,19.77,19.78,24.17,34.72a35,35,0,0,0-18.24-16c6.3,6.06,4,11.65,7.86,21.69,2.48,6.36,6.55,10.37,10.45,12.32a11.3,11.3,0,0,1-10-4.06c7.64,23.62,33.52,14.06,46.16,25.41-10.85-5.24-27.54.24-27.54,15.56a17.17,17.17,0,0,0,16.81,17c8.52,0,13.58-5.78,13.58-11.29,0-4.94-2.52-7.38-5-8.31a5.23,5.23,0,0,1-4.14,8.51,6.41,6.41,0,0,1-6.3-6.48c0-6.26,5.79-8.84,10.76-8.84,6.69,0,13.1,2.9,15.13,8.47C187,85.55,161.24,78.23,148.62,57.36ZM262.86,14.52c-16.14,5.91-34.74-1.74-51.41,7.69C229.33,16,250.1,19,261.59,38c-4.56-4.56-13.31-6.15-20-6.15,15.6,8.72,13.79,31.7-.48,36.16,0,0,4.59-3.25,4.59-11.51,0-11.09-9.77-20.35-28-20.35-12.37,0-22.94,5.25-27.5,13.93,4.94-5.81,13.28-9.88,22.63-9.88,13.31,0,18.56,9.78,18.67,17.45A18,18,0,0,1,222,73.62c5.71-6.32,1.21-14.94-6.81-14.94-11.65,0-16.48,14.12-14.28,25.7,2.68-9.83,7.93-14.95,17.58-16.69-7,5.61-9.65,11.36-8.57,20.87,6.17-13.63,18.46-6.81,24.17-20.43,1.37,7.55.12,19-10.8,24.28-12.22,5.94-22.38,3.18-32,14.38C188.58,84.18,174,79.12,160,64.17c-18-19.34-17-46.15-8.35-60.41-2.11,14.29.51,27.42,9.23,38.66-5.09-17.12-4.22-35.12,4.17-49-1.19,9.25-1,14.26,2,22.63.88-18,8.54-30.68,22.85-41.52-5.72,9.64-8.59,22-7,31.85,6.33-25.86,24.07-36.95,36.74-40.64A39.32,39.32,0,0,0,211.45-16c9.38-19.56,27.76-22.31,37.79-28.34,7.21-4.35,4.21-12.35-.16-12.35-2.38,0-3.75,1.38-5.13,4,1-5.25,4.38-7.87,8-7.87,5.31,0,9.33,5.25,9.33,11.71,0,17.26-22.93,29.47-48.95,44.27-22.41,12.74-32.5,22.27-35.81,40-3.36,18,5.93,35.15,5.93,35.15s-8.56-29.6,4.63-47.86c12-16.63,30.33-23.92,47.25-33.88,18.7-11,35.87-22.62,30.72-41.5,9.46,9.45,12.72,24.28,5.28,33.39C260.76-7.6,241.8-5.07,234.3,2.44,247.45-4.2,259.52-1.67,269-5.47c9.32-3.73,9.22-14.28,9.22-14.28C282.08-6.45,278.23,8.9,262.86,14.52ZM154.45,91.74c-7.42-.22-15.55,4.81-15.23,10.14C132,92.23,145.55,88.28,154.45,91.74Zm82.63-8.35c9.35,9.23-4.66,15.64-14.79,13.32C230.31,95.78,238.26,89.07,237.08,83.39Zm18.7-30.17c5.66,8.71,4.46,24.07-7.43,18.47C254.1,70.85,257.66,61.07,255.78,53.22ZM159.94,134c-7.1,11.06-16.27-1.31-16.11-11.7C146.41,129.91,154.62,136.3,159.94,134Z"/><path class="cls-11" d="M8.81,57.36C-4,36.17.22,13.39,6.83,5.52-1.51,12.89-5.85,18.73-7.67,31c-7.68-6.68-12.53-8.7-21.75-10.55,14.2,8.79,19.77,19.78,24.17,34.72a35,35,0,0,0-18.24-16c6.3,6.06,3.95,11.65,7.86,21.69,2.48,6.36,6.55,10.37,10.45,12.32a11.3,11.3,0,0,1-10-4.06C-7.52,92.7,18.36,83.14,31,94.49c-10.85-5.24-27.54.24-27.54,15.56a17.17,17.17,0,0,0,16.81,17c8.52,0,13.59-5.78,13.59-11.29,0-4.94-2.53-7.38-5.06-8.31A5.23,5.23,0,0,1,24.66,116a6.41,6.41,0,0,1-6.3-6.48c0-6.26,5.79-8.84,10.77-8.84,6.68,0,13.09,2.9,15.12,8.47C47.14,85.55,21.43,78.23,8.81,57.36ZM123.05,14.52c-16.14,5.91-34.74-1.74-51.41,7.69C89.52,16,110.29,19,121.78,38c-4.56-4.56-13.31-6.15-20-6.15,15.6,8.72,13.79,31.7-.48,36.16,0,0,4.59-3.25,4.59-11.51,0-11.09-9.77-20.35-28-20.35-12.37,0-22.94,5.25-27.5,13.93C55.27,44.3,63.61,40.23,73,40.23c13.31,0,18.56,9.78,18.67,17.45a18,18,0,0,1-9.45,15.94c5.71-6.32,1.21-14.94-6.81-14.94-11.65,0-16.48,14.12-14.28,25.7C63.77,74.55,69,69.43,78.67,67.69c-7,5.61-9.65,11.36-8.57,20.87,6.17-13.63,18.46-6.81,24.17-20.43,1.37,7.55.12,19-10.8,24.28-12.22,5.94-22.38,3.18-32,14.38-2.66-22.61-17.29-27.67-31.2-42.62C2.24,44.83,3.24,18,11.88,3.76c-2.11,14.29.51,27.42,9.23,38.66C16,25.3,16.89,7.3,25.29-6.57c-1.2,9.25-1,14.26,2,22.63.88-18,8.54-30.68,22.85-41.52-5.72,9.64-8.59,22-7,31.85,6.33-25.86,24.07-36.95,36.74-40.64A39.32,39.32,0,0,0,71.64-16C81-35.57,99.4-38.32,109.43-44.35c7.21-4.35,4.21-12.35-.16-12.35-2.38,0-3.75,1.38-5.13,4,1-5.25,4.38-7.87,8-7.87,5.31,0,9.33,5.25,9.33,11.71,0,17.26-22.93,29.47-48.95,44.27C50.11,8.15,40,17.68,36.71,35.39c-3.36,18,5.93,35.15,5.93,35.15s-8.56-29.6,4.63-47.86C59.27,6.05,77.6-1.24,94.52-11.2c18.7-11,35.87-22.62,30.72-41.5,9.46,9.45,12.72,24.28,5.28,33.39C121-7.6,102-5.07,94.49,2.44c13.15-6.64,25.22-4.11,34.71-7.91,9.32-3.73,9.22-14.28,9.22-14.28C142.27-6.45,138.42,8.9,123.05,14.52ZM14.64,91.74C7.22,91.52-.91,96.55-.59,101.88-7.86,92.23,5.74,88.28,14.64,91.74Zm82.63-8.35c9.35,9.23-4.66,15.64-14.79,13.32C90.5,95.78,98.45,89.07,97.27,83.39ZM116,53.22c5.66,8.71,4.46,24.07-7.43,18.47C114.29,70.85,117.85,61.07,116,53.22ZM20.13,134C13,145,3.86,132.65,4,122.26,6.6,129.91,14.81,136.3,20.13,134Z"/></pattern><clipPath id="clip-path"><rect class="cls-1" x="63.21" y="139.16" width="43.13" height="27.48" rx="12"/></clipPath><pattern id="Plume1" data-name="Plume1" width="139.01" height="137.44" patternUnits="userSpaceOnUse" viewBox="0 0 139.01 137.44"><rect class="cls-1" width="139.01" height="137.44"/><path class="cls-2" d="M138.93,136.2c-6.61,7.87-10.85,30.65,2,51.84,12.62,20.87,38.33,28.2,35.44,51.75-2-5.57-8.44-8.47-15.13-8.47-5,0-10.76,2.59-10.76,8.84a6.4,6.4,0,0,0,6.3,6.48,5.23,5.23,0,0,0,4.14-8.51c2.53.93,5,3.38,5,8.31,0,5.51-5.06,11.29-13.58,11.29a17.17,17.17,0,0,1-16.81-17c0-15.32,16.69-20.8,27.54-15.56-12.64-11.35-38.52-1.78-46.16-25.41a11.3,11.3,0,0,0,10,4.06c-3.9-1.95-8-5.95-10.45-12.32-3.91-10-1.57-15.62-7.86-21.69a35,35,0,0,1,18.24,16c-4.4-14.94-10-25.92-24.17-34.71,9.22,1.84,14.07,3.86,21.75,10.54C126.25,149.41,130.59,143.57,138.93,136.2Z"/><path class="cls-3" d="M183.53,237.48c-2.66-22.62-17.29-27.68-31.2-42.63-18-19.33-17-46.14-8.35-60.41-2.11,14.3.51,27.42,9.23,38.67-5.09-17.12-4.22-35.12,4.17-49-1.19,9.25-1,14.25,2,22.62.88-18,8.54-30.68,22.85-41.52-5.72,9.64-8.59,22-7,31.86,6.33-25.87,24.07-37,36.74-40.65a39.37,39.37,0,0,0-8.18,18.24c9.38-19.56,27.76-22.31,37.79-28.34C248.74,82,245.74,74,241.37,74c-2.38,0-3.75,1.37-5.13,4,1-5.25,4.38-7.88,8-7.88,5.31,0,9.33,5.25,9.33,11.72,0,17.26-22.93,29.47-48.95,44.26-22.41,12.74-32.5,22.27-35.81,40-3.36,18,5.93,35.15,5.93,35.15s-8.56-29.6,4.63-47.87c12-16.62,30.33-23.92,47.25-33.87,18.69-11,35.87-22.63,30.72-41.51,9.45,9.45,12.72,24.28,5.28,33.39-9.57,11.72-28.53,14.24-36,21.75,13.15-6.63,25.22-4.11,34.71-7.91,9.32-3.72,9.22-14.28,9.22-14.28,3.85,13.31,0,28.65-15.38,34.28-16.13,5.9-34.73-1.75-51.4,7.68,17.88-6.2,38.65-3.18,50.14,15.82-4.56-4.56-13.31-6.15-20-6.15,15.6,8.72,13.79,31.71-.48,36.16,0,0,4.59-3.25,4.59-11.51,0-11.09-9.77-20.35-28-20.35-12.38,0-22.94,5.25-27.5,13.93,4.94-5.8,13.28-9.88,22.63-9.88,13.31,0,18.56,9.78,18.67,17.45a18,18,0,0,1-9.45,15.94c5.71-6.31,1.21-14.94-6.81-14.94-11.65,0-16.48,14.13-14.28,25.71,2.68-9.83,7.93-15,17.58-16.7-7,5.62-9.65,11.37-8.57,20.87,6.17-13.63,18.45-6.81,24.17-20.43,1.37,7.55.12,19-10.8,24.28C203.35,229,193.19,226.27,183.53,237.48Z"/><path class="cls-4" d="M226.37,198.81c1.37,7.55.12,19-10.8,24.28-12.22,5.94-22.38,3.18-32,14.39,7.94-17.55-3.21-27.88,1.36-42.69,4.49-14.58,18.68-17.58,26.36-14.5,9.78,3.92,11.16,17.88,3,24,5.71-6.31,1.21-14.94-6.81-14.94-11.65,0-16.48,14.13-14.28,25.71,2.68-9.83,7.93-15,17.58-16.7-7,5.62-9.65,11.37-8.57,20.87C208.37,205.61,220.65,212.43,226.37,198.81Zm-43.94-18c4.56-8.68,15.12-13.93,27.5-13.93,18.25,0,28,9.26,28,20.35,0,8.26-4.59,11.51-4.59,11.51,14.27-4.45,16.08-27.44.48-36.16,6.73,0,15.48,1.59,20,6.15C234.72,146.26,186.08,152.48,182.43,180.79Zm88.09-69.86c2.31,17.76-7.31,25.1-29.79,27-28.54,2.42-37,14.95-37,14.95,16.67-9.43,35.27-1.78,51.4-7.68C270.52,139.58,274.37,124.24,270.52,110.93Zm-43.93,22.19c7.5-7.51,26.46-10,36-21.75,7.44-9.11,4.17-23.94-5.28-33.39,6.41,9,7.72,20.67.55,29.1C248,118.7,235.16,119.4,226.59,133.12Zm27-51.29c0-6.47-4-11.72-9.33-11.72,8.18,2.21,8.8,16.16-4,27.07-11.27,9.56-28.22,18.11-44.66,28.43S164,149,164,170.27c0,17.27,10.79,31,10.79,31s-9.29-17.19-5.93-35.15c3.31-17.72,13.4-27.25,35.81-40C230.64,111.3,253.57,99.09,253.57,81.83ZM140.91,188c-12.83-21.19-8.59-44-2-51.84-8.3,8.3-14.44,27.66-7.83,45.83,5.23,14.35,16.62,24.57,30.89,35.46,8.67,6.61,13.63,14.25,14.36,22.3C179.24,216.24,153.53,208.91,140.91,188Zm20.31,43.28a20.83,20.83,0,0,1,8,1.53c-6.89-7.94-25.9-5.13-25.9,7.69a11.29,11.29,0,0,0,11.37,11.52c8.85,0,11.83-9.39,6.22-13.93a5.23,5.23,0,0,1-4.14,8.51,6.4,6.4,0,0,1-6.3-6.48C150.46,233.91,156.25,231.32,161.22,231.32Z"/><path class="cls-5" d="M-.08,136.2c-6.61,7.87-10.85,30.65,2,51.84,12.62,20.87,38.33,28.2,35.44,51.75-2-5.57-8.44-8.47-15.13-8.47-5,0-10.76,2.59-10.76,8.84a6.4,6.4,0,0,0,6.3,6.48,5.23,5.23,0,0,0,4.14-8.51c2.52.93,5.05,3.38,5.05,8.31,0,5.51-5.06,11.29-13.59,11.29a17.17,17.17,0,0,1-16.8-17c0-15.32,16.69-20.8,27.54-15.56-12.64-11.35-38.52-1.78-46.16-25.41a11.3,11.3,0,0,0,10,4.06c-3.9-1.95-8-5.95-10.45-12.32-3.91-10-1.57-15.62-7.86-21.69a35,35,0,0,1,18.24,16c-4.4-14.94-10-25.92-24.17-34.71,9.22,1.84,14.07,3.86,21.75,10.54C-12.76,149.41-8.42,143.57-.08,136.2Z"/><path class="cls-6" d="M44.52,237.48c-2.67-22.62-17.29-27.68-31.2-42.63-18-19.33-17-46.14-8.35-60.41-2.12,14.3.51,27.42,9.23,38.67C9.1,156,10,138,18.37,124.12c-1.19,9.25-1,14.25,2,22.62.88-18,8.54-30.68,22.85-41.52-5.72,9.64-8.6,22-7,31.86,6.33-25.87,24.07-37,36.74-40.65a39.37,39.37,0,0,0-8.18,18.24c9.37-19.56,27.76-22.31,37.78-28.34C109.73,82,106.73,74,102.35,74c-2.37,0-3.75,1.37-5.12,4,1-5.25,4.37-7.88,8-7.88,5.31,0,9.33,5.25,9.33,11.72,0,17.26-22.93,29.47-48.95,44.26-22.41,12.74-32.51,22.27-35.81,40-3.36,18,5.93,35.15,5.93,35.15s-8.56-29.6,4.62-47.87c12-16.62,30.34-23.92,47.25-33.87,18.7-11,35.88-22.63,30.73-41.51,9.45,9.45,12.72,24.28,5.27,33.39-9.56,11.72-28.52,14.24-36,21.75,13.15-6.63,25.22-4.11,34.71-7.91,9.31-3.72,9.22-14.28,9.22-14.28,3.84,13.31,0,28.65-15.38,34.28-16.13,5.9-34.73-1.75-51.4,7.68,17.88-6.2,38.65-3.18,50.14,15.82-4.56-4.56-13.31-6.15-20-6.15,15.6,8.72,13.79,31.71-.49,36.16,0,0,4.6-3.25,4.6-11.51,0-11.09-9.77-20.35-28-20.35-12.38,0-22.94,5.25-27.5,13.93,4.93-5.8,13.28-9.88,22.63-9.88,13.3,0,18.56,9.78,18.67,17.45a18,18,0,0,1-9.45,15.94c5.71-6.31,1.21-14.94-6.81-14.94-11.65,0-16.48,14.13-14.28,25.71,2.67-9.83,7.92-15,17.58-16.7-7,5.62-9.66,11.37-8.57,20.87,6.16-13.63,18.45-6.81,24.17-20.43,1.37,7.55.12,19-10.8,24.28C64.34,229,54.18,226.27,44.52,237.48Z"/><path class="cls-4" d="M87.36,198.81c1.37,7.55.12,19-10.8,24.28-12.22,5.94-22.38,3.18-32,14.39,7.94-17.55-3.21-27.88,1.36-42.69,4.49-14.58,18.68-17.58,26.36-14.5,9.78,3.92,11.16,17.88,3,24,5.71-6.31,1.21-14.94-6.81-14.94-11.65,0-16.48,14.13-14.28,25.71,2.67-9.83,7.92-15,17.58-16.7-7,5.62-9.66,11.37-8.57,20.87C69.35,205.61,81.64,212.43,87.36,198.81Zm-43.94-18c4.56-8.68,15.12-13.93,27.5-13.93,18.25,0,28,9.26,28,20.35,0,8.26-4.6,11.51-4.6,11.51,14.28-4.45,16.09-27.44.49-36.16,6.73,0,15.48,1.59,20,6.15C95.71,146.26,47.07,152.48,43.42,180.79Zm88.09-69.86c2.31,17.76-7.31,25.1-29.79,27-28.55,2.42-37,14.95-37,14.95,16.67-9.43,35.27-1.78,51.4-7.68C131.5,139.58,135.35,124.24,131.51,110.93ZM87.58,133.12c7.5-7.51,26.46-10,36-21.75,7.45-9.11,4.18-23.94-5.27-33.39,6.41,9,7.72,20.67.55,29.1C109,118.7,96.15,119.4,87.58,133.12Zm27-51.29c0-6.47-4-11.72-9.33-11.72,8.18,2.21,8.8,16.16-4,27.07C89.92,106.74,73,115.29,56.53,125.61S24.94,149,24.94,170.27c0,17.27,10.79,31,10.79,31S26.44,184,29.8,166.08c3.3-17.72,13.4-27.25,35.81-40C91.63,111.3,114.56,99.09,114.56,81.83ZM1.9,188c-12.83-21.19-8.59-44-2-51.84-8.3,8.3-14.44,27.66-7.83,45.83C-2.68,196.38,8.71,206.6,23,217.49c8.67,6.61,13.62,14.25,14.36,22.3C40.23,216.24,14.52,208.91,1.9,188Zm20.31,43.28a20.74,20.74,0,0,1,8,1.53c-6.88-7.94-25.89-5.13-25.89,7.69a11.29,11.29,0,0,0,11.37,11.52c8.85,0,11.83-9.39,6.22-13.93a5.23,5.23,0,0,1-4.14,8.51,6.4,6.4,0,0,1-6.3-6.48C11.45,233.91,17.24,231.32,22.21,231.32Z"/><path class="cls-7" d="M138.93-1.24c-6.61,7.87-10.85,30.65,2,51.84,12.62,20.87,38.33,28.2,35.44,51.75-2-5.57-8.44-8.47-15.13-8.47-5,0-10.76,2.59-10.76,8.84a6.4,6.4,0,0,0,6.3,6.48,5.23,5.23,0,0,0,4.14-8.51c2.53.93,5,3.38,5,8.31,0,5.51-5.06,11.29-13.58,11.29a17.17,17.17,0,0,1-16.81-17c0-15.32,16.69-20.8,27.54-15.56C150.46,76.38,124.58,86,116.94,62.32a11.3,11.3,0,0,0,10,4.06c-3.9-1.95-8-5.95-10.45-12.32-3.91-10-1.57-15.62-7.86-21.69a35,35,0,0,1,18.24,16c-4.4-14.94-10-25.93-24.17-34.71,9.22,1.84,14.07,3.86,21.75,10.54C126.25,12,130.59,6.13,138.93-1.24Z"/><path class="cls-8" d="M183.53,100c-2.66-22.61-17.29-27.67-31.2-42.62-18-19.33-17-46.14-8.35-60.41-2.11,14.3.51,27.42,9.23,38.67-5.09-17.12-4.22-35.12,4.17-49-1.19,9.25-1,14.25,2,22.62.88-18,8.54-30.68,22.85-41.52-5.72,9.64-8.59,22-7,31.86,6.33-25.87,24.07-37,36.74-40.65a39.37,39.37,0,0,0-8.18,18.24c9.38-19.56,27.76-22.31,37.79-28.34,7.21-4.34,4.21-12.34-.16-12.34-2.38,0-3.75,1.37-5.13,4,1-5.25,4.38-7.88,8-7.88,5.31,0,9.33,5.25,9.33,11.72,0,17.26-22.93,29.47-48.95,44.26-22.41,12.74-32.5,22.27-35.81,40-3.36,18,5.93,35.15,5.93,35.15s-8.56-29.6,4.63-47.87C191.37-.7,209.7-8,226.62-17.95c18.69-11,35.87-22.63,30.72-41.51,9.45,9.45,12.72,24.28,5.28,33.39-9.57,11.72-28.53,14.24-36,21.75,13.15-6.63,25.22-4.11,34.71-7.91,9.32-3.72,9.22-14.28,9.22-14.28,3.85,13.31,0,28.65-15.38,34.28C239,13.67,220.41,6,203.74,15.45c17.88-6.2,38.65-3.18,50.14,15.82-4.56-4.56-13.31-6.15-20-6.15,15.6,8.72,13.79,31.7-.48,36.16,0,0,4.59-3.25,4.59-11.51,0-11.09-9.77-20.35-28-20.35-12.38,0-22.94,5.25-27.5,13.93,4.94-5.8,13.28-9.88,22.63-9.88,13.31,0,18.56,9.78,18.67,17.45a18,18,0,0,1-9.45,15.94c5.71-6.31,1.21-14.94-6.81-14.94-11.65,0-16.48,14.13-14.28,25.71,2.68-9.83,7.93-15,17.58-16.7-7,5.62-9.65,11.37-8.57,20.87,6.17-13.63,18.45-6.81,24.17-20.43,1.37,7.55.12,19-10.8,24.28C203.35,91.59,193.19,88.83,183.53,100Z"/><path class="cls-4" d="M131.5,95.13c-.31-5.33,7.82-10.37,15.23-10.14C137.84,81.52,124.24,85.47,131.5,95.13Z"/><path class="cls-4" d="M226.37,61.37c1.37,7.55.12,19-10.8,24.28-12.22,5.94-22.38,3.18-32,14.38,7.94-17.54-3.21-27.87,1.36-42.68,4.49-14.58,18.68-17.58,26.36-14.5,9.78,3.92,11.16,17.88,3,24,5.71-6.31,1.21-14.94-6.81-14.94-11.65,0-16.48,14.13-14.28,25.71,2.68-9.83,7.93-15,17.58-16.7-7,5.62-9.65,11.37-8.57,20.87C208.37,68.17,220.65,75,226.37,61.37Zm-43.94-18c4.56-8.68,15.12-13.93,27.5-13.93,18.25,0,28,9.26,28,20.35,0,8.26-4.59,11.51-4.59,11.51,14.27-4.46,16.08-27.44.48-36.16,6.73,0,15.48,1.59,20,6.15C234.72,8.81,186.08,15,182.43,43.35Zm88.09-69.86c2.31,17.76-7.31,25.1-29.79,27-28.54,2.42-37,15-37,15C220.41,6,239,13.67,255.14,7.77,270.52,2.14,274.37-13.2,270.52-26.51ZM226.59-4.32c7.5-7.51,26.46-10,36-21.75,7.44-9.11,4.17-23.94-5.28-33.39,6.41,9,7.72,20.67.55,29.1C248-18.74,235.16-18,226.59-4.32Zm27-51.29c0-6.47-4-11.72-9.33-11.72,8.18,2.21,8.8,16.16-4,27.07C228.93-30.7,212-22.15,195.54-11.83S164,11.55,164,32.83c0,17.27,10.79,31,10.79,31s-9.29-17.19-5.93-35.15c3.31-17.72,13.4-27.25,35.81-40C230.64-26.14,253.57-38.35,253.57-55.61ZM140.91,50.6c-12.83-21.19-8.59-44-2-51.84-8.3,8.3-14.44,27.66-7.83,45.83,5.23,14.35,16.62,24.57,30.89,35.46,8.67,6.61,13.63,14.25,14.36,22.3C179.24,78.8,153.53,71.47,140.91,50.6Zm20.31,43.28a20.83,20.83,0,0,1,8,1.53c-6.89-7.94-25.9-5.13-25.9,7.69a11.29,11.29,0,0,0,11.37,11.52c8.85,0,11.83-9.39,6.22-13.93a5.23,5.23,0,0,1-4.14,8.51,6.4,6.4,0,0,1-6.3-6.48C150.46,96.47,156.25,93.88,161.22,93.88Z"/><path class="cls-4" d="M152.22,127.2c-5.31,2.34-13.52-4-16.1-11.7C136,125.89,145.13,138.27,152.22,127.2Z"/><path class="cls-9" d="M-.08-1.24c-6.61,7.87-10.85,30.65,2,51.84,12.62,20.87,38.33,28.2,35.44,51.75-2-5.57-8.44-8.47-15.13-8.47-5,0-10.76,2.59-10.76,8.84a6.4,6.4,0,0,0,6.3,6.48,5.23,5.23,0,0,0,4.14-8.51c2.52.93,5.05,3.38,5.05,8.31,0,5.51-5.06,11.29-13.59,11.29a17.17,17.17,0,0,1-16.8-17c0-15.32,16.69-20.8,27.54-15.56C11.45,76.38-14.43,86-22.07,62.32a11.3,11.3,0,0,0,10,4.06c-3.9-1.95-8-5.95-10.45-12.32-3.91-10-1.57-15.62-7.86-21.69a35,35,0,0,1,18.24,16c-4.4-14.94-10-25.93-24.17-34.71,9.22,1.84,14.07,3.86,21.75,10.54C-12.76,12-8.42,6.13-.08-1.24Z"/><path class="cls-10" d="M44.52,100c-2.67-22.61-17.29-27.67-31.2-42.62C-4.68,38.08-3.67,11.27,5-3c-2.12,14.3.51,27.42,9.23,38.67C9.1,18.55,10,.55,18.37-13.32c-1.19,9.25-1,14.25,2,22.62.88-18,8.54-30.68,22.85-41.52-5.72,9.64-8.6,22-7,31.86C42.5-26.23,60.24-37.32,72.91-41a39.37,39.37,0,0,0-8.18,18.24c9.37-19.56,27.76-22.31,37.78-28.34,7.22-4.34,4.22-12.34-.16-12.34-2.37,0-3.75,1.37-5.12,4,1-5.25,4.37-7.88,8-7.88,5.31,0,9.33,5.25,9.33,11.72,0,17.26-22.93,29.47-48.95,44.26C43.2,1.39,33.1,10.92,29.8,28.64c-3.36,18,5.93,35.15,5.93,35.15s-8.56-29.6,4.62-47.87C52.35-.7,70.69-8,87.6-17.95c18.7-11,35.88-22.63,30.73-41.51,9.45,9.45,12.72,24.28,5.27,33.39C114-14.35,95.08-11.83,87.58-4.32c13.15-6.63,25.22-4.11,34.71-7.91,9.31-3.72,9.22-14.28,9.22-14.28,3.84,13.31,0,28.65-15.38,34.28C100,13.67,81.4,6,64.73,15.45c17.88-6.2,38.65-3.18,50.14,15.82-4.56-4.56-13.31-6.15-20-6.15,15.6,8.72,13.79,31.7-.49,36.16,0,0,4.6-3.25,4.6-11.51,0-11.09-9.77-20.35-28-20.35-12.38,0-22.94,5.25-27.5,13.93,4.93-5.8,13.28-9.88,22.63-9.88,13.3,0,18.56,9.78,18.67,17.45a18,18,0,0,1-9.45,15.94c5.71-6.31,1.21-14.94-6.81-14.94C56.81,51.92,52,66.05,54.18,77.63c2.67-9.83,7.92-15,17.58-16.7-7,5.62-9.66,11.37-8.57,20.87C69.35,68.17,81.64,75,87.36,61.37c1.37,7.55.12,19-10.8,24.28C64.34,91.59,54.18,88.83,44.52,100Z"/><path class="cls-4" d="M-7.51,95.13C-7.82,89.8.31,84.76,7.72,85-1.17,81.52-14.78,85.47-7.51,95.13Z"/><path class="cls-4" d="M90.36,76.63C91.54,82.31,83.58,89,75.57,90,85.69,92.27,99.71,85.87,90.36,76.63Z"/><path class="cls-4" d="M87.36,61.37c1.37,7.55.12,19-10.8,24.28-12.22,5.94-22.38,3.18-32,14.38,7.94-17.54-3.21-27.87,1.36-42.68,4.49-14.58,18.68-17.58,26.36-14.5,9.78,3.92,11.16,17.88,3,24,5.71-6.31,1.21-14.94-6.81-14.94C56.81,51.92,52,66.05,54.18,77.63c2.67-9.83,7.92-15,17.58-16.7-7,5.62-9.66,11.37-8.57,20.87C69.35,68.17,81.64,75,87.36,61.37Zm-43.94-18C48,34.67,58.54,29.42,70.92,29.42c18.25,0,28,9.26,28,20.35,0,8.26-4.6,11.51-4.6,11.51,14.28-4.46,16.09-27.44.49-36.16,6.73,0,15.48,1.59,20,6.15C95.71,8.81,47.07,15,43.42,43.35Zm88.09-69.86c2.31,17.76-7.31,25.1-29.79,27-28.55,2.42-37,15-37,15C81.4,6,100,13.67,116.13,7.77,131.5,2.14,135.35-13.2,131.51-26.51ZM87.58-4.32c7.5-7.51,26.46-10,36-21.75,7.45-9.11,4.18-23.94-5.27-33.39,6.41,9,7.72,20.67.55,29.1C109-18.74,96.15-18,87.58-4.32Zm27-51.29c0-6.47-4-11.72-9.33-11.72,8.18,2.21,8.8,16.16-4,27.07C89.92-30.7,73-22.15,56.53-11.83S24.94,11.55,24.94,32.83c0,17.27,10.79,31,10.79,31S26.44,46.6,29.8,28.64c3.3-17.72,13.4-27.25,35.81-40C91.63-26.14,114.56-38.35,114.56-55.61ZM1.9,50.6c-12.83-21.19-8.59-44-2-51.84-8.3,8.3-14.44,27.66-7.83,45.83C-2.68,58.94,8.71,69.16,23,80.05c8.67,6.61,13.62,14.25,14.36,22.3C40.23,78.8,14.52,71.47,1.9,50.6ZM22.21,93.88a20.74,20.74,0,0,1,8,1.53C23.31,87.47,4.3,90.28,4.3,103.1a11.29,11.29,0,0,0,11.37,11.52c8.85,0,11.83-9.39,6.22-13.93a5.23,5.23,0,0,1-4.14,8.51,6.4,6.4,0,0,1-6.3-6.48C11.45,96.47,17.24,93.88,22.21,93.88Z"/><path class="cls-4" d="M101.63,64.93c5.74-.84,9.31-10.62,7.42-18.47C114.71,55.17,113.52,70.53,101.63,64.93Z"/><path class="cls-4" d="M13.21,127.2c-5.31,2.34-13.52-4-16.1-11.7C-3,125.89,6.12,138.27,13.21,127.2Z"/></pattern><clipPath id="clip-path-2"><rect class="cls-1" x="249.01" y="98.69" width="121.74" height="132.84"/></clipPath></defs><g class="cls-12"><g id="Layer_2" data-name="Layer 2"><g id="Layer_1-2" data-name="Layer 1"><path class="cls-13" d="M142.7,193.51s4,3.33,5.3,3.63,5,.74,6.17.82,1-.67,1-.67a25.05,25.05,0,0,1-4.15-1.52,5.61,5.61,0,0,1-1.25-1.72s3.64-.7,5.26-.82,7.39,1.39,7.89,1.44,1.57-.37,1.19-.7-4.56-2.52-5.25-2.79a9,9,0,0,1-1.86-1.3s-1.38-1.21-2-1.23-9.77,1.15-10.71,1.42S142,192.86,142.7,193.51Z"/><path class="cls-13" d="M83.44,242.05s1.21,8.49,2.27,11.41c1.14,3.15,18.73,40.82,18.73,40.82s4.73.59,3.77-2.31-5.38-29.26-7.09-33.79c-3.52-9.36-9-14.08-9-14.08S84.23,239.77,83.44,242.05Z"/><path class="cls-13" d="M63.69,244.63l16.23-44S69,180.68,62.35,191.48l-2.33,7-6,45.1C55.88,245.66,60.78,246.5,63.69,244.63Z"/><path class="cls-13" d="M55.79,239a7.94,7.94,0,0,0-1.1,8.27c1.23,3.12,14.23,28.56,14.23,28.56s5.32,1,4.36-1.92-3.44-21.84-5.42-26.27c-2.22-5-7.74-10.26-7.74-10.26S56.58,236.72,55.79,239Z"/><path class="cls-13" d="M93.74,201.88a42.25,42.25,0,0,0-1.2-6.68c-2.09-7.49-7.64-15.56-7.64-15.56l-13.35-1.4s-7.68,4.46-11.12,21c6-3,10.49-4.72,13.78,2.09,2.35,4.85,11.08,50.23,11.08,50.23,2.7,1.83,10.39,6.61,10-3.16l-.47-29S94,204.43,93.74,201.88Z"/><path class="cls-14" d="M75.78,186.06H74.54c-4.94-3.71-11.82-.11-11.82-.11L52.31,241.39c3.72.8,14.72,3.62,18.21,3.44l5.67-32.89c.45-2.68,4.66,32.48,4.66,32.48,6.08-.07,14.53.15,18.4-2l-7.12-53.88S77.15,178.7,75.78,186.06Z"/><polygon class="cls-15" points="64.46 179.64 64.92 183.58 62.72 185.95 90.42 188.55 88.02 184.77 88.86 182.75 64.46 179.64"/><path class="cls-16" d="M86.56,144l-14.3-1.49c-3.43-.05-2,11.19-5.18,15.16-2.14,2.7.64,24.27,1.22,33,.24,3.65,4.59-1,5.46-1.27L84.1,192s12.35-31.07,13.65-34.77c2.27-6.47,1.29-7.57,1.29-7.57Z"/><path class="cls-17" d="M78.64,143.24c0,3.49,2.92,6.16,6.46,7.13,3.26.89,7.16-1.06,8-4.33,7.42,1.51,7.82,5.12,7.82,5.12s-5.95,43.66-7.37,49.06c-9.53,1.49-26.7-1.31-36.4-6.29,1.56-6.61,10.7-48.56,10.7-48.56C68.22,141.23,73.32,142.66,78.64,143.24Z"/><path class="cls-15" d="M103.56,199.57c-30.19,1.76-54.39-6.27-55.09-18.27s22.4-22.79,52.6-24.55S155.46,163,156.16,175,133.75,197.81,103.56,199.57Zm-.2-3.44c30.16-1.75,49.87-12.23,49.37-20.91s-21.31-16.79-51.46-15S51.39,172.42,51.9,181.1,73.2,197.89,103.36,196.13Z"/><path class="cls-18" d="M103.56,199.57c-30.19,1.76-54.39-6.27-55.09-18.27s22.4-22.79,52.6-24.55S155.46,163,156.16,175,133.75,197.81,103.56,199.57Zm-.2-3.44c30.16-1.75,49.87-12.23,49.37-20.91s-21.31-16.79-51.46-15S51.39,172.42,51.9,181.1,73.2,197.89,103.36,196.13Z"/><path class="cls-13" d="M105.86,152.29l17.75,28.55-1.06,1.88L117.31,184,97,159.62,90,150S101.56,147.48,105.86,152.29Z"/><path class="cls-13" d="M73,144.44c-2.73-1.26-2.63-2.22-6.16-.46L37.92,162.3l.86,2.64,4.13,2.93,34.36-16.56S76.55,146.09,73,144.44Z"/><g class="cls-19"><path class="cls-13" d="M86.56,144l-14.3-1.49c-3.43-.05-2,11.19-5.18,15.16-2.14,2.7.64,24.27,1.22,33,.24,3.65,4.59-1,5.46-1.27L84.1,192s12.35-31.07,13.65-34.77c2.27-6.47,1.29-7.57,1.29-7.57Z"/></g><path class="cls-13" d="M34.83,165.13c1.17.39,6.53,2.74,8.57,2.68s5.17-1.79,4.66-3.71-.46-3.51-6.18-5.42c-6.05-2-22.94-5.76-25.71-6.56a1.75,1.75,0,0,0-1.49.56c-1.55,1.85-2.47,1.48.68,3.58C16.6,157.09,32.45,164.34,34.83,165.13Z"/><path class="cls-13" d="M16.53,153.24c-.33-.3-1.05-7-1.05-7l-1.14-7.46H13.07l-.25,7L8.09,142l-4.9-4.63-1.08,1,4.94,6.21L1,139.75l-.38.61L5.29,146l-5-2.78-.31,1,4.05,3.43-2.57-1.66-.1.81L7,151l7.5,4.55Z"/><path class="cls-20" d="M109.42,116.28c.16-1,3.39-8.54,10.12-8,7.31.52,9.52,12.37,3.18,14.12s-9.3,0-9.3,0S108.83,119.83,109.42,116.28Z"/><path class="cls-20" d="M83.21,108.59c-1,.12-8.23.4-9.62-6.2-1.52-7.17,9.53-13.56,13-8s1.33,8.64,1.33,8.64S86.79,108.17,83.21,108.59Z"/><path class="cls-21" d="M106.79,108.2a8.07,8.07,0,0,1,.07-1,4.24,4.24,0,0,1,.52.12Z"/><path class="cls-22" d="M87.93,151.61l8.78-13L89,133.16,79,146.51C80.15,149.7,84.68,151.18,87.93,151.61Z"/><path class="cls-20" d="M82.53,131.51c-2-3.08-1.2-.3-2.71-3.61-2.33-5.72-3.91-15.63.12-20.91,6.26-8.21,15.56-6.64,18.74-5.35,6.12,2.49-.84,21.74-12.17,34.4C84.14,133.47,84.44,134.47,82.53,131.51Z"/><path class="cls-13" d="M110.54,128.72c-2.84,9-12.55,16.43-20.69,13.81-10.78-3.47-12.45-16.43-9.61-25.44s12.57-12.88,21.74-9.93S113.38,119.71,110.54,128.72Z"/><path class="cls-13" d="M82,123.26c-.75,2.13-1.81,3.33-3.24,2.83a4.72,4.72,0,0,1-2.42-5.3c.75-2.14,1.92-3.65,3.35-3.15S82.78,121.12,82,123.26Z"/><path class="cls-20" d="M80.63,120.66c.21.94,3.12-14.41,20.61-12.11,2.84.37,3.83-4,3.61-4.64s-9.64-4-15.54-1.77C85.1,103.72,77.49,106.79,80.63,120.66Z"/><path class="cls-20" d="M107.17,136.8c-.56,1.34,1.15-7.59-4.68-17.76-1.57-2.75-11.49-12.82-10.25-15,3-5.23,11.25-2.27,11.85-2.06a17.35,17.35,0,0,1,11.53,13.8C117.3,126.24,108.51,133.64,107.17,136.8Z"/><path class="cls-20" d="M88.63,105.69a23.4,23.4,0,0,0,7.27,11.64c5.16,4.18,10.84,8.74,10.84,8.74s-5.15-7-6.34-8.21-7.54-11.41-7.54-11.41S88.8,104.08,88.63,105.69Z"/><path class="cls-23" d="M86.38,123a.82.82,0,0,0,.27,0c.85-.22,1.22-1.07,2.22-.62a1.63,1.63,0,0,1,.89,1.85.45.45,0,0,0,.25.51.47.47,0,0,0,.63-.36,2.52,2.52,0,0,0-1.38-2.88,2.48,2.48,0,0,0-2,0c-.62.26-1.16.63-1.83.21a.66.66,0,0,0,.08.66A1.21,1.21,0,0,0,86.38,123Z"/><path class="cls-23" d="M103.19,130.46a.62.62,0,0,1-.15-.22c-.37-.8.06-1.62-.92-2.13a1.63,1.63,0,0,0-2,.48.43.43,0,0,1-.54.12.47.47,0,0,1-.13-.72,2.54,2.54,0,0,1,3.11-.73,2.43,2.43,0,0,1,1.22,1.56c.19.65.24,1.31,1,1.56a.71.71,0,0,1-.57.36A1.23,1.23,0,0,1,103.19,130.46Z"/><path class="cls-24" d="M90.31,134.27a16.57,16.57,0,0,1-3.57-3.06l-.06,0c-1.26,3.57-.45,6,2,7.48,3.2,1.89,6.83-2.21,6.83-2.21l-.09,0A16.25,16.25,0,0,1,90.31,134.27Z"/><path class="cls-25" d="M90.31,134.27A16.27,16.27,0,0,1,86.58,131l-.07-.05c.32,2,1.69,3.63,3.94,5a5.88,5.88,0,0,0,4.71.76c.21-.17.33-.29.33-.29l-.09,0A16.09,16.09,0,0,1,90.31,134.27Z"/><path class="cls-26" d="M88.53,100.45s-9.29,3.81-9.55,8.08"/><path class="cls-26" d="M113.73,110.46s4.48,9,1.86,12.36"/><path id="nose" class="cls-27" d="M91.69,129.59a1.3,1.3,0,0,1,.37-1.07,9.47,9.47,0,0,1,1.43-.94,5,5,0,0,1-.75,1.44.51.51,0,0,0,0,.43c0,.15.18,1.69,2.66,1.8a2,2,0,0,1-1.72.35,2.46,2.46,0,0,1-1.61-1A2.28,2.28,0,0,1,91.69,129.59Z"/><path class="cls-13" d="M124.07,188.37c-1.13-.56-5.78-2.74-7.2-4.23s-3.55-5.07-3.3-5.42c1.2-1.65,7.48-1.2,12.77,1.85s20.06,10.39,20.33,10.9.83,2.83-.7,2.88S126.36,189.48,124.07,188.37Z"/><path class="cls-28" d="M87.49,206.67c-.19.83.6,15.63,1.22,16.64,1.25,2.07,8.15.21,8.37-1S96,206,95.37,205.6,87.76,205.58,87.49,206.67Z"/><path class="cls-17" d="M101.31,168.34c-2.15-5.63-6.25-12.74-8.34-14.64l7.25-6.45c1.09,1,9.93,8.36,12.93,16.86C110.14,165.26,104.39,167.42,101.31,168.34Z"/><path class="cls-17" d="M60,160.34a78.78,78.78,0,0,0,14.1-11.63l-5.57-5.35A104.52,104.52,0,0,0,54.11,151C55.65,153.16,58.61,158,60,160.34Z"/><path class="cls-29" d="M100.34,166l.17-.06c2.22-.72,4.41-1.56,6.6-2.35,1.58-.57,3.27-1.27,5-1.9a23.27,23.27,0,0,1,1,2.43c-3,1.15-8.76,3.31-11.84,4.23C101,167.58,100.69,166.79,100.34,166Z"/><path class="cls-29" d="M56.92,149.22,54.11,151c1.54,2.19,4.5,7.07,5.87,9.37,1.13-.72,2.21-1.46,3.23-2.19A61,61,0,0,0,56.92,149.22Z"/><path class="cls-28" d="M55.56,207.47c-.36.78-1.67,14.63-.86,16.91s7.39,1.32,7.85.16,2.1-16.2,1.61-16.71S56,206.45,55.56,207.47Z"/><path class="cls-17" d="M62.52,169.57l2.73-12.46-2,1-2.1-11.24s6.48-4.71,11.15-4.39,5.68.73,5.68.73-1.34,3.31-.48,4.49,1.63,3.6,2.46,3.79,2.3,3.25,2.3,3.25L91,150.83l3.3-4.5s4.47.52,5.92.92,5.65,4.76,8.26,8.64-11.77,8.27-11.77,8.27"/><path class="cls-30" d="M107.92,282.9l-9.62,2.64s1.82,7.74,2.12,9.33-.08,4.55.11,6.38c.28,2.68,2.65,10.78,3.36,13.53.31,1.24,10-5.24,10.32-6.5.75-3.34-1.82-7.37-2.35-9.09a23.7,23.7,0,0,0-2.26-5.77C108.61,291.93,107.92,282.9,107.92,282.9Z"/><path class="cls-30" d="M102.09,308.09c.85-.73,1.73-1.42,2.58-2.08,2-1.53,5-1.3,7.42-1.65.69-.1,1.38-.22,2.07-.34a12.24,12.24,0,0,1,.08,4.33c-.16.71-3.66,3.85-5.44,5.77-.65.7-4.74,1.28-4.88.73C103.57,313.48,102.8,310.78,102.09,308.09Z"/><path class="cls-30" d="M64.63,268.17l8.65-.64s.21,7.57.31,9.09,1.11,4.09,1.36,5.79c.37,2.49-1.3,8.81-1.29,11.48A3.27,3.27,0,0,1,69.58,296c-2.61-.8-7.24-3.72-7.35-4.33C62,290,63.52,283.11,64,281.5s.7-2.14,1.22-3.75S64.63,268.17,64.63,268.17Z"/><path class="cls-30" d="M68.28,287.49c1.75.23,3.81,2.72,5.14,3.95l.23.22c0,.87,0,1.64,0,2.22a3.26,3.26,0,0,1-4.08,2.06c-2.6-.8-7.24-3.73-7.35-4.33s.44-2.39.42-4.27A35.28,35.28,0,0,1,68.28,287.49Z"/><rect class="cls-17" x="75.78" y="161.68" width="20.93" height="9.89" rx="4.95"/><rect class="cls-17" x="76.57" y="149.99" width="8.82" height="7.81" rx="3.9"/><path class="cls-29" d="M77.79,148.83a8.57,8.57,0,0,0,6.3,4.4A10.74,10.74,0,0,0,92,151.32a14.35,14.35,0,0,0,3.6-4.86,28.83,28.83,0,0,0-3-.51c-.81,3.27-4.7,5.21-8,4.32a7,7,0,0,1-5.46-7.12l-2.37-.29A13.91,13.91,0,0,0,77.79,148.83Z"/><path id="hand_holding_mobile" data-name="hand holding mobile" class="cls-20" d="M259.62,125.52c-.15,2.66.69,4.53,2.13,7.63a15,15,0,0,0-1,2.94,28.09,28.09,0,0,1,4.55,1c.69-2.36,2.13-2.94,4.11-3.62.67-.22,2.9-1.16,2.41-2.3l-1.78.17a2.45,2.45,0,0,1-1.19-1.36c-1.24-2.5-.79-5.71,0-8.36.6-2.13,3.94-2.63,3.94-2.63-.84-1.38-3.24-2.24-4.36-1.08a2,2,0,0,0-3.17.62,1.91,1.91,0,0,0-3.06,1C260.54,120,259.72,123.79,259.62,125.52Z"/><path class="cls-20" d="M312.3,148l-7.49.8c2,12.2-4.82,14.72-6.4,14.73,4.76,7,18.23,5.94,20.81-.74C311.56,159.57,313.25,151.79,312.3,148Z"/><g id="ears"><path class="cls-20" d="M294.13,130.2c-7.36-3.14-7.35,7.7.61,8.61C295,138,294.13,130.2,294.13,130.2Z"/><path class="cls-20" d="M323.45,127.91c6.86-4.12,7.76,6.84,0,8.83C323.09,135.94,323.45,127.91,323.45,127.91Z"/></g><path id="face" class="cls-20" d="M322.71,118.23c-1.74-9.7-29.19.63-29.19.63,0,10.7-.47,24.29,1.29,29.39,1.41,4.08,8.85,5.41,15.75,4.82C314.93,152.7,319,151,321,149c1.73-1.75,3.15-9,2.87-17.28A109.7,109.7,0,0,0,322.71,118.23Z"/><path id="shadow_on_face" data-name="shadow on face" class="cls-31" d="M310.43,115c-1.39.15-2.92.22-4.49.23a99.65,99.65,0,0,0-12.42,3.64c0,10.7-.47,24.29,1.29,29.39,1.3,3.74,7.64,5.16,14,4.93a7.63,7.63,0,0,1-1-4.33c0-.93.13-1.24-.4-1.87-.34-.41-.94-.32-1.15-1-.31-1,.46-1.87,0-3.15-.82-2.16-3.26-2.8-3.3-3.75,0-.53,3.4-1.85,2.13-6.1-1.48-4.94-.52-12.27-.6-12.8,1.78-1,6.82-2.18,9.32-4.41C312.86,115.5,311.7,115.24,310.43,115Z"/><g id="mouth"><path class="cls-32" d="M314,142.26A1.74,1.74,0,0,0,312,141a5.75,5.75,0,0,0-2.86,1.65,5.67,5.67,0,0,1-3.27,1.26,7.09,7.09,0,0,1-2.45-.16c-.58-.14-2,0-2,1.18,0,1.9,2.78,2.72,4.55,2.77a9,9,0,0,0,6.42-2C313.31,144.88,314.43,143.64,314,142.26Z"/><path class="cls-25" d="M312.56,141a1.12,1.12,0,0,0-.59-.07,6,6,0,0,0-3,1.65,5.26,5.26,0,0,1-3.14,1.24,11.06,11.06,0,0,1-2.53-.18c-.83-.09-1.71,0-1.87.86C303.72,145.61,310.44,145.38,312.56,141Z"/><path class="cls-33" d="M307.68,145.79a3.47,3.47,0,0,0-2.47,1.85,4.78,4.78,0,0,0,.73.06,9.3,9.3,0,0,0,5.35-1.26C310.74,145.37,308.7,145.56,307.68,145.79Z"/></g><path id="nose-2" data-name="nose" class="cls-34" d="M305.21,140.68c-.17,0-.08,0,0,0a2,2,0,0,1-1.67-1.27c-.16-.4.08-.6.37-.87a7,7,0,0,0,1-1,4.18,4.18,0,0,0,.26-4.54,7.49,7.49,0,0,1,0,2.5,5.24,5.24,0,0,1-1.69,2.52,1.37,1.37,0,0,0-.11,2.12,2.15,2.15,0,0,0,1.29.7c.09,0,1.1,0,1-.22a1.17,1.17,0,0,1-.41.06Z"/><g id="eyes"><path class="cls-35" d="M310.66,132.09l-.47.11c.68.8,2.81,1.24,4.51.84a4.36,4.36,0,0,0,3-1.84A7.43,7.43,0,0,1,310.66,132.09Z"/><path class="cls-36" d="M318,126.73c-1.81-1-6.86-1.88-8.53-1.13a2.55,2.55,0,0,0,.16,2.37,17.11,17.11,0,0,1,8.73.09A6.5,6.5,0,0,0,318,126.73Z"/><path class="cls-35" d="M296.63,132.68c1,2,4.34,1.54,5.95.32l.31-.49C301.79,133.1,298.57,134.22,296.63,132.68Z"/><path class="cls-36" d="M295.48,128.06c1.47-1,5.77-2.3,7.2-1.58a2.89,2.89,0,0,1,0,2.34,12.17,12.17,0,0,0-7.29.26A5.91,5.91,0,0,1,295.48,128.06Z"/></g><g id="hair"><path id="hair-2" data-name="hair" class="cls-36" d="M324.77,108.89a5.93,5.93,0,0,1-.51,1.36c-1.33-.46-2-3.81.57-3.87-10.21-5.27-25.38.58-28.79,3.51a7.46,7.46,0,0,1,.86-2.72c-10.89,7.13-4.55,22.51-4.55,22.51.78.2,1.07,2.67,1.23,3.95.38-4,0-9.22.3-12.58,3.73-.36,16.3-2.76,19.91-5.18.58.17-1.89,2.17-4.66,3.23,3.28-.1,9.67-1.74,11.74-3.17a6.5,6.5,0,0,1-3.69,3.18,6,6,0,0,0,4.22-1.57s1,7.23,1.55,11.34a9.8,9.8,0,0,1,1.06,2.49c.18-1.33.66-4,1.69-4.35C325.7,127,329.26,118,324.77,108.89Z"/></g><g id="shoes"><path class="cls-37" d="M288.41,289l-5.22,7.77c3.26-1.22,3,3.86,2.56,8.68a3.49,3.49,0,0,0-3.67,2.59c.58,1.12,11.5.51,11.5-.54-.07-3.69.63-13.78.07-15.07S288.63,289.17,288.41,289Z"/><path class="cls-38" d="M288.22,287.86,284,293.71c1.38,2.18,1.93,6.63,1.76,11.78a10.51,10.51,0,0,1,5.63,0c.91-2.79,1.72-11.05.33-14.21A28.58,28.58,0,0,0,288.22,287.86Z"/><path class="cls-39" d="M288.22,287.86,284,293.71a15.12,15.12,0,0,1,1.65,6.49c2-1.43,5.41-3.71,5.66-9.38A21.41,21.41,0,0,0,288.22,287.86Z"/><path class="cls-37" d="M289.69,297.75a7.07,7.07,0,0,0-4.26,2,2.55,2.55,0,0,0,.15,2.5s-.72,1.41-.05,1.68l.25.08c0-1,3.23-2,4.43-1.64.3-.16.17-1.57-.2-1.66-1.5-.37-4.11,1.14-4.08,1.49,0-.3-.06-.94-.05-1,.27-1.2,2.09-1.75,3.95-1.93C290.09,299.24,290.1,297.77,289.69,297.75Z"/><path class="cls-37" d="M326.29,289s-3.54,7.62-3.1,8.27c1,1.42.74,4.86.44,8.18a3.49,3.49,0,0,0-3.68,2.59c.58,1.12,11.5.51,11.5-.54-.06-3.69.63-13.78.07-15.07S326.5,289.17,326.29,289Z"/><path class="cls-38" d="M326.09,287.86l-4.22,5.85c1.38,2.18,1.92,6.63,1.76,11.78a10.48,10.48,0,0,1,5.62,0c.92-2.79,1.73-11.05.33-14.21A28.58,28.58,0,0,0,326.09,287.86Z"/><path class="cls-39" d="M326.09,287.86l-4.22,5.85a15.42,15.42,0,0,1,1.65,6.49c2-1.43,5.41-3.71,5.65-9.38A21.41,21.41,0,0,0,326.09,287.86Z"/><path class="cls-37" d="M327.57,297.75a7,7,0,0,0-4.26,2,2.52,2.52,0,0,0,.15,2.5s-.73,1.41,0,1.68l.25.08c0-1,3.23-2,4.43-1.64.29-.16.17-1.57-.2-1.66-1.5-.36-4.11,1.14-4.08,1.49,0-.3-.06-.94-.05-1,.27-1.2,2.09-1.75,3.95-1.93C328,299.24,328,297.77,327.57,297.75Z"/></g><path id="jeans" class="cls-40" d="M318.12,229.23c-11.4-8.76-28-12.88-35.35-14.74-19.89,27.62-25.4,52.79,1.54,82.86,4.83-1.36,8-4.44,6.31-9.26-26-22.6-7.85-51.63-2.83-55.81,5.61-1.21,9,2.06,10.62,4.42-6.15,25.44.56,48.71,22.64,58.91,5.21-1,4.79-8.31,4.79-8.31C296.35,275.64,310.42,236.15,318.12,229.23Z"/><g id="sleeves"><path class="cls-41" d="M341,173.47c-5.62-6.49-6.44,6.2-5.48,7.2,6.27,6.47,9.34,14,10.84,28.4a21.38,21.38,0,0,0,8.13-1.33C352.35,190.38,346.55,179.86,341,173.47Z"/><path class="cls-42" d="M340.18,183.44a65.63,65.63,0,0,1,3.72-6.24,42.79,42.79,0,0,0-2.88-3.73c-5.62-6.49-6.44,6.2-5.48,7.2,6.27,6.47,9.34,14,10.84,28.4a14,14,0,0,0,1.83,0C347.61,199.48,344,188.85,340.18,183.44Z"/><path class="cls-41" d="M280.25,162.61c-8.77-2.78-15.95-11-13.3-26.44a31.18,31.18,0,0,0-7.52-.84c-2.54,25.59,10.22,34.25,21.16,36.89C284.7,173.22,283.59,163.66,280.25,162.61Z"/><path class="cls-42" d="M280.59,172.22c4.11,1,3-8.56-.34-9.61-.73-.23-1.44-.51-2.14-.81h0a53.66,53.66,0,0,1-2.71,6.51c-10.14-4.79-16.36-14.8-14.14-32.95h0a16.86,16.86,0,0,0-1.83,0C256.89,160.92,269.65,169.58,280.59,172.22Z"/></g><path id="t-shirt" class="cls-43" d="M345.18,175.33a39.48,39.48,0,0,0-28.24-14.65c-3.85,7-15,4.81-15.71,1.07-8,3.35-19.54.43-22.26-1.51-2,6.55-3.58,14.92-3.58,14.92,3.6,1.54,7.88,2.3,15.63,3,.77,8.67,1.71,22-8.25,36.31,7.11,1.88,22.33,5.62,35.35,14.74,10-9.12,13.8-40.79,12.2-50.2,3.26,1.41,5.29,5.21,6.05,6.45C339.53,182.33,345.18,175.33,345.18,175.33Z"/><path id="hand_holding_mobile-2" data-name="hand holding mobile" class="cls-20" d="M357.4,217.81c-.84-2.53-2.3-4-4.78-6.32a14.41,14.41,0,0,0-.1-3.11,28.29,28.29,0,0,1-4.6.72c.22,2.46-.91,3.52-2.51,4.88-.53.45-2.26,2.14-1.39,3l1.59-.8a2.48,2.48,0,0,1,1.61.83c2.06,1.88,2.82,5,3.09,7.77.22,2.2-2.71,3.89-2.71,3.89,1.29,1,3.84.89,4.46-.59a2,2,0,0,0,2.72-1.75,1.9,1.9,0,0,0,2.47-2.06C358.55,223.26,357.94,219.45,357.4,217.81Z"/><path class="cls-44" d="M285.24,240.26C255,242,230.84,234,230.15,222s22.4-22.79,52.6-24.55,54.39,6.27,55.09,18.27S315.43,238.5,285.24,240.26Zm-.2-3.44c30.16-1.76,49.87-12.23,49.37-20.91s-21.31-16.79-51.46-15-49.88,12.23-49.37,20.91S254.88,238.58,285,236.82Z"/><path class="cls-45" d="M285.24,240.26C255,242,230.84,234,230.15,222s22.4-22.79,52.6-24.55,54.39,6.27,55.09,18.27S315.43,238.5,285.24,240.26Zm-.2-3.44c30.16-1.76,49.87-12.23,49.37-20.91s-21.31-16.79-51.46-15-49.88,12.23-49.37,20.91S254.88,238.58,285,236.82Z"/><g class="cls-46"><path id="hand_holding_mobile-3" data-name="hand holding mobile" class="cls-20" d="M259.62,125.52c-.15,2.66.69,4.53,2.13,7.63a15,15,0,0,0-1,2.94,28.09,28.09,0,0,1,4.55,1c.69-2.36,2.13-2.94,4.11-3.62.67-.22,2.9-1.16,2.41-2.3l-1.78.17a2.45,2.45,0,0,1-1.19-1.36c-1.24-2.5-.79-5.71,0-8.36.6-2.13,3.94-2.63,3.94-2.63-.84-1.38-3.24-2.24-4.36-1.08a2,2,0,0,0-3.17.62,1.91,1.91,0,0,0-3.06,1C260.54,120,259.72,123.79,259.62,125.52Z"/><path class="cls-20" d="M312.3,148l-7.49.8c2,12.2-4.82,14.72-6.4,14.73,4.76,7,18.23,5.94,20.81-.74C311.56,159.57,313.25,151.79,312.3,148Z"/><g id="ears-2" data-name="ears"><path class="cls-20" d="M294.13,130.2c-7.36-3.14-7.35,7.7.61,8.61C295,138,294.13,130.2,294.13,130.2Z"/><path class="cls-20" d="M323.45,127.91c6.86-4.12,7.76,6.84,0,8.83C323.09,135.94,323.45,127.91,323.45,127.91Z"/></g><path id="face-2" data-name="face" class="cls-20" d="M322.71,118.23c-1.74-9.7-29.19.63-29.19.63,0,10.7-.47,24.29,1.29,29.39,1.41,4.08,8.85,5.41,15.75,4.82C314.93,152.7,319,151,321,149c1.73-1.75,3.15-9,2.87-17.28A109.7,109.7,0,0,0,322.71,118.23Z"/><path id="shadow_on_face-2" data-name="shadow on face" class="cls-31" d="M310.43,115c-1.39.15-2.92.22-4.49.23a99.65,99.65,0,0,0-12.42,3.64c0,10.7-.47,24.29,1.29,29.39,1.3,3.74,7.64,5.16,14,4.93a7.63,7.63,0,0,1-1-4.33c0-.93.13-1.24-.4-1.87-.34-.41-.94-.32-1.15-1-.31-1,.46-1.87,0-3.15-.82-2.16-3.26-2.8-3.3-3.75,0-.53,3.4-1.85,2.13-6.1-1.48-4.94-.52-12.27-.6-12.8,1.78-1,6.82-2.18,9.32-4.41C312.86,115.5,311.7,115.24,310.43,115Z"/><g id="mouth-2" data-name="mouth"><path class="cls-32" d="M314,142.26A1.74,1.74,0,0,0,312,141a5.75,5.75,0,0,0-2.86,1.65,5.67,5.67,0,0,1-3.27,1.26,7.09,7.09,0,0,1-2.45-.16c-.58-.14-2,0-2,1.18,0,1.9,2.78,2.72,4.55,2.77a9,9,0,0,0,6.42-2C313.31,144.88,314.43,143.64,314,142.26Z"/><path class="cls-25" d="M312.56,141a1.12,1.12,0,0,0-.59-.07,6,6,0,0,0-3,1.65,5.26,5.26,0,0,1-3.14,1.24,11.06,11.06,0,0,1-2.53-.18c-.83-.09-1.71,0-1.87.86C303.72,145.61,310.44,145.38,312.56,141Z"/><path class="cls-33" d="M307.68,145.79a3.47,3.47,0,0,0-2.47,1.85,4.78,4.78,0,0,0,.73.06,9.3,9.3,0,0,0,5.35-1.26C310.74,145.37,308.7,145.56,307.68,145.79Z"/></g><path id="nose-3" data-name="nose" class="cls-34" d="M305.21,140.68c-.17,0-.08,0,0,0a2,2,0,0,1-1.67-1.27c-.16-.4.08-.6.37-.87a7,7,0,0,0,1-1,4.18,4.18,0,0,0,.26-4.54,7.49,7.49,0,0,1,0,2.5,5.24,5.24,0,0,1-1.69,2.52,1.37,1.37,0,0,0-.11,2.12,2.15,2.15,0,0,0,1.29.7c.09,0,1.1,0,1-.22a1.17,1.17,0,0,1-.41.06Z"/><g id="eyes-2" data-name="eyes"><path class="cls-35" d="M310.66,132.09l-.47.11c.68.8,2.81,1.24,4.51.84a4.36,4.36,0,0,0,3-1.84A7.43,7.43,0,0,1,310.66,132.09Z"/><path class="cls-36" d="M318,126.73c-1.81-1-6.86-1.88-8.53-1.13a2.55,2.55,0,0,0,.16,2.37,17.11,17.11,0,0,1,8.73.09A6.5,6.5,0,0,0,318,126.73Z"/><path class="cls-35" d="M296.63,132.68c1,2,4.34,1.54,5.95.32l.31-.49C301.79,133.1,298.57,134.22,296.63,132.68Z"/><path class="cls-36" d="M295.48,128.06c1.47-1,5.77-2.3,7.2-1.58a2.89,2.89,0,0,1,0,2.34,12.17,12.17,0,0,0-7.29.26A5.91,5.91,0,0,1,295.48,128.06Z"/></g><g id="hair-3" data-name="hair"><path id="hair-4" data-name="hair" class="cls-36" d="M324.77,108.89a5.93,5.93,0,0,1-.51,1.36c-1.33-.46-2-3.81.57-3.87-10.21-5.27-25.38.58-28.79,3.51a7.46,7.46,0,0,1,.86-2.72c-10.89,7.13-4.55,22.51-4.55,22.51.78.2,1.07,2.67,1.23,3.95.38-4,0-9.22.3-12.58,3.73-.36,16.3-2.76,19.91-5.18.58.17-1.89,2.17-4.66,3.23,3.28-.1,9.67-1.74,11.74-3.17a6.5,6.5,0,0,1-3.69,3.18,6,6,0,0,0,4.22-1.57s1,7.23,1.55,11.34a9.8,9.8,0,0,1,1.06,2.49c.18-1.33.66-4,1.69-4.35C325.7,127,329.26,118,324.77,108.89Z"/></g><g id="shoes-2" data-name="shoes"><path class="cls-37" d="M288.41,289l-5.22,7.77c3.26-1.22,3,3.86,2.56,8.68a3.49,3.49,0,0,0-3.67,2.59c.58,1.12,11.5.51,11.5-.54-.07-3.69.63-13.78.07-15.07S288.63,289.17,288.41,289Z"/><path class="cls-38" d="M288.22,287.86,284,293.71c1.38,2.18,1.93,6.63,1.76,11.78a10.51,10.51,0,0,1,5.63,0c.91-2.79,1.72-11.05.33-14.21A28.58,28.58,0,0,0,288.22,287.86Z"/><path class="cls-39" d="M288.22,287.86,284,293.71a15.12,15.12,0,0,1,1.65,6.49c2-1.43,5.41-3.71,5.66-9.38A21.41,21.41,0,0,0,288.22,287.86Z"/><path class="cls-37" d="M289.69,297.75a7.07,7.07,0,0,0-4.26,2,2.55,2.55,0,0,0,.15,2.5s-.72,1.41-.05,1.68l.25.08c0-1,3.23-2,4.43-1.64.3-.16.17-1.57-.2-1.66-1.5-.37-4.11,1.14-4.08,1.49,0-.3-.06-.94-.05-1,.27-1.2,2.09-1.75,3.95-1.93C290.09,299.24,290.1,297.77,289.69,297.75Z"/><path class="cls-37" d="M326.29,289s-3.54,7.62-3.1,8.27c1,1.42.74,4.86.44,8.18a3.49,3.49,0,0,0-3.68,2.59c.58,1.12,11.5.51,11.5-.54-.06-3.69.63-13.78.07-15.07S326.5,289.17,326.29,289Z"/><path class="cls-38" d="M326.09,287.86l-4.22,5.85c1.38,2.18,1.92,6.63,1.76,11.78a10.48,10.48,0,0,1,5.62,0c.92-2.79,1.73-11.05.33-14.21A28.58,28.58,0,0,0,326.09,287.86Z"/><path class="cls-39" d="M326.09,287.86l-4.22,5.85a15.42,15.42,0,0,1,1.65,6.49c2-1.43,5.41-3.71,5.65-9.38A21.41,21.41,0,0,0,326.09,287.86Z"/><path class="cls-37" d="M327.57,297.75a7,7,0,0,0-4.26,2,2.52,2.52,0,0,0,.15,2.5s-.73,1.41,0,1.68l.25.08c0-1,3.23-2,4.43-1.64.29-.16.17-1.57-.2-1.66-1.5-.36-4.11,1.14-4.08,1.49,0-.3-.06-.94-.05-1,.27-1.2,2.09-1.75,3.95-1.93C328,299.24,328,297.77,327.57,297.75Z"/></g><path id="jeans-2" data-name="jeans" class="cls-40" d="M318.12,229.23c-11.4-8.76-28-12.88-35.35-14.74-19.89,27.62-25.4,52.79,1.54,82.86,4.83-1.36,8-4.44,6.31-9.26-26-22.6-7.85-51.63-2.83-55.81,5.61-1.21,9,2.06,10.62,4.42-6.15,25.44.56,48.71,22.64,58.91,5.21-1,4.79-8.31,4.79-8.31C296.35,275.64,310.42,236.15,318.12,229.23Z"/><g id="sleeves-2" data-name="sleeves"><path class="cls-41" d="M341,173.47c-5.62-6.49-6.44,6.2-5.48,7.2,6.27,6.47,9.34,14,10.84,28.4a21.38,21.38,0,0,0,8.13-1.33C352.35,190.38,346.55,179.86,341,173.47Z"/><path class="cls-42" d="M340.18,183.44a65.63,65.63,0,0,1,3.72-6.24,42.79,42.79,0,0,0-2.88-3.73c-5.62-6.49-6.44,6.2-5.48,7.2,6.27,6.47,9.34,14,10.84,28.4a14,14,0,0,0,1.83,0C347.61,199.48,344,188.85,340.18,183.44Z"/><path class="cls-41" d="M280.25,162.61c-8.77-2.78-15.95-11-13.3-26.44a31.18,31.18,0,0,0-7.52-.84c-2.54,25.59,10.22,34.25,21.16,36.89C284.7,173.22,283.59,163.66,280.25,162.61Z"/><path class="cls-42" d="M280.59,172.22c4.11,1,3-8.56-.34-9.61-.73-.23-1.44-.51-2.14-.81h0a53.66,53.66,0,0,1-2.71,6.51c-10.14-4.79-16.36-14.8-14.14-32.95h0a16.86,16.86,0,0,0-1.83,0C256.89,160.92,269.65,169.58,280.59,172.22Z"/></g><path id="t-shirt-2" data-name="t-shirt" class="cls-43" d="M345.18,175.33a39.48,39.48,0,0,0-28.24-14.65c-3.85,7-15,4.81-15.71,1.07-8,3.35-19.54.43-22.26-1.51-2,6.55-3.58,14.92-3.58,14.92,3.6,1.54,7.88,2.3,15.63,3,.77,8.67,1.71,22-8.25,36.31,7.11,1.88,22.33,5.62,35.35,14.74,10-9.12,13.8-40.79,12.2-50.2,3.26,1.41,5.29,5.21,6.05,6.45C339.53,182.33,345.18,175.33,345.18,175.33Z"/><path id="hand_holding_mobile-4" data-name="hand holding mobile" class="cls-20" d="M357.4,217.81c-.84-2.53-2.3-4-4.78-6.32a14.41,14.41,0,0,0-.1-3.11,28.29,28.29,0,0,1-4.6.72c.22,2.46-.91,3.52-2.51,4.88-.53.45-2.26,2.14-1.39,3l1.59-.8a2.48,2.48,0,0,1,1.61.83c2.06,1.88,2.82,5,3.09,7.77.22,2.2-2.71,3.89-2.71,3.89,1.29,1,3.84.89,4.46-.59a2,2,0,0,0,2.72-1.75,1.9,1.9,0,0,0,2.47-2.06C358.55,223.26,357.94,219.45,357.4,217.81Z"/></g><path class="cls-13" d="M235.72,68.32,247.4,108l-3.21,6.56-7.31-1.71-19.51-47S226.59,57.49,235.72,68.32Z"/><path class="cls-13" d="M242.57,101.55c2.29.28,4.27.24,6,11.56l-2.23,36.73-6.19,2-5.65-46.13S238.75,101.08,242.57,101.55Z"/><path class="cls-13" d="M240,149c-.26.36-2.89,7.5-3.28,8.7s-.15,8.42-.22,9.43,2,.29,2.23-.3,1.6-6.76,1.82-7.17,1.88-.48,2.31.64,0,3.83.24,6.22.72,2.61.32,3.1l-.41.49s2.14,1.55,2.76.08a15.85,15.85,0,0,0,.73-2s-.4,1.11.25.89a6.08,6.08,0,0,0,2.07-1.48,3.67,3.67,0,0,0,.47-1.67s-.32,1-.06,1.17,1.95-.51,2-2.6-3.56-12.48-4.55-15.14S241.71,146.63,240,149Z"/><path class="cls-13" d="M162.94,69.25l-11.69,39.69,3.22,6.57,7.3-1.71,19.52-47S172.06,58.42,162.94,69.25Z"/><path class="cls-13" d="M156.09,102.48c-2.29.28-4.28.24-6,11.57l2.23,36.72,6.18,2,5.66-46.13S159.9,102,156.09,102.48Z"/><path class="cls-13" d="M158.64,150c.26.36,2.89,7.5,3.28,8.7s.14,8.42.22,9.43-2,.29-2.23-.3-1.6-6.75-1.82-7.17a1.59,1.59,0,0,0-2.32.64c-.44,1.13,0,3.83-.24,6.22s-.71,2.61-.31,3.1l.4.49s-2.14,1.55-2.75.08a15.34,15.34,0,0,1-.74-2s.4,1.12-.24.89a6.12,6.12,0,0,1-2.08-1.48,3.67,3.67,0,0,1-.47-1.67s.33,1,.06,1.17-2-.51-2-2.59S151,153,152,150.35,156.94,147.57,158.64,150Z"/><path class="cls-47" d="M209.75,54.54c-8.15-1.26-5.56-21.13-5-27.41l-12.14-.3c.15,5.67,2.1,26.45-3.51,27.25-2.69,1.92,3.25,19.07,6.77,26.54C203.89,73.74,213.9,55.18,209.75,54.54Z"/><path class="cls-48" d="M229.72,258.17l.79-129.62c-9.22.79-22.53.87-31.74.9L217.6,258.17C222.6,258.53,225,259.74,229.72,258.17Z"/><path class="cls-48" d="M192.21,260.8a21.38,21.38,0,0,0,4.6-.89l7.47-126c-3,.16-.63-3.45-3.61-3.38-7.5.18-14.92.29-22.39.93-1.75.15-5.59-.6-7.37-.53l13,127.24C186.13,258.78,190,261.16,192.21,260.8Z"/><path class="cls-49" d="M162.69,70l-15,39.46,9.48,2,5.72,2.47L179,75.5S167.42,65.3,162.69,70Z"/><path class="cls-50" d="M208.46,66.46c0-.38,0-.75,0-1.11l-3.25,3.58s-6.16-7.06-6.64-6.55l-6.72,6.48-2.09-2.11c-.1.34.29.23.19.58l1.12,3.73,7.4-7.49,6.91,8Z"/><path class="cls-49" d="M162.72,69.68S178,54.36,194.54,52c7.4-1.05,6.22,1.11,9.34-.09,2.05-.8,27.93,9.88,30.26,20,.74,3.19-1,44.67-3.27,52.61-1.33,4.67-63,.8-63-1.74C167.9,119.7,162.7,72.57,162.72,69.68Z"/><path class="cls-47" d="M187.48,56.89s6.37-3.91,10.92-3.73,11.93,2.92,11.93,2.92-10.75,8.15-12,7.71S186.19,59.56,187.48,56.89Z"/><path class="cls-25" d="M203.07,50.76c-.26-.1-.57-.19-.89-.28a3,3,0,0,0,.1-.55Z"/><path class="cls-49" d="M234.4,65.85l18.22,37.62-7.68,5L233,112.81l-8.93-27.42S222.4,54.64,234.4,65.85Z"/><path class="cls-51" d="M202.77,92.49C190,76.13,183.86,55,181.47,56.09c-4.66,2.09-14.39,8.72-14.39,8.72,4,2.31-.51,40.47-1.15,44s-1.43,41.82,3.2,45.1c3.94,2.79,40,1,36.6,1.08C205.48,151.28,203.29,106.65,202.77,92.49Z"/><path class="cls-51" d="M231.52,99.44a178.74,178.74,0,0,1-2.62-19.11c-.37-8.51,1.62-15.89.28-17.18-2.48-2.39-11.62-6.64-11.62-6.64s-7.39,27-16.57,37.58c-4.32,5-11.57,32.1-11,42.66.2,3.44,8.65,15.16,8.88,18.6,10.61-.66,33.3-2.25,34.12-3.34C235.23,149.1,232.65,104,231.52,99.44Z"/><path class="cls-35" d="M197.84,267.49c1-4.86-.86-4.79-1.21-7-.15-.92,1.69-4.43,1.69-4.43-1.83-1.05-6.87,4.29-7.81,3.6l2.68-9.08c-.77-2.28-8.64-4.29-13.08-1.42-2.71,2,2.79,4.68,4.44,10.9-1.2,4.89-14.67,7.32-19.23,7.48,0,0,4,3.26,5.25,3.71C181,275.22,187.6,270.91,197.84,267.49Z"/><path class="cls-52" d="M198.32,268.24V265c-4.41,3.26-18.7,6.93-18.7,6.93-4.44-4.41-12.32-7-16-3.74-.75,1.26.7,3.06.7,3.06.75,0,12.06,3.65,12.72,3.51A127.92,127.92,0,0,0,198.32,268.24Z"/><path class="cls-52" d="M179.79,269c-.14.15-.73.42-.87.57a13.63,13.63,0,0,0-6.12-3l0-.38C174.31,264,178.54,267.35,179.79,269Z"/><path class="cls-52" d="M184.55,267.48c-.14.15-.74.42-.87.57a13.73,13.73,0,0,0-6.13-3l0-.39C179.06,262.48,183.29,265.87,184.55,267.48Z"/><path class="cls-52" d="M188.52,265.44c-.14.14-.73.42-.86.57a13.73,13.73,0,0,0-6.13-3l0-.39C183,260.45,187.27,263.82,188.52,265.44Z"/><path class="cls-35" d="M216.9,267c-1-4.86.87-4.79,1.21-7,.15-.92-1.69-4.43-1.69-4.43,1.83-1.05,6.87,4.29,7.81,3.6l-2.68-9.08c.77-2.28,8.64-4.29,13.09-1.42,2.7,2-2.8,4.68-4.44,10.9,1.2,4.89,14.67,7.32,19.23,7.48,0,0-4,3.26-5.26,3.71C233.78,274.77,227.14,270.46,216.9,267Z"/><path class="cls-52" d="M216.42,267.79v-3.2c4.41,3.26,18.69,6.93,18.69,6.93,4.44-4.41,12.32-7,16-3.74.76,1.26-.7,3.06-.7,3.06-.75,0-12,3.65-12.71,3.51A127.86,127.86,0,0,1,216.42,267.79Z"/><path class="cls-52" d="M235,268.51c.14.15.73.42.87.57a13.68,13.68,0,0,1,6.13-3v-.38C240.43,263.52,236.2,266.9,235,268.51Z"/><path class="cls-52" d="M230.2,267c.14.15.73.42.87.57a13.68,13.68,0,0,1,6.13-3v-.39C235.68,262,231.45,265.42,230.2,267Z"/><path class="cls-52" d="M226.22,265c.14.14.73.42.87.57a13.68,13.68,0,0,1,6.13-3v-.39C231.7,260,227.47,263.37,226.22,265Z"/><path class="cls-53" d="M201.33,110.53s-33.51-51.85-16.15-57.36,27.64,0,27.64,0,12-1.92-9.75,58.93"/><path class="cls-54" d="M200.79,109.6a2.09,2.09,0,1,0-1.34-2.64A2.08,2.08,0,0,0,200.79,109.6Z"/><path class="cls-55" d="M201.86,110.66a1,1,0,1,0,.64-1.94,1,1,0,1,0-.64,1.94Z"/><path class="cls-56" d="M196.65,121.5l2.93-8.88a4.18,4.18,0,1,1,2.66,5.28,3.46,3.46,0,0,1-.56-.23l-2.91,4.53Z"/><path class="cls-55" d="M202.94,115.78a1.94,1.94,0,1,0-1.24-2.46A1.93,1.93,0,0,0,202.94,115.78Z"/><path class="cls-57" d="M204.22,48.55c-.79-6.49.23-14.66.57-18.29L192.65,30c.12,4.53,1.38,18.71-1,24.62C196.92,54.59,201.48,51.18,204.22,48.55Z"/><g id="ears-3" data-name="ears"><path class="cls-47" d="M217.09,28.29c11.34-5.55,7.33,13.77-.38,13.77C216.85,36.44,217.09,28.29,217.09,28.29Z"/><path class="cls-58" d="M221.26,33.16c0-1.15-.61-3.16-1.62-1.55l.11-.73c.87-1.16,1.73-2.52,2.46-.73a6.21,6.21,0,0,1,.33,2.65c-.19,1.86-1.19,5-3,5.68A11.8,11.8,0,0,0,221.26,33.16Z"/><path class="cls-47" d="M179.56,27.5c-9.57-5.55-6.19,13.77.32,13.77C179.76,35.65,179.56,27.5,179.56,27.5Z"/><path class="cls-58" d="M176.05,32.37c0-1.15.5-3.16,1.36-1.55l-.09-.73c-.73-1.16-1.47-2.52-2.08-.73A7.31,7.31,0,0,0,175,32c.16,1.86,1,5,2.55,5.68A13.12,13.12,0,0,1,176.05,32.37Z"/></g><path id="face-3" data-name="face" class="cls-47" d="M180.38,13.1c4.16-7.83,38-1.26,37.5-.47,0,0-.44,25.87-1.17,37.91,0,1.42-16.83,8.65-19.22,8.65-4.4,0-16.18-6.57-16.9-7.87C180.09,50.53,177.38,18.72,180.38,13.1Z"/><path id="nose-4" data-name="nose" class="cls-59" d="M192.2,36.69c1.58-4.9,1.19-5.56,1.4-8.88,0,0,.8,5.35.4,7.34-.3,1.52-1.07,3.39-.64,4.91.37,1.33,1.45,1.54,2.82,1.77a9.44,9.44,0,0,0,5.27-.25c0,.1-1.17,1.42-4.81,1.35-1.28,0-4.22-.64-4.95-1.91C191,39.91,191.84,37.82,192.2,36.69Z"/><path class="cls-25" d="M202.77,29.25c-.45-3.93,4.34-3.58,6.85-3.15a5.18,5.18,0,0,1,2.1,2.52l-.41,1.19C209.61,30.35,203.11,32.22,202.77,29.25Z"/><path class="cls-60" d="M210.34,27.78a2.55,2.55,0,0,0-.69-1.74,11.88,11.88,0,0,0-3.72,0,2.56,2.56,0,1,0,4.41,1.77Z"/><path class="cls-61" d="M207.78,29.62a1.85,1.85,0,1,0-1.84-1.84A1.84,1.84,0,0,0,207.78,29.62Z"/><path class="cls-25" d="M210.34,28.64a.81.81,0,1,1-.8-.8A.8.8,0,0,1,210.34,28.64Z"/><path class="cls-61" d="M211.17,26.71l.55,1.91c-.62-1.52-2.44-1.95-4.8-1.91-2.69.06-4,1.05-4.2,1.91C202.42,24.54,210,25.27,211.17,26.71Z"/><path class="cls-62" d="M202.47,21.45c3.49-1.37,8.54-.92,9.92,0a3.77,3.77,0,0,1,.41,1.82,36.06,36.06,0,0,0-10.63.71C201.47,22.86,201.37,21.89,202.47,21.45Z"/><path class="cls-25" d="M191.63,29.25c.45-3.93-4.35-3.58-6.86-3.15a5.23,5.23,0,0,0-2.1,2.52l.41,1.19C184.79,30.35,191.29,32.22,191.63,29.25Z"/><path class="cls-60" d="M190.3,27.78a2.51,2.51,0,0,0-.72-1.77,11.82,11.82,0,0,0-3.71,0,2.5,2.5,0,0,0-.69,1.74,2.56,2.56,0,0,0,5.12,0Z"/><path class="cls-61" d="M187.74,25.93a1.85,1.85,0,1,0,1.84,1.85A1.84,1.84,0,0,0,187.74,25.93Z"/><path class="cls-25" d="M188.79,28.64a.81.81,0,1,0,.81-.8A.81.81,0,0,0,188.79,28.64Z"/><path class="cls-61" d="M183.23,26.71l-.56,1.91c.62-1.52,2.46-1.95,4.82-1.91,2.69.06,4,1.05,4.19,1.91C192,24.54,184.36,25.27,183.23,26.71Z"/><path class="cls-62" d="M191.93,21.45c-3.5-1.37-7.88-.83-9.26.06a2.81,2.81,0,0,0-.47,1.68,32.49,32.49,0,0,1,10,.75C192.92,22.86,193,21.89,191.93,21.45Z"/><path id="hair-5" data-name="hair" class="cls-63" d="M176.22,5.42C180.94,2.74,193.38-2.06,212.9,1c0,0,5,2,5,4.37,2.54,1.65,4.45,16,4.14,19.24s-4.14,2.71-4.45,8.24l-1-5.53c-1.25-6.87-1.95-7.8-1.56-15.45-10,1.65-26.91-4-34.63,3.27a115.11,115.11,0,0,0-1.14,17.11c-.57-4.24-2.49-5.72-2.49-5.72.25-1.22.79-12-1-17.94C177,8.49,178.27,6.69,176.22,5.42Z"/><path id="glasses" class="cls-64" d="M216.58,24.13s-13-.29-16.72.63c-.8.2-1.18,1.06-3.19,1s-2.38-.83-3.19-1c-3.71-.92-16.71-.63-16.71-.63a5.79,5.79,0,0,0,.12,2A2.84,2.84,0,0,1,178,27.88c.16.8.52,3.68,1.32,4.26,2.07,1.51,11.52,1.64,12.79.89s2.49-4.58,3.31-5.29a2.73,2.73,0,0,1,2.49,0c.81.71,1.9,4.46,3.3,5.29s10.73.62,12.79-.89c.81-.58,1.17-3.46,1.32-4.26a2.86,2.86,0,0,1,1.13-1.74A5.79,5.79,0,0,0,216.58,24.13Zm-25.27,8.43c-3.35.9-11.32-.23-11.92-1.11-.82-1.21-1.15-5.56-.07-6.29.25-.16,13-.68,14.33.95S192.48,32.25,191.31,32.56ZM214,31.45c-.6.88-8.57,2-11.92,1.11-1.17-.31-3.79-4.71-2.34-6.45S213.78,25,214,25.16C215.11,25.89,214.78,30.24,214,31.45Z"/><path class="cls-24" d="M196.72,46.8a33.41,33.41,0,0,1-6.77-.9h-.11c1.13,3.84,4,5.62,8.18,5.66,5.44,0,6.89-5.47,6.89-5.47h-.15A33.22,33.22,0,0,1,196.72,46.8Z"/><path class="cls-25" d="M196.72,46.8a32.52,32.52,0,0,1-7.12-1h-.12c1.88,1.59,4.86,2.37,8.72,2.44a10.46,10.46,0,0,0,6.48-1.72,4.41,4.41,0,0,0,.2-.43h-.16A33.4,33.4,0,0,1,196.72,46.8Z"/><path id="beard" class="cls-65" d="M217.45,31.57c-.19,2-.86,14.13-4.91,14.91-1.22.23-5.26-1.62-7.57-2.29-5.42-1.57-12.05-1.32-16.55,1.59-3.27,2.12-5.13,2.68-6.42,1.36-1.59-1.62-2.15-6.26-2.47-7.82,0,.14,0,.28-.05.42.39,6.3.75,11.65.94,11.95.73,1.3,12.61,8.25,17,8.25,2.38,0,19.63-7.77,19.63-9.2.3-4.93.45-12.18.64-19Zm-17.58,23.2c-.85,0-2.26-3.39-2.68-3.25S195.65,55,195,55c-1.14.11-6.05-.63-6.49-3.77s1.23-5.35,8.66-5.49,9.29.4,9.6,3.49S201.13,54.78,199.87,54.77Z"/></g></g></g></svg>