<?xml version="1.0" encoding="utf-8"?>
<!-- Generator: Adobe Illustrator 24.3.0, SVG Export Plug-In . SVG Version: 6.00 Build 0)  -->
<svg version="1.1" id="Layer_1" xmlns="http://www.w3.org/2000/svg" xmlns:xlink="http://www.w3.org/1999/xlink" x="0px" y="0px"
	 viewBox="0 0 206 181" style="enable-background:new 0 0 206 181;" xml:space="preserve">
<style type="text/css">
	.st0{fill-rule:evenodd;clip-rule:evenodd;fill:#1C75BC;}
	.st1{fill-rule:evenodd;clip-rule:evenodd;fill:#D77B27;}
	.st2{fill-rule:evenodd;clip-rule:evenodd;fill:#A45F26;}
	.st3{fill-rule:evenodd;clip-rule:evenodd;fill:#C7C5BA;}
	.st4{fill-rule:evenodd;clip-rule:evenodd;fill:#E6E2CC;}
	.st5{fill-rule:evenodd;clip-rule:evenodd;fill:#27AAE1;}
</style>
<g>
	<path class="st0" d="M70.7,142.85v12.76c0,1.39,0.74,2.14,1.77,2.52c20.96,6.65,49.5,6.5,64.17,0c1.14-0.51,1.77-1.13,1.77-2.52
		v-12.76c0-1.38-0.79-2.52-1.77-2.52H72.47C71.49,140.33,70.7,141.47,70.7,142.85L70.7,142.85z"/>
	<path class="st1" d="M19.56,40.86l65.47,90.52l4.83-3.38L28.72,34.46C23.94,27.6,14.68,33.83,19.56,40.86L19.56,40.86z"/>
	<path class="st2" d="M32.76,59.1l-2.32-3.19l8.45-5.89l2.15,3.3L32.76,59.1L32.76,59.1z M28.84,53.68l-4.62-6.4l8.85-6.17l4.32,6.6
		L28.84,53.68L28.84,53.68z"/>
	<path class="st3" d="M50.97,91.09c0.18-2.64,1.14-5.01,2.33-6.02c-0.42-0.93-0.7-2.17-0.75-3.59c-0.04-1.52,0.17-2.98,0.57-4.17
		c-0.08-0.18-0.15-0.37-0.22-0.58c0.03,0.54-0.08,1.01-0.32,1.36c-0.88,1.27-3.23,0.52-5.39-1.65c-0.12,0.04-0.26,0.07-0.39,0.11
		c-3.21,0.85-6.44,0.37-7.2-1.06c-0.76-1.44,1.23-3.29,4.45-4.15c0.05-0.01,0.1-0.02,0.16-0.04c-0.18-0.87-0.11-1.6,0.23-2.11
		c0.92-1.34,3.49-0.43,5.74,2.02c0.15,0.16,0.3,0.34,0.45,0.52c0.28,0.2,0.49,0.43,0.63,0.68c0.06,0.11,0.1,0.23,0.13,0.36
		c0.54,0.8,0.94,1.6,1.19,2.36c-0.05-0.57-0.07-1.18-0.03-1.83c0.07-1.42,0.38-2.76,0.84-3.85c-2.41-2.14-3.75-4.93-3.03-6.33
		c0.75-1.44,3.41-0.87,5.95,1.29c1.41,1.21,2.49,2.65,3.04,3.94c0.66-0.19,1.48-0.29,2.4-0.25c0.71-0.28,1.54-0.48,2.45-0.6
		c3.3-0.43,6.44,0.46,7.01,1.97c0.29,0.79-0.15,1.58-1.09,2.23c1.42-0.4,3.06,1.6,3.77,4.68c0.33,1.49,0.4,2.99,0.23,4.24
		c0.58,0.32,1.18,0.88,1.75,1.61c0-1.23,1.08-2.91,2.93-4.4c2.59-2.08,5.75-2.96,7.01-1.95c1.28,1.01,0.21,3.51-2.38,5.59
		c-2.37,1.91-5.19,2.79-6.63,2.18c0.08,0.15,0.16,0.31,0.24,0.46c0.61,1.23,1,2.5,1.15,3.65c0.21-0.59,0.69-1.23,1.39-1.84
		c0.48-1.03,1.59-2.19,3.16-3.16c2.43-1.51,5.15-2.09,6.6-1.5c-2.19-2.09-3.39-4.71-2.69-6.05c0.75-1.44,3.41-0.86,5.93,1.31
		c0.8,0.67,1.48,1.42,2.02,2.16c0.85,0.64,1.73,1.66,2.47,2.99c1.62,2.89,1.97,6.15,0.76,7.24c-0.65,0.6-1.62,0.43-2.63-0.3
		c-1.25,0.02-2.91-1.41-4.14-3.7c-0.31-0.56-0.56-1.13-0.77-1.7c-0.13,0.45-0.38,0.93-0.75,1.42c0.29,1.29-1.27,3.1-3.87,4.34
		c-3,1.44-6.26,1.56-7.27,0.29c-0.05-0.04-0.09-0.1-0.11-0.15c-0.03,1.02-0.31,1.84-0.83,2.27c-0.15,0.11-0.3,0.2-0.48,0.25
		c-0.15,1.8-0.75,3.24-1.68,3.67c-1.48,0.68-3.22-1.42-3.88-4.68c-0.41-1.98-0.31-3.95,0.14-5.33c-0.15-0.62-0.25-1.23-0.27-1.79
		c-1.1-0.55-2.15-2.25-2.67-4.54c-0.45-1.94-0.42-3.87-0.01-5.26c-1.01,0.63-2.83,0.84-4.94,0.45c-2.23-0.4-4.21-1.36-5.27-2.46
		c-0.01,0-0.02,0-0.02,0c0,0.18-0.01,0.38-0.02,0.56c-0.08,1.49-0.4,2.89-0.89,4.01c0.45,0.94,0.75,2.2,0.8,3.68
		c0.09,2.78-0.72,5.38-1.91,6.39c0.37,0.98,0.54,2.3,0.45,3.79c-0.22,3.32-1.7,6.24-3.3,6.49C51.89,96.89,50.76,94.41,50.97,91.09
		L50.97,91.09z M58,90.98c-0.5-1.54,1.79-3.02,5.1-3.28c3.32-0.27,6.42,0.77,6.91,2.32c0.49,1.55-1.8,3.02-5.11,3.29
		C61.59,93.57,58.49,92.53,58,90.98L58,90.98z M43.44,91.7c-3.05-1.31-5.31-3.68-5.02-5.28c0.29-1.6,2.99-1.83,6.05-0.52
		c3.06,1.32,5.31,3.69,5.02,5.29C49.2,92.79,46.49,93.02,43.44,91.7L43.44,91.7z M152.19,87.44c-0.52-1.5-0.73-3.04-0.66-4.32
		c-0.93-0.77-1.65-2.54-1.83-4.76c-0.18-2.03,0.15-3.99,0.78-5.31c-0.56-0.21-0.99-0.52-1.22-0.91c-0.06-0.09-0.1-0.17-0.13-0.26
		c-0.32,0.31-0.67,0.61-1.05,0.9c-0.32,0.24-0.65,0.47-0.98,0.68c0.7,0.33,1.19,0.77,1.4,1.28c0.59,1.52-1.6,3.14-4.89,3.63
		c-2.46,0.36-4.85-0.03-6.14-0.87c0.32,0.83,0.54,1.86,0.61,3.02c0.22,3.32-0.87,6.4-2.43,6.87c-1.55,0.48-2.99-1.84-3.2-5.16
		c-0.04-0.58-0.04-1.15,0-1.7c-1.12-0.48-2.2-2.27-2.68-4.7c-0.64-3.26,0.04-6.46,1.52-7.12c0.58-0.27,1.2-0.1,1.77,0.39
		c-1.29-1.42-2.05-2.96-1.95-4.05c-0.31,0.05-0.63,0.08-0.99,0.08c-0.28,0.76-0.7,1.59-1.27,2.41c-1.35,1.96-3.14,3.41-4.6,3.86
		c1.79-0.06,3.24,0.36,3.79,1.21c0.86,1.39-1.01,3.38-4.15,4.45c-3.15,1.06-6.41,0.81-7.26-0.57c-0.86-1.38,1-3.38,4.15-4.45
		c0.74-0.25,1.5-0.43,2.22-0.53c-0.1-0.01-0.2-0.05-0.29-0.08c-1.51-0.59-1.21-3.29,0.67-6.04c0.44-0.64,0.93-1.23,1.44-1.75
		c-2.01-1.1-3.36-2.59-3.27-3.8c0.13-1.62,2.81-2.11,5.99-1.11c2.22,0.71,4.11,1.98,4.98,3.24c0.45-0.92,1.24-1.93,2.32-2.87
		c2.52-2.2,5.62-3.18,6.94-2.24c1.31,0.95,0.35,3.5-2.16,5.68c-1.1,0.95-2.31,1.69-3.43,2.12c0.35,0.22,0.71,0.44,1.08,0.72
		c2.69,1.95,4.36,4.77,3.72,6.26c-0.64,1.49-3.32,1.12-6.01-0.84c-0.6-0.43-1.15-0.91-1.63-1.4c0.78,0.8,1.45,2.24,1.8,4.01
		c0.13,0.64,0.2,1.27,0.23,1.88c0.39,0.03,0.76,0.24,1.11,0.58c0.12-1.16,1.72-2.28,4.06-2.81c0.2-1.18,1.28-2.69,2.98-4.01
		c0.52-0.39,1.07-0.75,1.6-1.04c-0.3-0.48-0.61-1.01-0.87-1.59c-1.37-3.02-1.46-6.29-0.17-7.29c1.28-0.99,3.44,0.66,4.84,3.68
		c0.64,1.42,1,2.87,1.07,4.13c0.23,0.07,0.42,0.18,0.59,0.31c0.46,0.38,0.6,0.94,0.47,1.61c0.67-0.42,1.49-0.8,2.41-1.1
		c3.17-1.04,6.41-0.75,7.26,0.65c0.79,1.32-0.85,3.14-3.7,4.21c1.49,1.71,2.41,3.68,2.52,5.14c0.63-0.07,1.33-0.11,2.08-0.06
		c1.21,0.08,2.36,0.32,3.37,0.68c1.43-0.62,2.75-0.73,3.51-0.23c1.34,0.92,0.44,3.48-2.01,5.74c-2.44,2.25-5.52,3.34-6.86,2.43
		c-0.87-0.6-0.8-1.89,0.03-3.35c-1.95-0.6-3.38-1.64-3.57-2.74c-0.05-0.3-0.01-0.58,0.12-0.83c-0.31-0.16-0.62-0.34-0.94-0.57
		c-0.06,0.64-0.17,1.25-0.32,1.81c0.84,0.73,1.66,2.02,2.22,3.66c1.08,3.15,0.84,6.41-0.54,7.27
		C155.27,92.43,153.27,90.59,152.19,87.44L152.19,87.44z M164.62,90.93c-1.26-1.02-0.17-3.51,2.44-5.58c2.6-2.06,5.75-2.91,7.03-1.9
		c1.27,1.01,0.19,3.51-2.43,5.58C169.05,91.08,165.89,91.94,164.62,90.93L164.62,90.93z M145.18,87.95
		c-3.33-0.19-6.24-1.65-6.52-3.26c-0.27-1.6,2.2-2.74,5.52-2.54c3.32,0.19,6.24,1.65,6.52,3.25C150.96,87,148.49,88.14,145.18,87.95
		L145.18,87.95z M58.9,85.93c-0.73-1.45,1.31-3.27,4.55-4.04c3.23-0.77,6.44-0.22,7.17,1.24c0.73,1.46-1.31,3.26-4.55,4.03
		C62.84,87.94,59.62,87.39,58.9,85.93L58.9,85.93z M112.67,83.43c-0.36-0.83-0.62-1.67-0.78-2.48c-0.67-0.69-1.31-1.64-1.84-2.8
		c-0.5-1.1-0.84-2.23-0.99-3.28c-2.77-0.82-4.9-2.47-4.94-3.91c-0.03-1.62,2.58-2.39,5.83-1.72c3.26,0.67,5.94,2.55,5.98,4.17
		c0,0.64-0.39,1.15-1.07,1.49c0.29,0.69,0.52,1.4,0.68,2.09c0.68,0.71,1.35,1.71,1.87,2.94c1.32,3.05,1.32,6.32,0.01,7.29
		C116.11,88.19,113.99,86.48,112.67,83.43L112.67,83.43z M99.55,85.25c-0.49-0.6-0.39-1.45,0.2-2.31c-1.06,0.01-1.91-0.25-2.36-0.78
		c-0.46-0.52-0.45-1.21-0.06-1.98c-0.04-1.03,0.21-2.3,0.76-3.67c-1.1,0.79-3.37-0.1-5.42-2.23c-2.31-2.39-3.48-5.44-2.61-6.81
		c0.88-1.36,3.49-0.53,5.8,1.86c1.86,1.94,2.98,4.29,2.88,5.85c1.34-2.44,3.29-4.09,4.68-3.85c1.32,0.23,1.72,2.14,1.07,4.53
		c1.58-0.24,2.92-0.04,3.54,0.67c0.56,0.64,0.42,1.57-0.29,2.53c1.19-0.02,2.14,0.26,2.61,0.83c1.04,1.25-0.54,3.48-3.52,4.95
		C103.84,86.33,100.58,86.51,99.55,85.25L99.55,85.25z M38.94,84.04c-3.22-0.8-5.83-2.77-5.81-4.39c0.02-1.63,2.66-2.29,5.89-1.49
		c3.23,0.8,5.83,2.77,5.81,4.4C44.81,84.17,42.16,84.84,38.94,84.04L38.94,84.04z M119.46,83.02c-0.87-1.37,0.99-3.37,4.13-4.44
		c3.14-1.08,6.41-0.83,7.27,0.54c0.86,1.37-1,3.37-4.15,4.45C123.57,84.65,120.31,84.4,119.46,83.02L119.46,83.02z M83.52,72.3
		c-2.57-2.1-4.09-4.99-3.38-6.45c0.72-1.45,3.39-0.94,5.98,1.17c2.57,2.1,4.08,4.99,3.36,6.45C88.77,74.93,86.11,74.41,83.52,72.3
		L83.52,72.3z M72.13,68.23c0.4-3.3,2.03-6.13,3.65-6.31c1.61-0.18,2.6,2.36,2.2,5.66c-0.4,3.31-2.03,6.13-3.65,6.31
		C72.72,74.08,71.73,71.53,72.13,68.23L72.13,68.23z M115.41,67.81c-0.09-0.04-0.16-0.09-0.24-0.14c-2.83-1.74-4.72-4.41-4.2-5.94
		c0.51-1.55,3.23-1.39,6.05,0.36c0.04,0.02,0.06,0.04,0.1,0.06c0.62-0.93,1.35-1.53,2.07-1.6c1.62-0.16,2.58,2.38,2.15,5.68
		c-0.03,0.22-0.06,0.45-0.1,0.67c0.09,0.41,0.1,0.8-0.01,1.14c-0.09,0.26-0.25,0.48-0.47,0.65c-0.72,2.13-1.93,3.7-3.12,3.81
		C116.2,72.65,115.28,70.62,115.41,67.81L115.41,67.81z M69.46,72.09c-0.01,0-0.03,0.01-0.04,0.02c0,0,0,0.01,0,0.02
		C69.43,72.11,69.45,72.1,69.46,72.09L69.46,72.09z M103.42,69.11c-1.6-0.35-1.71-3.08-0.25-6.07c1.45-2.99,3.92-5.14,5.5-4.78
		c1.59,0.36,1.7,3.09,0.25,6.08C107.46,67.34,104.99,69.47,103.42,69.11L103.42,69.11z M96,66.66c-3.26-0.7-5.94-2.57-5.96-4.2
		c-0.04-1.62,2.58-2.38,5.83-1.7c3.26,0.69,5.93,2.56,5.96,4.18C101.86,66.57,99.25,67.34,96,66.66L96,66.66z"/>
	<path class="st4" d="M150.35,90.94c-0.08-2.78,0.75-5.36,1.94-6.38c-0.85-0.29-1.81-0.78-2.75-1.47c-2.69-1.97-4.36-4.77-3.72-6.27
		c0.63-1.49,3.33-1.12,6.01,0.85c2.69,1.96,4.36,4.76,3.72,6.26c-0.17,0.41-0.5,0.68-0.94,0.81c0.81,0.87,1.38,2.59,1.43,4.7
		c0.1,3.33-1.1,6.36-2.66,6.78C151.79,96.64,150.44,94.27,150.35,90.94L150.35,90.94z M130.04,89.43c-0.35-0.49-0.68-1.08-0.95-1.76
		c-0.48,1.4-3.05,1.61-5.99,0.43c-0.96-0.38-1.85-0.87-2.59-1.41c-2.47,0.18-4.59-0.39-5.17-1.55c-0.08-0.16-0.13-0.31-0.15-0.47
		c-0.41,0.43-0.85,0.79-1.26,1.04c-0.24,1.34-0.77,2.33-1.52,2.69c-1.46,0.7-3.23-1.39-3.93-4.63c-0.34-1.57-0.37-3.11-0.16-4.38
		c-0.78,0.04-1.67-0.04-2.62-0.25c0.62,0.3,1.07,0.67,1.28,1.14c0.66,1.49-1.45,3.2-4.72,3.83c-3.26,0.63-6.45-0.06-7.12-1.55
		c-0.66-1.48,1.46-3.2,4.72-3.82c1.45-0.28,2.89-0.29,4.07-0.11c-2.51-0.93-4.38-2.55-4.37-3.92c0.01-1.35,1.85-2.05,4.33-1.79
		c-0.69-0.46-1.15-1.01-1.27-1.58c-0.17,0.33-0.4,0.6-0.66,0.77c-0.97,0.62-2.26-0.11-3.33-1.69c0.08,0.6,0.12,1.24,0.1,1.93
		c-0.12,3.32-1.52,6.27-3.11,6.58c-1.59,0.31-2.8-2.14-2.67-5.46c0.13-3.32,1.51-6.28,3.11-6.58c0.4-0.08,0.78,0.02,1.12,0.27
		c-0.45-1.58-0.55-3.14-0.35-4.35c-0.02-0.01-0.04-0.02-0.04-0.02c-0.43-0.12-0.73-0.43-0.91-0.86c-0.64,0.89-1.79,1.81-3.29,2.54
		c-2.99,1.46-6.25,1.62-7.27,0.36c-0.68-0.83-0.21-2.06,1.02-3.22c-0.5-0.19-0.93-0.4-1.29-0.66c0.29,1.22,0.22,2.28-0.27,2.89
		c-0.26,0.33-0.64,0.49-1.05,0.51c-0.46,2.88-1.83,5.22-3.27,5.45c-1.6,0.25-2.69-2.26-2.43-5.57c0.1-1.27,0.38-2.47,0.78-3.5
		c-1.7-2.49-2.32-5.3-1.37-6.46c1.03-1.25,3.51-0.13,5.53,2.51c0.46,0.61,0.86,1.24,1.2,1.88c0.58-1.1,2.54-1.95,5.09-2.07
		c3.17-0.16,6.11,0.88,6.74,2.33c0.23-0.68,0.55-1.44,1-2.2c1.68-2.87,4.31-4.82,5.85-4.34c1.55,0.48,1.46,3.2-0.21,6.08
		c-0.68,1.15-1.5,2.14-2.33,2.9c0.79,0.75,1.54,1.97,2.1,3.49c0.65,1.86,0.85,3.76,0.63,5.17c0.83-0.89,2.71-1.45,5.03-1.37
		c3.33,0.11,6.28,1.49,6.6,3.08c0.06,0.34,0.01,0.66-0.16,0.96c0.94,0.4,1.98,1.27,2.92,2.5c0.2,0.18,0.35,0.41,0.48,0.67
		c1.21,1.81,1.88,3.83,1.85,5.3c0.04-0.01,0.08-0.02,0.12-0.03c0.26-0.06,0.53-0.12,0.78-0.16c0.31-1.13,1.35-2.5,2.95-3.7
		c2.48-1.89,5.42-2.7,6.81-1.93c0.02-0.11,0.02-0.22,0.06-0.33c0.07-0.34,0.27-0.6,0.54-0.8c-0.29-1.09-0.22-2.68,0.31-4.42
		c0.2-0.64,0.43-1.26,0.71-1.83c-0.51-0.99-0.69-1.91-0.4-2.57c0.39-0.91,1.53-1.12,2.96-0.72c0.49-0.31,0.96-0.48,1.41-0.45
		c0.84,0.05,1.39,0.81,1.59,1.99c0.01,0.01,0.03,0.02,0.05,0.03c0.69,0.52,1.32,1.08,1.86,1.67c1.06-0.54,2.93-0.55,5.02,0.07
		c3.18,0.96,5.68,3.06,5.58,4.68c-0.1,1.62-2.77,2.17-5.95,1.21c-1.05-0.32-2.01-0.76-2.85-1.25c-0.62,1.21-2.71,1.05-4.98-0.28
		c-0.39,0.76-0.84,1.43-1.32,1.98c0.5,0.18,1,0.4,1.51,0.67c2.95,1.54,5.01,4.07,4.62,5.64c-0.02,0.09-0.06,0.17-0.08,0.25
		c1.92-1.05,3.79-1.36,4.74-0.68c1.31,0.96,0.34,3.51-2.19,5.68c-0.53,0.46-1.08,0.86-1.64,1.21c0.19,0.01,0.39,0.02,0.59,0.03
		c3.32,0.23,6.22,1.71,6.49,3.31c0.26,1.6-2.22,2.73-5.54,2.5c-3.31-0.23-6.22-1.72-6.48-3.32c-0.07-0.44,0.07-0.86,0.39-1.22
		c-0.29-0.05-0.53-0.16-0.74-0.31c-1.31-0.95-0.33-3.5,2.19-5.67c0.25-0.23,0.51-0.44,0.78-0.63c-1.15,0.19-2.82-0.17-4.57-1.09
		c-1.76-0.92-3.19-2.18-3.99-3.38c-0.15,0.6-0.51,1.26-1.05,1.94c1.15-0.05,2.52,1.36,3.4,3.58c0.12-0.04,0.23-0.07,0.36-0.09
		c1.61-0.16,2.57,2.4,2.14,5.69c-0.43,3.29-2.1,6.1-3.72,6.26C130.71,94.79,129.75,92.49,130.04,89.43L130.04,89.43z M157.43,90.48
		c-0.83-1.39,1.06-3.36,4.21-4.38c3.16-1.02,6.42-0.73,7.25,0.66c0.84,1.39-1.04,3.36-4.21,4.37
		C161.52,92.17,158.27,91.87,157.43,90.48L157.43,90.48z M48.55,85c0.42-3.31,2.06-6.13,3.67-6.3c1.61-0.17,2.59,2.38,2.19,5.67
		c-0.41,3.3-2.06,6.12-3.67,6.29C49.13,90.85,48.15,88.3,48.55,85L48.55,85z M32.84,87.5c-0.62-1.51,1.54-3.16,4.83-3.7
		c1.25-0.2,2.5-0.22,3.58-0.07c-0.19-0.31-0.25-0.71-0.2-1.16c-2.5-1.91-4.02-4.51-3.43-5.95c0.62-1.5,3.32-1.17,6.03,0.76
		c0.22,0.16,0.43,0.32,0.64,0.49c2.31-1.87,4.99-2.72,6.22-1.89c1.34,0.9,0.45,3.48-1.99,5.75c-0.31,0.29-0.64,0.56-0.98,0.81
		c0.05,0.39,0.03,0.74-0.1,1.06c-0.4,0.96-1.65,1.17-3.22,0.68c-0.22,0.06-0.43,0.1-0.63,0.14c0.55,0.3,0.95,0.68,1.13,1.12
		c0.62,1.5-1.54,3.16-4.82,3.69C36.63,89.78,33.46,89,32.84,87.5L32.84,87.5z M55.91,87.03c-0.93-1.33,0.82-3.41,3.9-4.66
		c3.09-1.24,6.35-1.17,7.28,0.16c0.92,1.32-0.82,3.42-3.91,4.66C60.11,88.44,56.84,88.36,55.91,87.03L55.91,87.03z M88.29,81.71
		c-0.61-3.27,0.09-6.45,1.58-7.11c1.49-0.65,3.2,1.47,3.81,4.75c0.61,3.27-0.1,6.45-1.58,7.11C90.62,87.1,88.91,84.97,88.29,81.71
		L88.29,81.71z M68.86,83.19c-1.12-1.69-1.78-3.55-1.87-5.01c-2.81,1.15-5.68,1.19-6.63,0.01c-0.54-0.67-0.33-1.61,0.42-2.55
		c-1.41-0.14-2.33-2.52-2.07-5.58c0.16-1.97,0.75-3.79,1.56-5c-2.43-0.62-4.28-1.9-4.45-3.17c-0.21-1.62,2.3-2.66,5.61-2.33
		c2.58,0.26,4.87,1.27,5.87,2.46c-0.07-1.1,0.24-2.53,0.93-4.04c1.39-3.03,3.8-5.22,5.41-4.9c1.59,0.33,1.75,3.04,0.36,6.07
		c-0.84,1.8-2.03,3.31-3.2,4.17c0.2,0.05,0.41,0.11,0.61,0.17c3.18,0.98,5.66,3.09,5.55,4.71c-0.04,0.48-0.3,0.87-0.73,1.14
		c0.72,0.7,1.41,1.74,1.96,3c0.77,1.78,1.1,3.63,0.99,5.05c0.15-0.04,0.32-0.08,0.47-0.11c3.26-0.66,6.46,0.01,7.13,1.49
		c0.67,1.48-1.43,3.22-4.69,3.87c-3.25,0.66-6.45-0.01-7.13-1.48c-0.31-0.68-0.03-1.42,0.68-2.09c-0.79-0.71-1.56-1.82-2.18-3.22
		c-0.99-2.26-1.25-4.64-0.79-6.12c-0.53-0.08-1.1-0.21-1.69-0.39c-2.81-0.87-5.08-2.61-5.49-4.13c-0.42,0.1-0.85,0.17-1.34,0.21
		c0.34,0.97,0.49,2.28,0.37,3.74c-0.13,1.7-0.6,3.28-1.23,4.47c0.2-0.12,0.43-0.24,0.66-0.36c3-1.42,6.26-1.57,7.28-0.31
		c0.65,0.82,0.21,2.03-1,3.17c0.89,0.55,1.83,1.5,2.66,2.75c1.83,2.77,2.42,5.99,1.31,7.17C73.1,87.24,70.7,85.96,68.86,83.19
		L68.86,83.19z M128.43,80.78c-0.09,0.07-0.19,0.14-0.28,0.22c-0.46,0.35-0.93,0.65-1.39,0.92c0.12,0.13,0.22,0.26,0.3,0.42
		c0.25,0.5,0.17,1.04-0.17,1.57c0.59,0.46,1.1,0.95,1.48,1.43C128.01,83.6,128.05,81.94,128.43,80.78L128.43,80.78z M169.74,84.43
		c-3.32-0.24-6.21-1.76-6.46-3.36c-0.25-1.6,2.23-2.7,5.55-2.46c3.32,0.24,6.21,1.75,6.46,3.36
		C175.55,83.58,173.06,84.68,169.74,84.43L169.74,84.43z M53.68,79.32c-0.51-0.87-0.9-1.78-1.16-2.65
		c-0.17-0.05-0.34-0.11-0.51-0.17c-3.14-1.09-5.56-3.29-5.38-4.91c0.13-1.31,1.93-1.84,4.29-1.41c-0.06-0.28-0.11-0.58-0.15-0.89
		c-0.41-3.3,0.49-6.44,2.02-7c1.52-0.56,3.09,1.66,3.51,4.96c0.23,1.88,0.04,3.72-0.47,5.05c1.33,0.98,2.18,2.09,2.19,3.06
		c1.63,2.85,2,6.04,0.84,7.15C57.67,83.64,55.35,82.2,53.68,79.32L53.68,79.32z M155.57,75.95c-0.62,0.84-1.33,1.36-2.01,1.42
		c-1.62,0.12-2.53-2.46-2-5.74c0.52-3.29,2.25-6.06,3.87-6.18c0.33-0.02,0.63,0.07,0.9,0.26c0.01-0.03,0.01-0.05,0.02-0.08
		c0.58-3.28,2.36-6.01,3.98-6.1c1.63-0.09,2.47,2.5,1.89,5.78c-0.23,1.29-0.65,2.5-1.17,3.49c1.18-0.03,2.8,0.58,4.42,1.75
		c2.69,1.96,4.36,4.77,3.73,6.26c-0.64,1.5-3.33,1.13-6.02-0.83c-0.57-0.4-1.08-0.85-1.55-1.31c-0.78,3.1-2.62,5.56-4.2,5.58
		C156.08,80.25,155.36,78.43,155.57,75.95L155.57,75.95z M112.7,77.98c-0.62-1.41-0.91-2.78-0.79-3.81
		c-0.78,0.17-1.69,0.27-2.68,0.23c-0.25-0.01-0.49-0.03-0.72-0.05c1.19,0.67,2.11,1.47,2.52,2.26c0.56,0.22,1.09,0.75,1.57,1.51
		C112.63,78.08,112.67,78.02,112.7,77.98L112.7,77.98z M80.18,74.54c-0.9-1.35,0.89-3.4,4.01-4.57c3.11-1.16,6.38-1.02,7.27,0.33
		c0.91,1.35-0.9,3.4-4.01,4.57C84.33,76.04,81.07,75.89,80.18,74.54L80.18,74.54z M121.72,70.14c-0.62-3.27,0.08-6.46,1.57-7.12
		c1.48-0.66,3.2,1.46,3.82,4.72c0.63,3.27-0.07,6.46-1.56,7.13C124.06,75.53,122.35,73.41,121.72,70.14L121.72,70.14z M114.66,63.45
		c0.64-3.26,2.49-5.95,4.11-6.01c1.61-0.06,2.41,2.55,1.77,5.81c-0.65,3.26-2.49,5.95-4.11,6.01
		C114.81,69.32,114.02,66.72,114.66,63.45L114.66,63.45z M106.11,66.47c-2.39-2.3-3.67-5.3-2.84-6.7c0.82-1.41,3.44-0.67,5.84,1.64
		c2.4,2.3,3.69,5.3,2.86,6.7C111.14,69.5,108.52,68.78,106.11,66.47L106.11,66.47z M138.16,63.93c-2.22-2.48-3.28-5.58-2.36-6.9
		c0.93-1.33,3.49-0.42,5.72,2.06c2.23,2.47,3.28,5.55,2.35,6.89C142.95,67.32,140.39,66.39,138.16,63.93L138.16,63.93z M144.4,64.32
		c-0.97-1.31,0.72-3.45,3.76-4.79c3.05-1.33,6.31-1.37,7.28-0.06c0.97,1.3-0.71,3.45-3.76,4.78
		C148.65,65.59,145.37,65.61,144.4,64.32L144.4,64.32z"/>
	<path class="st1" d="M38.19,19.98l43.13,103.08l5.48-2.19L48.58,15.85C45.48,8.07,35.03,12.04,38.19,19.98L38.19,19.98z"/>
	<path class="st2" d="M46.88,40.75l-1.52-3.63l9.58-3.81l1.35,3.71L46.88,40.75L46.88,40.75z M44.31,34.59l-3.05-7.28l10.02-4
		L54,30.74L44.31,34.59L44.31,34.59z"/>
	<path class="st5" d="M27.1,85.04c-0.01-3.58,2.12-5.09,6.21-5.09h138.19c7.67,0,11.19,2.73,10.18,9.52
		c-4.1,40.7-38.86,63.97-76.89,64.18h-0.47C65.16,153.43,29.07,128.48,27.1,85.04L27.1,85.04z"/>
	<path class="st0" d="M31,105.81h147.12c-0.48,1.37-0.98,2.7-1.53,4H32.53C31.98,108.51,31.48,107.18,31,105.81L31,105.81z
		 M27.7,91.76h153.71c-0.45,3.47-1.13,6.8-2.03,10H29.73C28.84,98.56,28.15,95.23,27.7,91.76L27.7,91.76z"/>
</g>
</svg>
