<?xml version="1.0" encoding="utf-8"?>
<svg viewBox="0 0 512 512" xmlns="http://www.w3.org/2000/svg">
  <path d="M 0 0 L 512 0 L 512 512 L 0 512 L 0 0 Z" fill="none"/>
  <path d="M 256 0 C 114.688 0 0 114.688 0 256 C 0 397.312 114.688 512 256 512 C 397.312 512 512 397.312 512 256 C 512 114.688 397.312 0 256 0 Z M 256 384.001 C 241.92 384.001 230.4 372.481 230.4 358.4 L 230.4 256 C 230.4 241.92 241.92 230.4 256 230.4 C 270.08 230.4 281.6 241.92 281.6 256 L 281.6 358.4 C 281.6 372.481 270.08 384.001 256 384.001 Z M 281.6 179.2 L 230.4 179.2 L 230.4 127.999 L 281.6 127.999 L 281.6 179.2 Z"/>
</svg>