<svg xmlns="http://www.w3.org/2000/svg" xmlns:xlink="http://www.w3.org/1999/xlink" viewBox="0 0 639.09 563.28"><defs><style>.cls-1{fill:none;}.cls-2{clip-path:url(#clip-path);}.cls-3{fill:#fedfbc;}</style><clipPath id="clip-path" transform="translate(0 0)"><rect class="cls-1" width="639.09" height="563.28"/></clipPath></defs><g id="Layer_2" data-name="Layer 2"><g id="Layer_1-2" data-name="Layer 1"><g class="cls-2"><path class="cls-3" d="M414.63,120.08c-40.87,0-76.25,23-93.26,56.43-17-33.44-52.39-56.43-93.3-56.43C170.59,120.08,124,165.54,124,221.64,124,355.66,319.21,429,319.21,429s199.58-74.28,199.58-207.36c0-56.1-46.64-101.56-104.16-101.56m-27-43.67a16.91,16.91,0,0,1-13.84-19.7l8.22-42.92A17.34,17.34,0,0,1,402.25.28,17,17,0,0,1,416.1,20l-8.22,42.92a17.32,17.32,0,0,1-20.21,13.5M559.73,203.23a17.15,17.15,0,0,1,17.9-16.3l44.74,1.53a16.9,16.9,0,1,1-1.2,33.76l-44.74-1.52a17,17,0,0,1-16.7-17.47m-417.14,310a17.59,17.59,0,0,1-6.85-1.39,16.72,16.72,0,0,1-9-22.21c8.09-18.24,21-32.5,33.49-46.26,4-4.42,8-8.8,11.71-13.28a17.6,17.6,0,0,1,24.37-2.41,16.59,16.59,0,0,1,2.46,23.77c-4,4.8-8.29,9.55-12.58,14.28-11.19,12.34-21.77,24-27.67,37.34a17.45,17.45,0,0,1-15.94,10.16M601,373l-56.68-22.14a16.75,16.75,0,0,1-9.62-21.95,17.43,17.43,0,0,1,22.5-9.38l56.68,22.14a16.74,16.74,0,0,1,9.62,21.95A17.49,17.49,0,0,1,601,373M303.37,546l1.32-59.54a17.3,17.3,0,0,1,34.58.78l-1.33,59.54a17.29,17.29,0,0,1-34.57-.78m198.5-437a17.59,17.59,0,0,1-11.68-4.41,16.6,16.6,0,0,1-1.1-23.86c13.09-14,29.43-25.79,51.43-37.25A17.56,17.56,0,0,1,564,50.44a16.73,16.73,0,0,1-7.13,22.86c-18.44,9.61-31.86,19.22-42.2,30.26A17.47,17.47,0,0,1,501.87,109M7.32,251.73a16.74,16.74,0,0,1,6.26-30.28c18.94-4.07,39.28-4.55,64-1.53a17,17,0,0,1,15,18.83,17.23,17.23,0,0,1-19.31,14.67c-20.73-2.53-37.38-2.2-52.36,1a17.49,17.49,0,0,1-13.68-2.7m436.3,178.44a16.68,16.68,0,0,1,3.27-11.79,17.58,17.58,0,0,1,24.2-3.6c15.61,11.17,29.42,25.78,43.47,45.88A16.66,16.66,0,0,1,510,484.13a17.57,17.57,0,0,1-24-4.45c-11.78-16.86-23-28.83-35.34-37.69a16.82,16.82,0,0,1-7-11.82M34.55,396a17.18,17.18,0,0,1-10.35-6.89,16.59,16.59,0,0,1,4.46-23.47c16-10.71,34.62-18.63,58.71-25a17.35,17.35,0,0,1,21.2,11.92,16.82,16.82,0,0,1-12.21,20.68c-20.2,5.29-35.48,11.72-48.1,20.2A17.47,17.47,0,0,1,34.55,396m84.81-273.11a17.54,17.54,0,0,1-10.58-3.54c-2.63-2-7.19-5-12-8.11-12.29-8-27.57-18-36.35-27.73A16.62,16.62,0,0,1,62,59.63a17.63,17.63,0,0,1,24.44,1.56c5.75,6.43,19.51,15.36,29.55,21.92,5.6,3.63,10.42,6.78,14,9.48A16.58,16.58,0,0,1,133,116.25a17.2,17.2,0,0,1-13.68,6.59m140.27-43.5a17.43,17.43,0,0,1-15.42-9.16c-2.83-5.32-5.06-10.48-7.22-15.48-3.86-8.9-7.19-16.56-12.81-22.86A16.58,16.58,0,0,1,225.84,8a17.6,17.6,0,0,1,24.43,1.62c9.29,10.36,14.25,21.82,18.65,31.92,2,4.61,3.89,9,6.11,13.15a16.65,16.65,0,0,1-7.45,22.72,17.65,17.65,0,0,1-7.95,1.92" transform="translate(0 0)"/></g></g></g></svg>