<?xml version="1.0" encoding="UTF-8"?>
<svg xmlns="http://www.w3.org/2000/svg" xmlns:xlink="http://www.w3.org/1999/xlink" width="120pt" height="120pt" viewBox="0 0 120 120" version="1.1">
<g id="surface1">
<path style=" stroke:none;fill-rule:nonzero;fill:rgb(0%,0%,0%);fill-opacity:1;" d="M 40.5 66.699219 L 54.648438 52.550781 L 23.699219 21.648438 C 21.300781 19.25 17.148438 19.898438 15.648438 23 C 12.101562 30.449219 13.398438 39.601562 19.550781 45.800781 Z M 74.398438 57.648438 C 82.050781 61.199219 92.800781 58.699219 100.75 50.75 C 110.300781 41.199219 112.148438 27.5 104.800781 20.148438 C 97.5 12.851562 83.800781 14.648438 74.199219 24.199219 C 66.25 32.148438 63.75 42.898438 67.300781 50.550781 L 22.050781 95.800781 C 20.101562 97.75 20.101562 100.898438 22.050781 102.851562 C 24 104.800781 27.148438 104.800781 29.101562 102.851562 L 60 72.050781 L 90.898438 102.949219 C 92.851562 104.898438 96 104.898438 97.949219 102.949219 C 99.898438 101 99.898438 97.851562 97.949219 95.898438 L 67.050781 65 Z M 74.398438 57.648438 "/>
</g>
</svg>
