<?xml version="1.0" encoding="UTF-8"?>
<svg xmlns="http://www.w3.org/2000/svg" xmlns:xlink="http://www.w3.org/1999/xlink" width="128pt" height="128pt" viewBox="0 0 128 128" version="1.1">
<g id="surface1">
<path style=" stroke:none;fill-rule:nonzero;fill:rgb(0%,0%,0%);fill-opacity:1;" d="M 43.199219 71.148438 L 58.292969 56.054688 L 25.28125 23.09375 C 22.71875 20.535156 18.292969 21.226562 16.691406 24.535156 C 12.90625 32.480469 14.292969 42.238281 20.851562 48.851562 Z M 79.359375 61.492188 C 87.519531 65.28125 98.988281 62.613281 107.464844 54.132812 C 117.652344 43.945312 119.625 29.332031 111.785156 21.492188 C 104 13.707031 89.386719 15.625 79.148438 25.8125 C 70.667969 34.292969 68 45.761719 71.785156 53.921875 L 23.519531 102.1875 C 21.441406 104.265625 21.441406 107.625 23.519531 109.707031 C 25.601562 111.785156 28.960938 111.785156 31.039062 109.707031 L 64 76.851562 L 96.960938 109.8125 C 99.039062 111.894531 102.398438 111.894531 104.480469 109.8125 C 106.558594 107.734375 106.558594 104.375 104.480469 102.292969 L 71.519531 69.332031 Z M 79.359375 61.492188 "/>
</g>
</svg>
