<?xml version="1.0" encoding="UTF-8"?>
<svg xmlns="http://www.w3.org/2000/svg" xmlns:xlink="http://www.w3.org/1999/xlink" width="180pt" height="180pt" viewBox="0 0 180 180" version="1.1">
<g id="surface1">
<path style=" stroke:none;fill-rule:nonzero;fill:rgb(0%,0%,0%);fill-opacity:1;" d="M 60.75 100.050781 L 81.972656 78.824219 L 35.550781 32.472656 C 31.949219 28.875 25.722656 29.847656 23.472656 34.5 C 18.152344 45.675781 20.097656 59.402344 29.324219 68.699219 Z M 111.597656 86.472656 C 123.074219 91.800781 139.199219 88.050781 151.125 76.125 C 165.449219 61.800781 168.222656 41.25 157.199219 30.222656 C 146.25 19.277344 125.699219 21.972656 111.300781 36.300781 C 99.375 48.222656 95.625 64.347656 100.949219 75.824219 L 33.074219 143.699219 C 30.152344 146.625 30.152344 151.347656 33.074219 154.277344 C 36 157.199219 40.722656 157.199219 43.652344 154.277344 L 90 108.074219 L 136.347656 154.425781 C 139.277344 157.347656 144 157.347656 146.925781 154.425781 C 149.847656 151.5 149.847656 146.777344 146.925781 143.847656 L 100.574219 97.5 Z M 111.597656 86.472656 "/>
</g>
</svg>
