<?xml version="1.0" encoding="UTF-8"?>
<svg xmlns="http://www.w3.org/2000/svg" xmlns:xlink="http://www.w3.org/1999/xlink" width="128pt" height="128pt" viewBox="0 0 128 128" version="1.1">
<g id="surface1">
<path style=" stroke:none;fill-rule:nonzero;fill:rgb(0%,0%,0%);fill-opacity:1;" d="M 112 33.601562 C 112 29.386719 109.492188 25.546875 105.652344 23.839844 L 68.320312 7.253906 C 65.546875 6.027344 62.398438 6.027344 59.679688 7.253906 L 22.347656 23.839844 C 18.507812 25.546875 16 29.386719 16 33.601562 L 16 58.667969 C 16 88.265625 36.480469 115.945312 64 122.667969 C 76.265625 119.679688 87.09375 112.535156 95.359375 102.878906 L 78.71875 86.238281 C 68.375 93.121094 54.292969 91.945312 45.171875 82.828125 C 34.773438 72.425781 34.773438 55.519531 45.171875 45.121094 C 55.574219 34.71875 72.480469 34.71875 82.878906 45.121094 C 92 54.238281 93.121094 68.320312 86.292969 78.667969 L 101.761719 94.132812 C 108.214844 83.679688 112 71.359375 112 58.667969 Z M 112 33.601562 "/>
<path style=" stroke:none;fill-rule:nonzero;fill:rgb(0%,0%,0%);fill-opacity:1;" d="M 80 64 C 80 72.835938 72.835938 80 64 80 C 55.164062 80 48 72.835938 48 64 C 48 55.164062 55.164062 48 64 48 C 72.835938 48 80 55.164062 80 64 Z M 80 64 "/>
</g>
</svg>
