<?xml version="1.0" encoding="UTF-8"?>
<svg xmlns="http://www.w3.org/2000/svg" xmlns:xlink="http://www.w3.org/1999/xlink" width="120pt" height="120pt" viewBox="0 0 120 120" version="1.1">
<g id="surface1">
<path style=" stroke:none;fill-rule:nonzero;fill:rgb(0%,0%,0%);fill-opacity:1;" d="M 105 31.5 C 105 27.550781 102.648438 23.949219 99.050781 22.351562 L 64.050781 6.800781 C 61.449219 5.648438 58.5 5.648438 55.949219 6.800781 L 20.949219 22.351562 C 17.351562 23.949219 15 27.550781 15 31.5 L 15 55 C 15 82.75 34.199219 108.699219 60 115 C 71.5 112.199219 81.648438 105.5 89.398438 96.449219 L 73.800781 80.851562 C 64.101562 87.300781 50.898438 86.199219 42.351562 77.648438 C 32.601562 67.898438 32.601562 52.050781 42.351562 42.300781 C 52.101562 32.550781 67.949219 32.550781 77.699219 42.300781 C 86.25 50.851562 87.300781 64.050781 80.898438 73.75 L 95.398438 88.25 C 101.449219 78.449219 105 66.898438 105 55 Z M 105 31.5 "/>
<path style=" stroke:none;fill-rule:nonzero;fill:rgb(0%,0%,0%);fill-opacity:1;" d="M 75 60 C 75 68.285156 68.285156 75 60 75 C 51.714844 75 45 68.285156 45 60 C 45 51.714844 51.714844 45 60 45 C 68.285156 45 75 51.714844 75 60 Z M 75 60 "/>
</g>
</svg>
