<?xml version="1.0" encoding="UTF-8"?>
<svg xmlns="http://www.w3.org/2000/svg" xmlns:xlink="http://www.w3.org/1999/xlink" width="180pt" height="180pt" viewBox="0 0 180 180" version="1.1">
<g id="surface1">
<path style=" stroke:none;fill-rule:nonzero;fill:rgb(0%,0%,0%);fill-opacity:1;" d="M 157.5 47.25 C 157.5 41.324219 153.972656 35.925781 148.574219 33.527344 L 96.074219 10.199219 C 92.175781 8.472656 87.75 8.472656 83.925781 10.199219 L 31.425781 33.527344 C 26.027344 35.925781 22.5 41.324219 22.5 47.25 L 22.5 82.5 C 22.5 124.125 51.300781 163.050781 90 172.5 C 107.25 168.300781 122.472656 158.25 134.097656 144.675781 L 110.699219 121.277344 C 96.152344 130.949219 76.347656 129.300781 63.527344 116.472656 C 48.902344 101.847656 48.902344 78.074219 63.527344 63.449219 C 78.152344 48.824219 101.925781 48.824219 116.550781 63.449219 C 129.375 76.277344 130.949219 96.074219 121.347656 110.625 L 143.097656 132.375 C 152.175781 117.675781 157.5 100.347656 157.5 82.5 Z M 157.5 47.25 "/>
<path style=" stroke:none;fill-rule:nonzero;fill:rgb(0%,0%,0%);fill-opacity:1;" d="M 112.5 90 C 112.5 102.425781 102.425781 112.5 90 112.5 C 77.574219 112.5 67.5 102.425781 67.5 90 C 67.5 77.574219 77.574219 67.5 90 67.5 C 102.425781 67.5 112.5 77.574219 112.5 90 Z M 112.5 90 "/>
</g>
</svg>
