<?xml version="1.0" encoding="UTF-8"?>
<svg xmlns="http://www.w3.org/2000/svg" xmlns:xlink="http://www.w3.org/1999/xlink" width="180pt" height="180pt" viewBox="0 0 180 180" version="1.1">
<g id="surface1">
<path style=" stroke:none;fill-rule:nonzero;fill:rgb(0%,0%,0%);fill-opacity:1;" d="M 150 30 L 30 30 C 21.75 30 15.074219 36.75 15.074219 45 L 15 135 C 15 143.25 21.75 150 30 150 L 150 150 C 158.25 150 165 143.25 165 135 L 165 45 C 165 36.75 158.25 30 150 30 Z M 112.5 135 L 30 135 L 30 105 L 112.5 105 Z M 112.5 97.5 L 30 97.5 L 30 67.5 L 112.5 67.5 Z M 150 135 L 120 135 L 120 67.5 L 150 67.5 Z M 150 135 "/>
</g>
</svg>
