<?xml version="1.0" encoding="UTF-8"?>
<svg xmlns="http://www.w3.org/2000/svg" xmlns:xlink="http://www.w3.org/1999/xlink" width="128pt" height="128pt" viewBox="0 0 128 128" version="1.1">
<g id="surface1">
<path style=" stroke:none;fill-rule:nonzero;fill:rgb(0%,0%,0%);fill-opacity:1;" d="M 106.667969 21.332031 L 21.332031 21.332031 C 15.464844 21.332031 10.71875 26.132812 10.71875 32 L 10.667969 96 C 10.667969 101.867188 15.464844 106.667969 21.332031 106.667969 L 106.667969 106.667969 C 112.535156 106.667969 117.332031 101.867188 117.332031 96 L 117.332031 32 C 117.332031 26.132812 112.535156 21.332031 106.667969 21.332031 Z M 80 96 L 21.332031 96 L 21.332031 74.667969 L 80 74.667969 Z M 80 69.332031 L 21.332031 69.332031 L 21.332031 48 L 80 48 Z M 106.667969 96 L 85.332031 96 L 85.332031 48 L 106.667969 48 Z M 106.667969 96 "/>
</g>
</svg>
