<?xml version="1.0" encoding="UTF-8"?>
<svg xmlns="http://www.w3.org/2000/svg" xmlns:xlink="http://www.w3.org/1999/xlink" width="120pt" height="120pt" viewBox="0 0 120 120" version="1.1">
<g id="surface1">
<path style=" stroke:none;fill-rule:nonzero;fill:rgb(0%,0%,0%);fill-opacity:1;" d="M 105 25 C 99.449219 23.25 93.351562 22.5 87.5 22.5 C 77.75 22.5 67.25 24.5 60 30 C 52.75 24.5 42.25 22.5 32.5 22.5 C 22.75 22.5 12.25 24.5 5 30 L 5 103.25 C 5 104.5 6.25 105.75 7.5 105.75 C 8 105.75 8.25 105.5 8.75 105.5 C 15.5 102.25 25.25 100 32.5 100 C 42.25 100 52.75 102 60 107.5 C 66.75 103.25 79 100 87.5 100 C 95.75 100 104.25 101.5 111.25 105.25 C 111.75 105.5 112 105.5 112.5 105.5 C 113.75 105.5 115 104.25 115 103 L 115 30 C 112 27.75 108.75 26.25 105 25 Z M 105 92.5 C 99.5 90.75 93.5 90 87.5 90 C 79 90 66.75 93.25 60 97.5 L 60 40 C 66.75 35.75 79 32.5 87.5 32.5 C 93.5 32.5 99.5 33.25 105 35 Z M 105 92.5 "/>
<path style=" stroke:none;fill-rule:nonzero;fill:rgb(0%,0%,0%);fill-opacity:1;" d="M 87.5 52.5 C 91.898438 52.5 96.148438 52.949219 100 53.800781 L 100 46.199219 C 96.050781 45.449219 91.800781 45 87.5 45 C 79 45 71.300781 46.449219 65 49.148438 L 65 57.449219 C 70.648438 54.25 78.5 52.5 87.5 52.5 Z M 87.5 52.5 "/>
<path style=" stroke:none;fill-rule:nonzero;fill:rgb(0%,0%,0%);fill-opacity:1;" d="M 65 62.449219 L 65 70.75 C 70.648438 67.550781 78.5 65.800781 87.5 65.800781 C 91.898438 65.800781 96.148438 66.25 100 67.101562 L 100 59.5 C 96.050781 58.75 91.800781 58.300781 87.5 58.300781 C 79 58.300781 71.300781 59.800781 65 62.449219 Z M 65 62.449219 "/>
<path style=" stroke:none;fill-rule:nonzero;fill:rgb(0%,0%,0%);fill-opacity:1;" d="M 87.5 71.648438 C 79 71.648438 71.300781 73.101562 65 75.800781 L 65 84.101562 C 70.648438 80.898438 78.5 79.148438 87.5 79.148438 C 91.898438 79.148438 96.148438 79.601562 100 80.449219 L 100 72.851562 C 96.050781 72.050781 91.800781 71.648438 87.5 71.648438 Z M 87.5 71.648438 "/>
</g>
</svg>
