<?xml version="1.0" encoding="UTF-8"?>
<svg xmlns="http://www.w3.org/2000/svg" xmlns:xlink="http://www.w3.org/1999/xlink" width="180pt" height="180pt" viewBox="0 0 180 180" version="1.1">
<g id="surface1">
<path style=" stroke:none;fill-rule:nonzero;fill:rgb(0%,0%,0%);fill-opacity:1;" d="M 157.5 37.5 C 149.175781 34.875 140.027344 33.75 131.25 33.75 C 116.625 33.75 100.875 36.75 90 45 C 79.125 36.75 63.375 33.75 48.75 33.75 C 34.125 33.75 18.375 36.75 7.5 45 L 7.5 154.875 C 7.5 156.75 9.375 158.625 11.25 158.625 C 12 158.625 12.375 158.25 13.125 158.25 C 23.25 153.375 37.875 150 48.75 150 C 63.375 150 79.125 153 90 161.25 C 100.125 154.875 118.5 150 131.25 150 C 143.625 150 156.375 152.25 166.875 157.875 C 167.625 158.25 168 158.25 168.75 158.25 C 170.625 158.25 172.5 156.375 172.5 154.5 L 172.5 45 C 168 41.625 163.125 39.375 157.5 37.5 Z M 157.5 138.75 C 149.25 136.125 140.25 135 131.25 135 C 118.5 135 100.125 139.875 90 146.25 L 90 60 C 100.125 53.625 118.5 48.75 131.25 48.75 C 140.25 48.75 149.25 49.875 157.5 52.5 Z M 157.5 138.75 "/>
<path style=" stroke:none;fill-rule:nonzero;fill:rgb(0%,0%,0%);fill-opacity:1;" d="M 131.25 78.75 C 137.847656 78.75 144.222656 79.425781 150 80.699219 L 150 69.300781 C 144.074219 68.175781 137.699219 67.5 131.25 67.5 C 118.5 67.5 106.949219 69.675781 97.5 73.722656 L 97.5 86.175781 C 105.972656 81.375 117.75 78.75 131.25 78.75 Z M 131.25 78.75 "/>
<path style=" stroke:none;fill-rule:nonzero;fill:rgb(0%,0%,0%);fill-opacity:1;" d="M 97.5 93.675781 L 97.5 106.125 C 105.972656 101.324219 117.75 98.699219 131.25 98.699219 C 137.847656 98.699219 144.222656 99.375 150 100.652344 L 150 89.25 C 144.074219 88.125 137.699219 87.449219 131.25 87.449219 C 118.5 87.449219 106.949219 89.699219 97.5 93.675781 Z M 97.5 93.675781 "/>
<path style=" stroke:none;fill-rule:nonzero;fill:rgb(0%,0%,0%);fill-opacity:1;" d="M 131.25 107.472656 C 118.5 107.472656 106.949219 109.652344 97.5 113.699219 L 97.5 126.152344 C 105.972656 121.347656 117.75 118.722656 131.25 118.722656 C 137.847656 118.722656 144.222656 119.402344 150 120.675781 L 150 109.277344 C 144.074219 108.074219 137.699219 107.472656 131.25 107.472656 Z M 131.25 107.472656 "/>
</g>
</svg>
