<svg xmlns="http://www.w3.org/2000/svg" xmlns:xlink="http://www.w3.org/1999/xlink" viewBox="0 0 293.4 361.46"><defs><style>.cls-1{isolation:isolate;}.cls-2{fill:#bf7631;}.cls-3{fill:#a1652a;}.cls-4{fill:#f2b562;}.cls-5{fill:#a7a9ac;}.cls-6{fill:#f26238;}.cls-7{fill:#eb592b;}.cls-8{fill:#f1f2f2;}.cls-9{fill:#e6e6e5;}.cls-10{fill:none;stroke:#71646a;stroke-miterlimit:10;stroke-width:0.71px;}.cls-11{fill:#71646a;}.cls-12,.cls-55{fill:#fdc68b;}.cls-13{fill:#ce9228;}.cls-14{fill:#1c75bc;}.cls-15{fill:#fff;}.cls-16{fill:#231f20;}.cls-17{fill:#f05137;}.cls-18,.cls-27,.cls-40,.cls-41,.cls-47,.cls-48,.cls-51{fill:#8e3b1e;}.cls-19{fill:#006f81;}.cls-20{fill:#c2b59b;}.cls-21{fill:#e1f4fd;}.cls-22{fill:#46a748;}.cls-23{fill:#c9d9e1;}.cls-24{fill:#e4f5fd;}.cls-25{fill:#81be41;}.cls-26{fill:#d7c387;}.cls-27{fill-rule:evenodd;}.cls-28{fill:#6d6e71;}.cls-29{fill:#fbb885;}.cls-30{fill:#c0d9e6;}.cls-31{fill:#223842;}.cls-32{fill:#92a5b0;}.cls-33{fill:#c8dce6;}.cls-34{fill:#eef3f6;}.cls-35{fill:#ffdc8f;}.cls-36{fill:#f6cb7f;}.cls-37{fill:#414042;}.cls-38{fill:#b1c3cb;}.cls-39{fill:#a9bfcb;}.cls-40,.cls-41,.cls-44{opacity:0.3;}.cls-40,.cls-44,.cls-48{mix-blend-mode:screen;}.cls-41,.cls-45,.cls-46,.cls-47,.cls-51,.cls-56{mix-blend-mode:multiply;}.cls-42{fill:#5f0b0c;}.cls-43{fill:#4d1310;}.cls-44{fill:#6a110e;}.cls-45,.cls-46,.cls-48,.cls-55{opacity:0.2;}.cls-45{fill:url(#radial-gradient);}.cls-46{fill:url(#radial-gradient-2);}.cls-49{fill:#4d1b0e;}.cls-50{fill:#28110c;}.cls-51{opacity:0.6;}.cls-52{font-size:10.86px;fill:#006838;font-family:Amatic-Bold, Amatic Bold;font-weight:700;}.cls-53{fill:#fcbf95;}.cls-54{fill:#c49a6c;}.cls-56{fill:#8b5e3c;opacity:0.8;}.cls-57{fill:url(#New_Gradient_Swatch_13);}.cls-58{fill:url(#New_Gradient_Swatch_13-2);}.cls-59{fill:url(#New_Gradient_Swatch_13-3);}.cls-60{fill:url(#New_Gradient_Swatch_13-4);}.cls-61{fill:#2b3990;}</style><radialGradient id="radial-gradient" cx="-925.52" cy="111.44" r="7.9" gradientTransform="translate(973.25 59.48) rotate(6.27) scale(0.96)" gradientUnits="userSpaceOnUse"><stop offset="0" stop-color="#c92127"/><stop offset="0.93" stop-color="#fff"/></radialGradient><radialGradient id="radial-gradient-2" cx="-950.05" cy="117.62" r="7.9" xlink:href="#radial-gradient"/><linearGradient id="New_Gradient_Swatch_13" x1="564.77" y1="179.46" x2="568.41" y2="179.46" gradientTransform="matrix(-1, 0.01, 0.01, 1, 725.14, -30.23)" gradientUnits="userSpaceOnUse"><stop offset="0.01" stop-color="#47251a"/><stop offset="0.4" stop-color="#412118"/><stop offset="0.94" stop-color="#301612"/><stop offset="1" stop-color="#2d1411"/></linearGradient><linearGradient id="New_Gradient_Swatch_13-2" x1="560.52" y1="179.1" x2="568.95" y2="179.1" xlink:href="#New_Gradient_Swatch_13"/><linearGradient id="New_Gradient_Swatch_13-3" x1="545.6" y1="174.73" x2="549.32" y2="174.73" xlink:href="#New_Gradient_Swatch_13"/><linearGradient id="New_Gradient_Swatch_13-4" x1="541.58" y1="174.22" x2="549.51" y2="174.22" xlink:href="#New_Gradient_Swatch_13"/></defs><g class="cls-1"><g id="Layer_2" data-name="Layer 2"><g id="Layer_1-2" data-name="Layer 1"><path class="cls-2" d="M293.4,219.26v-4.55a3.9,3.9,0,0,0-3.9-3.89H60.36a3.89,3.89,0,0,0-3.89,3.89v4.55a3.83,3.83,0,0,0,.13,1H293.27A3.83,3.83,0,0,0,293.4,219.26Z"/><path class="cls-3" d="M56.6,220.22a3.88,3.88,0,0,0,3.76,2.93H289.5a3.9,3.9,0,0,0,3.77-2.93Z"/><path class="cls-4" d="M258.86,136.8h-9a.67.67,0,0,0-.75.76v7.94A24.69,24.69,0,0,0,251.4,154a16.14,16.14,0,0,1,1.45,6.45l-.18,7.72-.5,22.12a2.21,2.21,0,0,0,4.41,0l-.5-22.12-.17-7.72a16.14,16.14,0,0,1,1.45-6.45,24.93,24.93,0,0,0,2.26-8.46v-7.94A.67.67,0,0,0,258.86,136.8Zm-6.26,12a.41.41,0,0,1-.41.41.41.41,0,0,1-.41-.41v-8.11a.41.41,0,0,1,.41-.41.41.41,0,0,1,.41.41Zm4.38,0a.41.41,0,0,1-.41.41.41.41,0,0,1-.41-.41v-8.11a.41.41,0,0,1,.41-.41.41.41,0,0,1,.41.41Z"/><path class="cls-4" d="M271.16,140.22a22.9,22.9,0,0,0-3.9-.61c-2.79-.11-5.79.85-6.59,5.89l-.09.48h0a24,24,0,0,0,.39,9.51,16.09,16.09,0,0,1,.13,6.61l-1.73,7.53-4.94,21.57a2.22,2.22,0,0,0,4.33.89l3.95-21.78,1.38-7.6a16.14,16.14,0,0,1,2.72-6,26.57,26.57,0,0,0,4.84-8.22S274.55,140.91,271.16,140.22Zm-5.76,8.47A2.17,2.17,0,1,1,268,147,2.17,2.17,0,0,1,265.4,148.69Z"/><path class="cls-5" d="M246.6,170.46,243,172.19l-.12-.25c-2.36-4.88-9.49-11.4-9.56-11.47-7-6.42-10.19-12.13-9.56-17A7.83,7.83,0,0,1,236,137.58c4.19,2.5,6.68,8.56,7.4,18,0,.1.71,9.74,3.07,14.61Zm-3.33,1,2.56-1.24c-2.31-5-3-14.17-3-14.56-.71-9.25-3.1-15.16-7.12-17.56a7.25,7.25,0,0,0-11.37,5.52c-.6,4.64,2.55,10.18,9.37,16.46C234,160.31,240.76,166.5,243.27,171.43Z"/><path class="cls-5" d="M246.06,170.71l-2.52,1.22-.12-.25c-2.37-4.89-8.39-12-8.45-12-8.51-10-9.61-15.89-9-19a3.95,3.95,0,0,1,6.45-3.13c2.82,1.49,6.73,6,9.34,18.87,0,.09,1.84,9.21,4.21,14.1Zm-2.25.46,1.49-.72c-2.34-5-4.12-13.89-4.13-14-2.57-12.68-6.34-17-9-18.47a3.4,3.4,0,0,0-5.62,2.75c-.55,3,.56,8.67,8.9,18.52C235.46,159.34,241.33,166.23,243.81,171.17Z"/><path class="cls-5" d="M245.54,171l-1.47.71-.12-.26c-2.38-4.9-7.31-12.54-7.36-12.61-8.82-13.7-9.44-18.88-9-20.75a1.59,1.59,0,0,1,.57-1.05,1.51,1.51,0,0,1,1.23.17c1.73.83,5.41,4.53,10.7,19.94,0,.09,3,8.69,5.34,13.59Zm-1.2-.06.43-.21c-2.37-5-5.22-13.3-5.24-13.39-6.7-19.52-10.67-19.82-11.11-19.79-.28.3-2.55,3.59,8.66,21C237.12,158.57,241.9,166,244.34,170.91Z"/><path class="cls-5" d="M252.06,184.13l-5.59-11.53.24-.12a1.33,1.33,0,0,0-1.16-2.4l-2.18,1.06a1.33,1.33,0,1,0,1.16,2.4l.24-.12L250.36,185s-.08,9.74,4.65,7.44S252.06,184.13,252.06,184.13Z"/><path class="cls-6" d="M258.75,200.77V166.64h-22v36.82a7.22,7.22,0,0,0,.86,3.44h14.71C259.06,206.9,258.75,200.77,258.75,200.77Z"/><path class="cls-7" d="M258.75,166.64v34.13s.31,6.13-6.43,6.13H237.61a7.31,7.31,0,0,0,6.46,3.88h12.2a7.32,7.32,0,0,0,7.32-7.32V166.64Z"/><polygon class="cls-8" points="60.36 224.81 60.36 332.8 289.2 332.8 289.2 225.89 60.36 224.81"/><polygon class="cls-9" points="289.2 223.15 60.36 223.15 60.36 224.81 289.2 225.89 289.2 223.15"/><line class="cls-10" x1="60.36" y1="247.47" x2="174.78" y2="247.47"/><line class="cls-10" x1="60.36" y1="276.42" x2="174.78" y2="276.42"/><line class="cls-10" x1="60.36" y1="305.37" x2="174.78" y2="305.37"/><line class="cls-10" x1="174.93" y1="221.6" x2="174.93" y2="332.8"/><line class="cls-10" x1="232.45" y1="221.6" x2="232.45" y2="332.8"/><path class="cls-11" d="M97.38,235.22a1.45,1.45,0,0,0,1.46,1.45h16.64a1.46,1.46,0,0,1,0-2.91H98.84A1.46,1.46,0,0,0,97.38,235.22Z"/><path class="cls-11" d="M114,235.22a1.45,1.45,0,0,0,1.45,1.45h20.83a1.46,1.46,0,1,0,0-2.91H115.48A1.46,1.46,0,0,0,114,235.22Z"/><path class="cls-11" d="M223.69,296.61a1.45,1.45,0,0,0,1.46-1.45V278.51a1.46,1.46,0,1,1-2.91,0v16.65A1.45,1.45,0,0,0,223.69,296.61Z"/><path class="cls-11" d="M223.69,280a1.46,1.46,0,0,0,1.46-1.46V257.69a1.46,1.46,0,1,0-2.91,0v20.82A1.45,1.45,0,0,0,223.69,280Z"/><path class="cls-11" d="M241.16,296.61a1.45,1.45,0,0,0,1.45-1.45V278.51a1.46,1.46,0,1,1-2.91,0v16.65A1.46,1.46,0,0,0,241.16,296.61Z"/><path class="cls-11" d="M241.16,280a1.45,1.45,0,0,0,1.45-1.46V257.69a1.46,1.46,0,1,0-2.91,0v20.82A1.46,1.46,0,0,0,241.16,280Z"/><path class="cls-11" d="M97.38,261.76a1.46,1.46,0,0,0,1.46,1.46h16.64a1.46,1.46,0,0,1,0-2.91H98.84A1.45,1.45,0,0,0,97.38,261.76Z"/><path class="cls-11" d="M114,261.76a1.45,1.45,0,0,0,1.45,1.46h20.83a1.46,1.46,0,1,0,0-2.91H115.48A1.45,1.45,0,0,0,114,261.76Z"/><path class="cls-11" d="M97.38,291.22a1.45,1.45,0,0,0,1.46,1.45h16.64a1.46,1.46,0,0,1,0-2.91H98.84A1.46,1.46,0,0,0,97.38,291.22Z"/><path class="cls-11" d="M114,291.22a1.45,1.45,0,0,0,1.45,1.45h20.83a1.46,1.46,0,1,0,0-2.91H115.48A1.45,1.45,0,0,0,114,291.22Z"/><path class="cls-11" d="M97.38,319.09a1.45,1.45,0,0,0,1.46,1.45h16.64a1.46,1.46,0,0,1,0-2.91H98.84A1.46,1.46,0,0,0,97.38,319.09Z"/><path class="cls-11" d="M114,319.09a1.45,1.45,0,0,0,1.45,1.45h20.83a1.46,1.46,0,1,0,0-2.91H115.48A1.45,1.45,0,0,0,114,319.09Z"/><path class="cls-12" d="M174.08,234.58a62.32,62.32,0,0,1,9.94,15.2,64,64,0,0,1,3.85,12.41c-.12,1.12-.13,1.37-.18,2.57l1.82,37.37.75,51.11-6,1.2-6.8-51.69L170.22,260c-1.21-3.42-2.84-3.37-2.84-3.37l-.16-19C170.56,237.25,170.82,235.5,174.08,234.58Z"/><path class="cls-12" d="M163.73,234.17c1.92.5,1.68-1.88,3.61-1.76,1.31.08.45,5,1.74,4.82l.84,17.18a9.3,9.3,0,0,0-2.24,5l-.38,46.09-2.6,48.35-5.44-.43L156,305.31,153.18,272c-.37-2-1-8-1.05-9.59a49.65,49.65,0,0,1,1.57-12.58C154.76,245.3,162.05,237.93,163.73,234.17Z"/><path class="cls-13" d="M157.36,336.28c-1-.34-2.47-5.6-4.25-15.23s-5.17-58.48-4.41-62.33c.42-2.18.86-18.94,12.27-16.78,3.9.73,7,15.41,7.83,15.93,1.82,1.21,4.79,15.28,3.64,24.65s-2.08,52.08-5.75,53.51A15.55,15.55,0,0,1,157.36,336.28Z"/><path class="cls-13" d="M191.51,336.46c.93-.4,3.34-8.29,3.6-18s-3.1-57.21-4.15-61c-8.18-29.82-25-20.54-26.52-19.22s4.8,35.45,7.28,44.71,6.19,52.28,9.88,53.47A18.36,18.36,0,0,0,191.51,336.46Z"/><path class="cls-14" d="M164.72,351.12c-3.26.61-6.47,2.27-9.83,1.56a84.22,84.22,0,0,1-10,4.38l-1.19,3s7.24,2,9.14,1.24,12.7-5.16,12.7-5.16a15.39,15.39,0,0,0,0-2.73A5.15,5.15,0,0,0,164.72,351.12Z"/><path class="cls-14" d="M199.65,357.87s-6.78-3.79-9.6-5.43a13.55,13.55,0,0,1-4.6.62c-.42,0-1.67-1-2-1.08-.28,1.49-.75,4.27-.75,4.27s6.07,4.56,7.89,5S200,360,200,360Z"/><path class="cls-14" d="M186.32,353.87c-.1-.2-1.58-2.77-.25-3.25s5.27-1,5.66-.73,0,3.36,0,3.36S186.58,354.41,186.32,353.87Z"/><path class="cls-14" d="M156.27,352.82c-.08-.23-1.35-3.17.18-3.57s4.84-.29,5.24.05-.49,3.66-.49,3.66S156.48,353.43,156.27,352.82Z"/><path class="cls-15" d="M156.14,356.28a5.86,5.86,0,0,0-4.25-2.12,5.59,5.59,0,0,0-1.61.25.49.49,0,0,0-.33.62l0,0a6.15,6.15,0,0,1,.87-.06l1.34.15h0l.1,0a4.83,4.83,0,0,1,2.72,1.42,1.91,1.91,0,0,1,.22.25h0a.57.57,0,0,0,.44.2.55.55,0,0,0,.3-.09A.46.46,0,0,0,156.14,356.28Z"/><path class="cls-15" d="M159.07,355a5.79,5.79,0,0,0-4.25-2.12,5.21,5.21,0,0,0-1.6.25.47.47,0,0,0-.33.62v0a6.25,6.25,0,0,1,.87-.07l1.35.15h0l.1,0a4.77,4.77,0,0,1,2.72,1.42,3.07,3.07,0,0,1,.23.25h0a.52.52,0,0,0,.43.21.61.61,0,0,0,.31-.09A.47.47,0,0,0,159.07,355Z"/><path class="cls-15" d="M189.45,356.49a5.52,5.52,0,0,1,4.06-1.93,5,5,0,0,1,1.52.25.44.44,0,0,1,.31.57l0,0a7.33,7.33,0,0,0-.83-.07l-1.27.13h0l-.09,0a4.54,4.54,0,0,0-2.6,1.29l-.22.23h0a.5.5,0,0,1-.41.19.6.6,0,0,1-.29-.08A.42.42,0,0,1,189.45,356.49Z"/><path class="cls-15" d="M186.91,355.05a5.57,5.57,0,0,1,4.06-1.92,5,5,0,0,1,1.52.25.44.44,0,0,1,.31.57s0,0,0,0a5.69,5.69,0,0,0-.83-.07l-1.28.13h0l-.1,0a4.54,4.54,0,0,0-2.6,1.29l-.22.23h0a.5.5,0,0,1-.41.19.52.52,0,0,1-.29-.09A.42.42,0,0,1,186.91,355.05Z"/><path class="cls-16" d="M104,67.48c2.86.59,2.78-5.74-.76-4.78a2.17,2.17,0,0,1-.56.2,3.44,3.44,0,0,1,.56-.2c2.2-1.18,0-6.15-3.45-4.09,2.22-3.13-4.65-4.14-4-.82-.76-2-3.52-.41-4.55.54.77-4.61-6.18-2.13-8.18-1.45-3.51-6.64-12.1-6.13-17.82-3.77-2.09.86-1.57.85-3.4-.18-2.67-1.52-5.25-2.48-8.36-2-2.55.38-5.4,2.25-7.57,3.54-.86.52-1.42,1.3-2.22,1.82a5,5,0,0,1,.08.71v.6c-.25-.21-.45-.71-.7-1a2.69,2.69,0,0,0,.63-.33c-.81-4.35-8.42.23-5.31,2.49-1.44.44-4.83,4.41-1.77,4.78-3.44-.56-4.73,5-1,5.61-4.35,2.17.37,7.94,1.78,5-.46,3.77,2.2,4.79,4.87,3a5.82,5.82,0,0,0,1.73,3c.94.68,1.59.17,2.32.43s2.75,2.48,3.31.25c1.16,1.89,2.22-.27,2.91-1.39,2.79,3.59,7.73,2.43,10.64-.57-1.5,2.92,4.22,2.08,5.16.21,2.53,2.06,4.94,2.71,7.15-.32-.22,2.9,3.81,2,4.46.45a2.53,2.53,0,0,1,0-.88,1.08,1.08,0,0,1,0,.88c.43,2.18,4.1.68,5-.46.67,2.19,3.34,1.87,4.6.51.62,1.9,2.79,2.38,4.5,2.15,2.54-.33,2.6-1.71,2.51-4.13,2.27,2.6,7.15-2.38,5.89-3.72a3.87,3.87,0,0,1-.48-.27.93.93,0,0,1,.48.27c2.15,1,3.9-1.33,3.85-3.48S106,67.82,104,67.48Z"/><path class="cls-17" d="M98.86,108.21s31.28,38.65,32.49,41.22a7.57,7.57,0,0,1-.72,8.24c-3.36,5-10.32,1.75-10.32,1.75s-30.84-26.7-35.4-30.28S85.72,101.76,98.86,108.21Z"/><path class="cls-18" d="M131.19,76.15l-1.88.3-.24,10.23-1,10.46L123,88.89l-1.56.86,4.22,11.34s2.34,4.64,4.19,6.07l4.76.84,1.68-.56c3.91-3.64,5.56-16.21,5.33-16.84a6.87,6.87,0,0,0-1.67-1.79l-1.18.81.18-1.35-1.69-1.12-1.41,1.15.21-2-2.28-1-1,4.65Z"/><path class="cls-18" d="M138.8,98.48c-1.41-.73-1.15-1.25-1.85-2.47a2.73,2.73,0,0,1-.83,1.52c-1.25-.65-1.7-1.08-1.79-2.5-.18.33-.38.67-.59,1a7,7,0,0,1-1.41-1c.15-.88.09-1.84.19-2.76,0-.31.1-.66.14-1q-1,2.7-2.15,5.38a24.61,24.61,0,0,1,3.5,4.83c.19.31.35.64.51,1a16.92,16.92,0,0,1,4.58-.68h.42c.78-3.18,1.59-7.27,1.92-9.53-.58,1-1,2.19-1.43,3.21A13.68,13.68,0,0,0,138.8,98.48Z"/><path class="cls-18" d="M130.45,103.4l-8.76,38-2.46,12s4.83,4.36,9,4.7c2,.16,5.45-8.71,5.72-12.07l3-42C134.47,104.54,132.8,104.92,130.45,103.4Z"/><path class="cls-17" d="M122.62,135.06l-1.52,6.11-2.88,12.56s6.22,6.23,10.38,5.43c3.42-.66,5.45-10.49,5.72-13.85l.54-7.84A27.16,27.16,0,0,1,122.62,135.06Z"/><path class="cls-17" d="M53,115.2c-.16-1-1.44-20-9.85-13s-19.46,48.54-19.46,48.54l-7.17-5.16-6.29,4.2s6.49,22.59,13.7,26.43,17.78-14.9,23.31-25.95S53.29,116.64,53,115.2Z"/><path class="cls-19" d="M58.63,186.19c7.48-2.86,17,3.92,18.81,9.48l.19,148.86H71.79L51.65,215.2S45.32,191.26,58.63,186.19Z"/><path class="cls-18" d="M74.94,343.63c-.36,0-1,0-1.65-.09a9.05,9.05,0,0,1-2-.31c-4.86,2.55-27.77,13.55-27.77,13.55s-.27,3.11.42,3c1.11-.17,11.19-.38,12.14-.66,10.74-3.32,22.23-8.25,22.23-8.25l-.65-7.24A15.34,15.34,0,0,1,74.94,343.63Z"/><path class="cls-20" d="M52.36,352.65a17.3,17.3,0,0,0,7.32.24C66,351.72,72.16,349,77.9,346.12l.44,4.89s-11.71,5-22.45,8.33c-1,.29-11,.49-12.14.66-.69.12-.43-3-.43-3Z"/><path class="cls-19" d="M93.09,185.71c-7.62-2.48-16.82,4.78-18.31,10.42l7.36,148.68,5.84-.29,13.55-130.19S106.64,190.1,93.09,185.71Z"/><path class="cls-18" d="M116.84,355.31s-24.27-10.17-28.65-12.24a17.56,17.56,0,0,1-6.09.16l-.3,7.94s11.71,4.33,22.61,7.1c1,.24,11-.07,12.16.06C117.27,358.4,116.84,355.31,116.84,355.31Z"/><path class="cls-20" d="M107.79,351.64a17.4,17.4,0,0,1-7.29.61c-6.36-.85-12.74-3.34-18.62-5.9l-.19,4.91s12,4.46,22.92,7.23c1,.24,11-.07,12.15.05.7.08.27-3,.27-3Z"/><path class="cls-17" d="M42.47,133.25c.44-1,10.64-28.74,5.63-27.56S21.41,131.49,19,135.05c-7,10.46-7.44,9.46-8.81,14.15C8.54,155,24,160.29,27.08,155.78,31.41,149.5,40.26,138.57,42.47,133.25Z"/><path class="cls-17" d="M42.71,160.61c-.19,1.51-3.36,14.75-4.56,29.56,4.32,1.68,13.62,2.12,20.06,2.25,18.38.39,45.78-1.85,47.7-5.86-1.29-11.86-5.82-22.09-5.77-23.55,1.2-38.2,1.26-52.4-1-54.66-.93-.93-9.16-6.46-19-9-2.87-.75-16.72-.34-20.48.94s-11.78,4.5-15.46,8.26-3.13,4.65-2.4,25.89C42,141.39,43.24,156.5,42.71,160.61Z"/><path class="cls-18" d="M62.9,106.78c3.38,1.76,8.12,3.56,12,2.78,4.66-1,8.71-4.26,11.76-8.09-2.15-1.06-8-2.52-10.32-3.13a22.38,22.38,0,0,0-11.53.16c-1.22.42-5.28,1.58-7.66,2.61.65,1.67,2.2,2.89,3.39,4.22A18.07,18.07,0,0,0,62.9,106.78Z"/><path class="cls-21" d="M97,161.91c-.2-.44-1.12-.78-2.59-1,1.67-8.13,4.6-29.77,3.59-32.76-1.2-3.57-44.31-4.6-50.3,1.53-2.57,2.62,1.13,25.48,2.68,32-3.08.39-5.25.82-6,1.27-3.93,2.46-11.43,123-10.81,124.35,2.94,6.39,81.68,5.21,82.45-2.68C117.56,269.32,106.38,182.55,97,161.91Z"/><rect class="cls-15" x="41.5" y="157.54" width="59.46" height="7.37"/><path class="cls-15" d="M45.66,105.08c-1.15-.5,4,23.31,4.58,24.53s8.16-1.26,7.92-2.76-5.62-24.41-6.08-24.78S46.1,105.27,45.66,105.08Z"/><path class="cls-21" d="M96.14,105.89c-.42.75-.61,20.41-1.11,21.68s-8.39-.58-8.29-2.09,2.41-22.45,2.85-22.86S96.37,105.48,96.14,105.89Z"/><polygon class="cls-18" points="78.41 100.13 74.29 70.95 62.51 71.12 64.17 99.95 70.84 105.42 78.41 100.13"/><path class="cls-15" d="M112.75,240.22,71.49,275.3,36,245.42q-.23,3.38-.44,6.6L71.5,282.28l42-35.73C113.28,244.48,113,242.36,112.75,240.22ZM34.27,273.41,55.15,291c2.72.12,5.6.2,8.55.24L34.65,266.77C34.51,269.14,34.38,271.37,34.27,273.41Zm80.78-12.66-35.64,30.3c3-.1,5.89-.25,8.72-.43l27.49-23.36Q115.37,264.17,115.05,260.75Zm-7.37-54.95c-.35-2.06-.71-4.08-1.07-6.08L71.49,229.58,39.27,202.45c-.18,2.13-.37,4.3-.55,6.5L71.5,236.56Zm3.25,20.85c-.3-2.07-.6-4.15-.91-6.22L71.49,253.19l-34-28.63q-.26,3.28-.49,6.56L71.5,260.17ZM80.33,125.19c-2.65-.07-5.43-.08-8.2,0l-.31.26-.3-.25c-2.65.07-5.29.2-7.8.4l8.12,6.83Zm18,7.22a16.23,16.23,0,0,0-.14-4.41c-.13-.37-.72-.72-1.68-1L71.82,147.92,49,128.68a5.12,5.12,0,0,0-1.14.85c-.58.59-.84,2.21-.88,4.42l24.88,21Zm.32,33.14c-.49-1.41-1-2.67-1.46-3.74-.14-.3-.65-.56-1.44-.79L71.49,181.61,48.06,161.88a12,12,0,0,0-3.51.91c-.29.18-.6,1-.91,2.33L71.5,188.59Zm5.16,19.6q-.66-3.06-1.32-5.87L71.49,205.59,41.42,180.27c-.23,2-.45,4.15-.68,6.39L71.5,212.57Z"/><polygon class="cls-22" points="20.76 119.91 15.59 161.33 0.29 109.17 2.76 88.39 20.76 119.91"/><path class="cls-23" d="M1.81,110.42s2-19,2.83-21c.3-.74,12,25.78,13.08,37.88.55,5.87-5.82,13.17-5.82,13.17Z"/><path class="cls-24" d="M2.49,111.38c.88-5.88,4.8-16.35,4.38-21-.07-.86,12,25.77,13.09,37.88.54,5.86-8,13.26-8,13.26Z"/><path class="cls-15" d="M55.86,150.93c-.68-1.64-5.66-54.53-5.66-54.53s-23.11-.22-33.81,5.49c-10.33,5.52-11.65,8.82-11.65,8.82L18.53,160.5Z"/><path class="cls-24" d="M58.78,153.41c-.71-1.64-6.31-55.4-6.31-55.4s-25.22.59-36.76,6.7-12.93,9.62-12.93,9.62l13.85,49.78Z"/><polygon class="cls-22" points="54.29 98.38 62.52 154.01 20.61 163.15 8.02 110.58 54.29 98.38"/><path class="cls-25" d="M8,110.58a16.24,16.24,0,0,1-5.81,1.13C.84,111.64,0,109.05,0,109.05l2.1,9.78,9.78,42.33s1.3,4.89,5.15,3.75,4.9-2.17,4.9-2.17L9,111.06"/><path class="cls-26" d="M19.28,119,50.61,112l1.62,12.42-30.17,6.88Z"/><path class="cls-27" d="M6.92,147.54c-.62-1.19-1.36-3.15-.88-4.08,0,0,2.46-3.35,2.89-3.85s4.86-3.26,5.36-2.05c.73,1.76-2.61,3.09-4.2,5.57a16.37,16.37,0,0,0-1.37,2.75c.8-.64,1.66-1.3,1.91-1.48.52-.36,5.43-1.63,6.08-.52,1.06,1.79-2.58,2.17-4.76,3.7,1.08-.15,5,0,5.51,1.07.95,2-2.88,1.33-5,2.47,1.17-.44,3.83-1.08,4.35-.48.63.75-2.61,2.23-4.17,4.05s-1.83,3.83-2.13,3.68a5.55,5.55,0,0,1-1.56-3.53s0,0,0,0a5.86,5.86,0,0,1-1.12-3.1C7.3,150.78,6.58,148.64,6.92,147.54Z"/><path class="cls-28" d="M149.51,199.29c.31-.74,7.52-20.33,4-19.49S134.61,198,132.93,200.56c-4.93,7.41-5.26,6.69-6.23,10-1.2,4.13,9.73,7.84,11.92,4.65C141.68,210.79,147.94,203.05,149.51,199.29Z"/><path class="cls-28" d="M147.88,219.4c-.14,1.07-.92,8.91-1.77,19.38,4.52.56,10,2.24,14.53,2.37,11.6.34,33-1.41,34.34-4.25-.9-8.39-1.51-16-1.52-17-.39-31.32-1.63-34.75-3.23-36.35-.65-.65-7.11-6.41-14.1-8.22-2-.53-9.15-1.44-11.81-.54s-11,4.39-13.63,7.05-2.79,11.76-3.28,26.79C147.33,210.94,148.35,215.73,147.88,219.4Z"/><path class="cls-29" d="M164,180.56c2.39,1.25,5.75,2.53,8.5,2a14.89,14.89,0,0,0,8.48-5.41,25.9,25.9,0,0,0-4.81-1.83c-2-.53-9.15-1.44-11.81-.54-.86.3-2.34.87-4,1.59a10.33,10.33,0,0,0,2,3.2A12.73,12.73,0,0,0,164,180.56Z"/><path class="cls-28" d="M192.59,203.43c-.4-.69-14.1-24.32-10.4-24.26,8.9.15,17.12,11.54,22.22,17.09,7.23,7.87,9.21,11.88,10.78,15,3.85,7.59-8.14,11.08-10.73,8.18A134.39,134.39,0,0,1,192.59,203.43Z"/><path class="cls-30" d="M191.25,204.14h0C192,205.85,192,205.84,191.25,204.14Z"/><path class="cls-31" d="M155.49,220.56c-.6-.76-4.34-21.7-2.26-23.83,4.24-4.33,34.74-3.61,35.59-1.08s-2.26,23.83-3.11,25.27S156.34,221.65,155.49,220.56Z"/><path class="cls-31" d="M143.26,308.23c-.44-1,4.87-86.23,7.65-88s36.11-3.11,37.2-.7c6.61,14.61,14.52,76,13.48,86.77C201.05,311.91,145.34,312.75,143.26,308.23Z"/><rect class="cls-31" x="147.29" y="216.47" width="46.49" height="5.22"/><path class="cls-32" d="M140.2,199.15c-1.46,4,6,10.4,16.6,14.24s20.44,3.71,21.91-.32-6-10.4-16.61-14.25S141.67,195.12,140.2,199.15Z"/><path class="cls-33" d="M140.24,199.14c1.18-3.25,7.8-4,15.9-2.1l.19.19a13,13,0,0,1,2.54,4.33,16.33,16.33,0,0,1,.43,5.62,18.77,18.77,0,0,1-1.34,6.6l-1.12-.39C146.21,209.54,138.77,203.16,140.24,199.14Z"/><path class="cls-34" d="M150.61,197.57a3.15,3.15,0,0,0-2-.78c-1.71-.06-3.11.07-3.76,1.42a26.06,26.06,0,0,0,1.91,7.32,32.49,32.49,0,0,0,2,4.45c1,.57,2,1.12,3.1,1.65,0-.13,0-.25-.07-.37C151,207,150.08,202.11,150.61,197.57Z"/><path class="cls-35" d="M168.27,211.36a38.75,38.75,0,0,0-11-6,36.6,36.6,0,0,0-11.93-1.94,21.49,21.49,0,0,0-3.32.24c2.66,3.28,7.9,6.89,14.74,9.38a42.08,42.08,0,0,0,15.38,2.69A21.5,21.5,0,0,0,168.27,211.36Z"/><path class="cls-36" d="M148.8,204.23c1.86,1.42,3.28,3.74,5.29,4.88s5.58,2.12,7.81,1a3.76,3.76,0,0,0,1.86-1.73,36.42,36.42,0,0,0-6.51-3,35.55,35.55,0,0,0-9.51-1.86A8.13,8.13,0,0,1,148.8,204.23Z"/><path class="cls-31" d="M151.77,179.36c-.82-.35,2.81,16.49,3.23,17.36s5.77-.9,5.61-2-4-17.27-4.3-17.53S152.08,179.49,151.77,179.36Z"/><path class="cls-31" d="M187.61,178.7c-.3.53-.57,15.68-.92,16.58s-5.94-.42-5.86-1.49,1.66-16.33,2-16.62S187.78,178.41,187.61,178.7Z"/><path class="cls-37" d="M201.9,214.72c-.24.18-7.45,2.11-8.19,1.47s.91-7.72,3.95-12.18c1.54-2.26,4.39-6.15,5.13-.83S203,213.88,201.9,214.72Z"/><path class="cls-29" d="M208.43,204.62,189.22,196c-1.58.45-1.73,3.7-1,4.26L202,213.21c3.34,2.62,10.23,6.36,11.86,2.9C216.17,211.2,208.43,204.62,208.43,204.62Z"/><path class="cls-28" d="M193.77,216.33c1.69-1.53,6.35-9.05,7.17-11.11a10.24,10.24,0,0,0,.69-4.72l8.32,4.37s7.49,7.16,5.23,11.79c-1.59,3.26-5.92,5.09-14.23,2.69Z"/><path class="cls-29" d="M188.52,197.15a19.14,19.14,0,0,0-2.72-.9c-.46,0-3.86-.34-4.08,0-.38.56-.68,1.47,1.24,1.81l4.54.79S190,197.38,188.52,197.15Z"/><path class="cls-38" d="M171.33,202.49v0l0-.22.33-.63a1.55,1.55,0,0,0-.29,0c-.5,0-3.53.7-5.33.9-2.68.28-6.39.73-9.53,1.16-1.57.21-3,.42-4.09.61-.54.09-1,.18-1.37.26l-.47.11a2.24,2.24,0,0,0-.41.17c-.71.42-2.91,1.58-3.19,3.76a4.09,4.09,0,0,0,.44,2.32c.86,1.76,3.05,2.56,5.36,2.59h0a11.42,11.42,0,0,0,6.41-1.81c3.38-2.3,12.86-8.39,12.86-8.39Zm-22,8.09a.31.31,0,0,1-.09-.26,1.52,1.52,0,0,1,.51-.76,12.94,12.94,0,0,1,3.72-2.2c1-.32,5-1.2,8.67-2l3.93-.83-2.7,1.24c-3.2,1.46-6.72,3-7.79,3.43a18.53,18.53,0,0,1-5.69,1.47A.92.92,0,0,1,149.31,210.58Zm-1-2c.19-1.55,1.8-2.47,2.57-2.92a9.74,9.74,0,0,1,1-.22c2-.37,6.11-.93,9.88-1.39l3.22-.37-3.11.69c-3.73.8-7.59,1.64-8.81,2a14.82,14.82,0,0,0-2.83,1.41,9.28,9.28,0,0,0-1.5,1.15,4.86,4.86,0,0,0-.38.41A3,3,0,0,1,148.34,208.55Zm10.12,2.28a9.91,9.91,0,0,1-5.47,1.54,6.67,6.67,0,0,1-2.86-.62,21.79,21.79,0,0,0,5.9-1.56c1.2-.45,4.67-2,7.89-3.48l1.21-.54C162.8,207.81,160.1,209.71,158.46,210.83Z"/><path class="cls-32" d="M171.33,202.49v0l0-.22.33-.63a1.55,1.55,0,0,0-.29,0l-.45.05c-2.09,3.77-6.57,6.84-11.07,8.23l-1.44,1a9.91,9.91,0,0,1-5.47,1.54,6.67,6.67,0,0,1-2.86-.62,18.26,18.26,0,0,0,4.67-1.12,11.76,11.76,0,0,1-2.57-.33,8.85,8.85,0,0,1-2.36.39.92.92,0,0,1-.56-.11.31.31,0,0,1-.09-.26,1.52,1.52,0,0,1,.51-.76l.2-.18a5.34,5.34,0,0,1-.91-.72l-.28.26a4.86,4.86,0,0,0-.38.41,3,3,0,0,1,0-.78,2.55,2.55,0,0,1,.14-.56,3.83,3.83,0,0,1-.57-1.32s0,0,0-.08a3.85,3.85,0,0,0-.87,1.94,4.09,4.09,0,0,0,.44,2.32c.86,1.76,3.05,2.56,5.36,2.59h0a11.42,11.42,0,0,0,6.41-1.81c3.38-2.3,12.86-8.39,12.86-8.39Z"/><path class="cls-32" d="M169.82,201.63c-.2.1-.38,1,.19,2.07s.94.88.94.88l23.9-7.12s.17-3.09-1.52-2.81C192.58,194.78,170.2,201.44,169.82,201.63Z"/><path class="cls-33" d="M192.4,195.72l1.94-.68a1,1,0,0,0-1-.39c-.75.13-23.13,6.79-23.51,7-.15.07-.28.59-.11,1.3C177.13,200.17,184.92,198.28,192.4,195.72Z"/><path class="cls-29" d="M186.73,205.67a52.88,52.88,0,0,0,5.34-.66,1.79,1.79,0,0,0,1-.7c1.56-2.33,1.41-4.14-.12-6.22a19.81,19.81,0,0,0-5.91.09c-1.15.39-2.32.75-3.48,1.15a24.53,24.53,0,0,0-2.37,1L180,201a4.94,4.94,0,0,0-.79.63c-.07.17,1,1,1.43,1.29a4.1,4.1,0,0,0,1.68.2s-.41.36-.33.56a4.63,4.63,0,0,0,1.35.92,1.07,1.07,0,0,1,.51.39s-.07.39,0,.46a3,3,0,0,0,.36.25C185,205.69,185.89,205.69,186.73,205.67Z"/><path class="cls-29" d="M181.21,200.29,180,201a5,5,0,0,0-.83.66c-.07.17,1,1.15,1.48,1.43a2.07,2.07,0,0,0,1.26.1s-.27.28-.19.47.11.25.44.52a2.73,2.73,0,0,0,.83.44c.3.48.24.48.47.71s.53.28.71.39c.85,0,3.49.87,4.34.88,1.46,0,4-1.56,4.24-1.83-4.36,1-9.73-1.74-10.4-4.94Z"/><path class="cls-29" d="M175.73,202.56c-.39.29.82.7,1.47.7a52.14,52.14,0,0,0,6.73-1.95c.65-.32,4.46-1.41,4.9-1.74s.87-1.67-.54-1.51a47.22,47.22,0,0,0-6.22,1.51A44.34,44.34,0,0,0,175.73,202.56Z"/><path class="cls-29" d="M183.12,201.55l6.81-1.8s-5.29,2.35-6.19,2.64S182.49,201.79,183.12,201.55Z"/><path class="cls-29" d="M184.93,203.28c.38-.14.36.37,4.49-.57,0,0-3,1.11-3.87,1.4S184.3,203.51,184.93,203.28Z"/><path class="cls-29" d="M186.36,204.75c.2-.05,4.08-.46,4.08-.46s-2.48.82-3.41,1S185.72,204.92,186.36,204.75Z"/><path class="cls-37" d="M133.93,215.22c0,.29,2.22,7.26,3.13,7.54s6.19-3.92,7.05-9.15c.52-3.15.78-6.3-4-4.09S134,213.84,133.93,215.22Z"/><path class="cls-39" d="M172.14,215.77h0l-.46,0a42.67,42.67,0,0,1-14.9-2.71c-6.24-2.27-11.14-5.47-14-8.5l-.14-.15-.18-.21c-.15-.16-.29-.33-.43-.5l0,0h0c-1.46-1.8-2.06-3.52-1.54-4.94,0,0,0-.24,0-.28a10,10,0,0,0-1,2.15c-2.73,7.52-1,21.12,12,26.27s23.93-4.71,26.66-12.23a8.87,8.87,0,0,0,.38-1.37C177.6,214.79,175.29,215.62,172.14,215.77Z"/><path class="cls-29" d="M137.85,206.9l17,8.56c.38,1.28-1.68,3.18-2.35,3L135,215.86c-3.12-.72-8.5-3.13-6.93-6.12C130.26,205.51,137.85,206.9,137.85,206.9Z"/><path class="cls-28" d="M137,222.8a55.69,55.69,0,0,1,3.6-10.68,10.2,10.2,0,0,1,2.79-3.08l-6.39-3s-7.86-.91-9.92,3.13c-1.46,2.85-.13,7.22,3.52,10.11Z"/><path class="cls-29" d="M153.61,214.94c.58-.12,5.69-.7,6.84-.7s4.79.28,5.17.38,0,.77-.58,1-3.55,0-4.12.19-3.27,1.15-4,1.25S152.54,215.17,153.61,214.94Z"/><path class="cls-29" d="M153,214.91a43,43,0,0,1,8.49,1,36.45,36.45,0,0,1,4.28,3.13c.43.45,4,3.94,4.3,4.2s-.4.67-.46.67-3.32-2.29-3.67-2.51a24.2,24.2,0,0,0-2.76-1.35c.2.19,2.81,2.5,3.14,2.76s2.37,1.94,2.52,2.08-.19.74-.44.74-3.18-1.81-3.62-2.06c-.87-.51-3.06-1.86-2.75-1.42,0,0,2,1.65,2.26,1.85a16.29,16.29,0,0,1,2.16,1.81c0,.18-.51.68-.6.62l-5.16-2.93,2.62,1.94c.18.15-.35.55-.7.49s-4.81-2.74-5.2-3-5.5-4.35-5.82-4.63c0,0,.44-2.81.83-2.94Z"/><polygon class="cls-29" points="174.93 175.86 172.02 155.22 163.69 155.33 164.86 175.73 169.58 179.6 174.93 175.86"/><path id="face" class="cls-18" d="M93,60.14c.07-8.11-1.64-23.38-25-22.06S48,62.83,48,62.83C46.9,78.45,54.67,91.64,71.3,93.1c6.94.27,15-7,18.19-11C94.65,75.56,93.34,64.39,93,60.14Z"/><path id="highlight" class="cls-40" d="M87,46.65c6.07,9.83,5.3,25.41,2.43,32.31-2,4.72-8.71,11.9-15.36,13.87,6.19-1.33,12.62-7.25,15.4-10.76,5.16-6.51,3.85-17.68,3.48-21.93C92.09,57.26,91.7,51.09,87,46.65Z"/><path class="cls-41" d="M78.71,78.52C78.5,80.55,76,81.6,76,81.6a17.26,17.26,0,0,0,4.2-.71C80.11,81.07,80.49,79.71,78.71,78.52Z"/><path class="cls-41" d="M61.59,79.41c.43,2,3.07,2.77,3.07,2.77a16.91,16.91,0,0,1-4.25-.27C60.46,82.09,60,80.77,61.59,79.41Z"/><path class="cls-42" d="M64.92,81.78l-1.36.54c1.31,4.83,7.66,3.5,10.86,3C76.87,84.4,77.35,82,77,81.37,73.28,81.27,68.36,79.44,64.92,81.78Z"/><path class="cls-43" d="M69.64,78c-3.77.37-4.72,1.66-6.07,3.21,0,0-1.18-.19-1.6-.29l1.31.86a6.59,6.59,0,0,0,2.13.43,18.5,18.5,0,0,1,9-.73,5.05,5.05,0,0,0,4.46-1.73,4.31,4.31,0,0,1-1.75.39C75.69,78.84,74.11,77.56,69.64,78Z"/><path class="cls-44" d="M66.46,83.46c.13.84,2.83,1.56,4.35,1.42s4.07-.87,3.83-2C74.45,82.06,66.28,82.29,66.46,83.46Z"/><g id="cheeks"><path class="cls-45" d="M89.54,69.58a7.55,7.55,0,1,1-6.68-8.33A7.56,7.56,0,0,1,89.54,69.58Z"/><path class="cls-46" d="M65.59,72.89a7.56,7.56,0,1,1-6.69-8.33A7.56,7.56,0,0,1,65.59,72.89Z"/></g><g id="nose"><path class="cls-47" d="M73.35,74.16a6.81,6.81,0,0,1-7.22.21c-.28.22,0,.1-.23.29.45.46.93,1,1.39.73a4.7,4.7,0,0,0,5.25-.31c.18-.14.4.17.61.08a4.93,4.93,0,0,0,.76-.61C73.83,74.55,73.51,74.16,73.35,74.16Z"/><path class="cls-48" d="M69.69,65l-1.85.51a13.62,13.62,0,0,1-1.72,7.45,2.27,2.27,0,0,1,0,.51c1.4,1.5,6.91,1.41,6.53-.8C72.3,70.81,70,66.45,69.69,65Z"/></g><path class="cls-15" d="M76.28,65.63l.23.81c.82-1.15,9.12.64,11-4C86,59.73,76.71,60.41,76.28,65.63Z"/><path class="cls-49" d="M78.78,62a2.28,2.28,0,0,0-.06.39,3.11,3.11,0,0,0,6.2.25A2.77,2.77,0,0,0,84.41,61,9.6,9.6,0,0,0,78.78,62Z"/><path class="cls-50" d="M84.05,62.63a2.23,2.23,0,1,1-2.14-2.19A2.17,2.17,0,0,1,84.05,62.63Z"/><path class="cls-15" d="M85.47,63.7a.85.85,0,1,1-1.69-.07.85.85,0,0,1,1.69.07Z"/><path class="cls-50" d="M81.19,60.34c-2.76.51-5,3.63-5.24,4.89l.55,1.48c1.74-8.85,11.71-1.73,13.38-5C88.11,62.65,84.65,59.7,81.19,60.34Z"/><path class="cls-50" d="M88.51,58.83c-.43.12-4.87-5.93-14.75-1.6C73.44,57.37,74,56,74,56,83.14,51.48,86.94,57.07,88.51,58.83Z"/><path class="cls-15" d="M63.63,66.33l-.11.84c-1-1-8.92,2-11.5-2.31C53.17,61.92,62.43,61.23,63.63,66.33Z"/><path class="cls-49" d="M60.62,63.13a2.78,2.78,0,0,1,.12.38,3.11,3.11,0,0,1-6.1,1.17,2.78,2.78,0,0,1,.26-1.78A9.65,9.65,0,0,1,60.62,63.13Z"/><path class="cls-50" d="M55.5,64.51A2.23,2.23,0,1,0,57.3,62,2.17,2.17,0,0,0,55.5,64.51Z"/><path class="cls-15" d="M59.73,65.63a.85.85,0,1,0,.68-1A.85.85,0,0,0,59.73,65.63Z"/><path class="cls-50" d="M58,61.82c2.81.1,5.45,2.87,5.9,4.07l-.32,1.54c-3-8.49-11.84,0-14-3C51.49,65.13,54.48,61.7,58,61.82Z"/><path class="cls-50" d="M50.25,60.32c.43.12,4.9-5.91,14.76-1.53.31.15-.24-1.22-.24-1.22C55.65,53,51.83,58.57,50.25,60.32Z"/><g id="ear"><path class="cls-18" d="M96,58c-1.14-.73-3.39.81-3.76,1.72l.93,11.44C98.24,69.33,98.56,59.59,96,58Z"/><path class="cls-51" d="M94.23,68.87c2.08-1.72,2.54-3.86,2.47-6.74,0-.8-.36-2.23-1.15-2.53s-1.93.67-2.43,1.39l.12,1.56c.32-1,2.1-2,2.55-.7C96.09,62.71,95.75,67.34,94.23,68.87Z"/></g><path class="cls-16" d="M94,63.76a30.51,30.51,0,0,0,.12-21.67c-2.7-6.88-16.43-11.47-21-10.39a34.74,34.74,0,0,0-9.15,4A282.35,282.35,0,0,0,94,63.76Z"/><path class="cls-16" d="M44.63,64.23s-3.36-10.75-.19-20.32c2.37-7.15,13.71-11.77,17.48-10.6a26.55,26.55,0,0,1,7.53,4.24S59.23,49.79,44.63,64.23Z"/><path class="cls-15" d="M71.62,81.24A57.49,57.49,0,0,1,64,80.89l-.23,0c1.89,1.87,4.56,2.71,8,2.41a7.42,7.42,0,0,0,5.25-2.8A43.68,43.68,0,0,1,71.62,81.24Z"/><text class="cls-52" transform="matrix(0.81, -0.2, 0.23, 0.97, 21.93, 129.94)">RECIPES</text><path class="cls-53" d="M188.68,147.51c1.64,11.16-7.43,23.35-16.21,24.53-12,1.61-23.37-9.36-25-20.52s7.46-20.55,19.63-22.37S187,136.36,188.68,147.51Z"/><path class="cls-12" d="M153,157.24c.56,2.41.18,4.2-1.69,4.72s-5.43-.7-6-3.11-.25-4.56,1.61-5.08S152.41,154.82,153,157.24Z"/><path class="cls-54" d="M146.66,125.94a13.55,13.55,0,0,1,1.51,3.32,39.6,39.6,0,0,0-.82-6.17,16.16,16.16,0,0,1,3.19,2,92.24,92.24,0,0,1,.38-9.29c.6.48,2,1.35,2.16,1.56-.12-.52-.13-1.24-.28-1.7a17.65,17.65,0,0,1,3.89,1.69c-.27-1.7-.68-3.46-.95-5.16,3.56,1.87,6.09,3.83,10.06,4.33a90.49,90.49,0,0,1,9.37,1.28c6.19,1.42,10.64,9.64,11.21,18.59l-.49,1.36c.83,1.85.4.45-1.22,1.38-1.64-4.29-5-8.39-9.39-8-4.26.33-7.3,4.68-11.72,5.42-3.92.65-8.68-1-12.18,3.09-3.25,3.77-3.5,7.47-3.8,13.77-1-4-2.73-11.17-2.92-15.14C144.45,133.83,146.05,130,146.66,125.94Z"/><path class="cls-29" d="M161.2,136.92a5.88,5.88,0,0,0,4.31,0c2.7-.87,5.57-3.64,7.61,11.94,0,0-.09,1.54,1.55,9.77,0,0,1.86,1,0,1.67s-1.4,2.86-1.43,3.82a12,12,0,0,0,.28,2.35s1.86,1.77.68,2,.91,1.9-1.69,3.62c0,0-8.12,1.06-13.22-3.13s-10-8.51-11.67-15.54S151.59,135.28,161.2,136.92Z"/><path class="cls-55" d="M165.53,152.86s-.86-7.17-3.36-7.71-6.93-.21-8.24,4.1c0,0-.45,2.47,3.33,4.75Z"/><path id="nose-2" data-name="nose" class="cls-56" d="M175.09,156.13a17,17,0,0,1-2-6,23.89,23.89,0,0,0,.57,5.14c.38,1,1.14,2.23,1,3.34-.1,1-.83,1.23-1.75,1.55a6.69,6.69,0,0,1-3.69.44c0,.07,1,.85,3.5.38.89-.16,2.85-.93,3.22-1.9S175.47,156.87,175.09,156.13Z"/><path class="cls-15" d="M159.9,149.89c4.53-1.14,5.32,2.07,5.63,3-1.45-.21-5.59.72-7.49,1.6A3.14,3.14,0,0,1,159.9,149.89Z"/><path class="cls-14" d="M159.9,149.89a7.81,7.81,0,0,1,1.09-.19,2.88,2.88,0,0,1,1,3.55,20,20,0,0,0-3.93,1.21A3.14,3.14,0,0,1,159.9,149.89Z"/><path class="cls-57" d="M159.2,150.16h.07a1.91,1.91,0,0,1,2,1.81,1.93,1.93,0,0,1-.73,1.64c-.45.12-.89.25-1.3.39a1.89,1.89,0,0,1-1.61-1.22A3.11,3.11,0,0,1,159.2,150.16Z"/><path class="cls-15" d="M160,151.06a.77.77,0,1,1,.71-.81A.77.77,0,0,1,160,151.06Z"/><path class="cls-58" d="M157.26,154a3.9,3.9,0,0,1,3-5c3.21-.76,5,1.81,5.26,3.82-.95-2.5-2.88-3.39-4.54-3.16-3.37.45-3.66,3-3,4.76C157.36,154.69,157.31,154.18,157.26,154Z"/><path class="cls-54" d="M161.23,143.52c-3.38-1-7.59,2.62-7.28,6.6,1.27-3,3.9-4.51,8.22-5C162.17,145.15,163.16,144.1,161.23,143.52Z"/><path class="cls-15" d="M180.64,144.15c-4.7,1.13-3.94,4.45-3.82,5.42,1.24-.88,5.47-2,7.61-2.12A3.16,3.16,0,0,0,180.64,144.15Z"/><path class="cls-14" d="M179.46,144.53a3,3,0,0,1,1.94,2.63,3.51,3.51,0,0,1-.07.8,16,16,0,0,0-4.51,1.61A4.11,4.11,0,0,1,179.46,144.53Z"/><path class="cls-59" d="M177.94,145.43a2.63,2.63,0,0,1,.42-.07,2,2,0,0,1,2.06,1.86,2,2,0,0,1-.22,1,19.83,19.83,0,0,0-2.56.88,2,2,0,0,1-.94-1A3.69,3.69,0,0,1,177.94,145.43Z"/><path class="cls-15" d="M179,146a.74.74,0,0,1-.79-.71.71.71,0,0,1,.28-.63.91.91,0,0,1,.16-.11.56.56,0,0,1,.26-.07.74.74,0,0,1,.79.71A.77.77,0,0,1,179,146Z"/><path class="cls-60" d="M179.88,144c-3.61.59-3.71,3.64-3.06,5.61-.28-2.74.52-4,2.59-4.66,3-1,4.85.88,5,2.54C184.6,144.8,182.15,143.59,179.88,144Z"/><path class="cls-54" d="M175.28,141.3s-.16,1.2.14,1.49c1.25.17,5.32-3.31,8.38-.92C182.77,138.69,177.38,138.33,175.28,141.3Z"/><path class="cls-15" d="M172.38,165a20.1,20.1,0,0,0,5.91-1.7h.11c-1.39,2-3.82,3.2-7.09,3.56a7.32,7.32,0,0,1-5.72-1.61c-.15-.31-.22-.5-.22-.5l.13,0A20.23,20.23,0,0,0,172.38,165Z"/><path class="cls-21" d="M230,54.72c.09,2.11-.27,4.19-.3,6.3-.42,1.31-1,2.56-1.52,3.86-.78,2.36-2.24,4.41-3.3,6.66-1.54,2.39-3.12,4.76-4.87,7-3.45,3.9-7,7.82-11.57,10.48a59.27,59.27,0,0,1-5.95,2.88c-1.89.72-3.88,1.14-5.79,1.81-2.63.86-5.45.59-8.13,1.23-3.55.84-7.17-.06-10.74-.24-5.11-1.27-10.31-2.78-14.66-5.86-6.16-3.62-12-8.55-14.88-15.22-2.91-.32-5.81-.6-8.71-.95-3.47-.35-7,.19-10.43-.65,4-5.47,9.73-9.52,13.53-15.2.17-1.18-.4-2.3-.4-3.47a34.82,34.82,0,0,1,.36-6.37c.34-3-.05-6.12.58-9.13.26-1.51.93-2.91,1.25-4.41a29.21,29.21,0,0,1,3.15-8.24,56.8,56.8,0,0,1,6.51-11.38,34.51,34.51,0,0,1,6.48-5.71c2-1,3.66-2.61,5.65-3.64,2.2-1.13,4.36-2.5,6.84-2.9s4.82-1.3,7.32-1.44c2.71-.45,5.39.37,8.11.24a31.15,31.15,0,0,1,11.93,2.91c2.43,1.19,5.15,1.93,7.22,3.76a61.38,61.38,0,0,1,8,6.63c2.84,3.54,5.93,6.9,8.27,10.8,1.41,1.91,2.13,4.18,3.22,6.26A29.34,29.34,0,0,1,230,45.13,51.21,51.21,0,0,1,230,54.72Z"/><path class="cls-61" d="M152.23,32.56H148V31h10.28v1.52H154V44.92h-1.81Z"/><path class="cls-61" d="M159.82,31.23a18.33,18.33,0,0,1,3.44-.29c1.92,0,3.16.35,4,1.13a3.47,3.47,0,0,1,1.09,2.64,3.64,3.64,0,0,1-2.61,3.54v.06a3.46,3.46,0,0,1,2,2.8,21.41,21.41,0,0,0,1.07,3.81H167a18.5,18.5,0,0,1-.92-3.31c-.42-1.92-1.16-2.64-2.78-2.7h-1.69v6h-1.8Zm1.8,6.32h1.83c1.91,0,3.13-1,3.13-2.64,0-1.79-1.3-2.57-3.19-2.59a7.48,7.48,0,0,0-1.77.16Z"/><path class="cls-61" d="M173.77,44.92V39l-4.39-8h2l2,3.83c.54,1.05.95,1.9,1.39,2.86h0c.39-.9.86-1.81,1.4-2.86l2-3.83h2l-4.65,8v5.91Z"/><path class="cls-61" d="M186.18,44.92V31h2l4.45,7a39,39,0,0,1,2.49,4.52l0,0c-.16-1.85-.2-3.54-.2-5.7V31h1.69V44.92h-1.82l-4.41-7a45.37,45.37,0,0,1-2.59-4.64l-.06,0c.1,1.76.14,3.42.14,5.73v5.93Z"/><path class="cls-61" d="M206.92,38.41h-5.4v5h6v1.5h-7.81V31h7.5v1.5h-5.71v4.39h5.4Z"/><path class="cls-61" d="M212.31,44.92,208.79,31h1.9l1.65,7c.41,1.73.78,3.46,1,4.8h0c.22-1.38.66-3,1.13-4.82l1.85-7h1.88l1.69,7c.39,1.65.76,3.3,1,4.76h0c.28-1.52.68-3.07,1.11-4.8l1.83-7h1.84l-3.94,13.88h-1.87l-1.75-7.23a39,39,0,0,1-.91-4.53h0a45.26,45.26,0,0,1-1.07,4.53l-2,7.23Z"/><path class="cls-61" d="M153.87,51.82a18.33,18.33,0,0,1,3.44-.29,5.7,5.7,0,0,1,4,1.13,3.47,3.47,0,0,1,1.09,2.64,3.64,3.64,0,0,1-2.61,3.54v.06a3.44,3.44,0,0,1,2,2.81,22.64,22.64,0,0,0,1.08,3.81h-1.86a19,19,0,0,1-.92-3.32c-.42-1.92-1.16-2.64-2.79-2.7h-1.69v6h-1.79Zm1.79,6.32h1.84c1.91,0,3.13-1,3.13-2.63,0-1.8-1.3-2.58-3.19-2.6a7.65,7.65,0,0,0-1.78.16Z"/><path class="cls-61" d="M172.14,59h-5.4v5h6v1.51H165V51.63h7.5v1.51h-5.71v4.38h5.4Z"/><path class="cls-61" d="M184.78,65.06a8.81,8.81,0,0,1-3.66.66c-3.92,0-6.86-2.47-6.86-7a6.9,6.9,0,0,1,7.25-7.29,7.64,7.64,0,0,1,3.3.61l-.44,1.47a6.49,6.49,0,0,0-2.8-.58c-3.25,0-5.42,2.08-5.42,5.73,0,3.4,2,5.58,5.34,5.58a7.15,7.15,0,0,0,2.92-.58Z"/><path class="cls-61" d="M188.82,51.63V65.52H187V51.63Z"/><path class="cls-61" d="M192,51.8a20.09,20.09,0,0,1,3.44-.27,5.7,5.7,0,0,1,3.89,1.15,3.75,3.75,0,0,1,1.22,2.91,4.08,4.08,0,0,1-1.07,3,6.94,6.94,0,0,1-5.69,1.4v5.57H192Zm1.79,6.69a5.67,5.67,0,0,0,1.48.15c2.17,0,3.48-1,3.48-3S197.41,53,195.43,53a7,7,0,0,0-1.69.15Z"/><path class="cls-61" d="M210.09,59h-5.4v5h6v1.51H202.9V51.63h7.5v1.51h-5.71v4.38h5.4Z"/><path class="cls-61" d="M212.79,63.33a6.29,6.29,0,0,0,3.21.91c1.83,0,2.91-1,2.91-2.37s-.75-2-2.62-2.76c-2.27-.8-3.67-2-3.67-3.93,0-2.17,1.79-3.77,4.49-3.77a6.29,6.29,0,0,1,3.07.68l-.49,1.46a5.52,5.52,0,0,0-2.64-.66c-1.89,0-2.61,1.13-2.61,2.08,0,1.3.84,1.94,2.76,2.68,2.34.9,3.54,2,3.54,4.08s-1.59,4-4.86,4a7.28,7.28,0,0,1-3.55-.88Z"/></g></g></g></svg>